<?xml version="1.0" encoding="UTF-8"?>
<!DOCTYPE svg PUBLIC "-//W3C//DTD SVG 1.1//EN" "http://www.w3.org/Graphics/SVG/1.1/DTD/svg11.dtd">
<!-- Creator: CorelDRAW -->
<svg xmlns="http://www.w3.org/2000/svg" xml:space="preserve" width="297mm" height="210mm" version="1.1" style="shape-rendering:geometricPrecision; text-rendering:geometricPrecision; image-rendering:optimizeQuality; fill-rule:evenodd; clip-rule:evenodd"
viewBox="0 0 29700 21000"
 xmlns:xlink="http://www.w3.org/1999/xlink"
 xmlns:xodm="http://www.corel.com/coreldraw/odm/2003">
 <defs>
  <style type="text/css">
   <![CDATA[
    .fil0 {fill:#E31E24}
    .fil1 {fill:#38AA3E}
    .fil2 {fill:#38AA3E;fill-rule:nonzero}
   ]]>
  </style>
 </defs>
 <g id="Слой_x0020_1">
  <metadata id="CorelCorpID_0Corel-Layer"/>
  <g id="_2197497405776">
   <path class="fil0" d="M9917.85 11626.31l910.05 1.49 317 -2214.4 613.41 1590.19 503.34 7.94 982.59 -1605.61 -295.94 2231.31 951.88 -2.31 539 -3865.18c-635.06,-121.74 -921.44,-65.4 -1212.81,415.11l-1083.25 1786.43 -680.73 -1862.26c-123.36,-337.52 -438.41,-435.28 -1068.58,-342.75l-475.96 3860.04zm-4049.15 -3861.06l938.86 3908.54 -1010.3 0 -581.68 -3041.11 -1408.3 3030.9 -908.26 0 1424.74 -2910.12c396.01,-739.81 493.33,-1114.06 1544.94,-988.21zm19951.17 -28.58l443.37 0c509.98,-10.18 457.51,323.83 423.55,561.05l-350.14 2445.64c0,0 -81.35,268.11 146.88,268.11 228.23,0 369.67,0 369.67,0l-109.31 607.54c-672.85,128.61 -1515.5,233.12 -1321.15,-887.2l397.13 -2995.14zm-18332.04 0l947.24 0 -430.46 3006.69c0,0 -81.35,268.11 146.88,268.11 228.23,0 369.67,0 369.67,0l-109.31 607.54c-672.85,128.61 -1515.5,233.12 -1321.15,-887.2l397.13 -2995.14zm16879.2 738.6l1027.85 8.4 98.67 -745.66c-721.48,-4.56 -1196.14,-55.4 -1126.52,737.26zm-487.59 992.95l419.33 0.09 -313.92 2197.09 956.63 -10.55 413.58 -2863.44 -1303.86 -5.74 -171.76 682.55zm-2840.46 102.54l1199.04 1.26 -1222.44 1316.56c-106.46,124.65 -196.63,184.55 -254.98,304.01 -54.25,111.1 -61.38,302.25 -79.2,485.48l2054.42 2.51c636.06,-16.21 597.17,-180.59 654.16,-759.27l-1360.96 -3.75 1470.3 -1513.71 130.86 -606.55 -1663.27 -11.81c-755.21,-4.06 -922.98,-29 -927.93,785.27zm-4668.32 869.21c0.67,377.73 -89.12,508.78 -402.85,619.86 -928.6,328.78 -1003.7,-456.88 -515.09,-583.89 187.45,-48.73 703.62,-36.62 917.94,-35.97zm-1454.12 -1538.49l-88.33 591.53c463.28,-81.57 1758.91,-344.39 1623.33,403.8 -540.52,20.02 -1191.27,-80.61 -1637.15,140.86 -943.48,468.63 -790.97,2255.47 1144.1,1556.72 188.78,-68.16 335.5,-147.68 332.09,-106.23l-12.99 157.13 845.32 16.89 205.38 -1892.72c59.14,-725.16 -487.43,-1364.52 -2411.75,-867.98zm2844.58 -84.51l-351.42 2854.68 915.73 6.78 286.11 -1971.42c429.89,-366.39 1136.27,-351.47 1079.2,65.27l-260.64 1902.66 987.62 4.43 212.74 -2053.34c28.35,-273.61 52.79,-495.86 -184.57,-701.31 -602.1,-521.1 -1367.81,-92.47 -1745.47,72.56l-0.59 -191.68 -938.71 11.37z"/>
   <path class="fil1" d="M5551.76 9162.81l1508.84 570.74 -1164.84 722.64c-222.53,138.05 -369.2,150.39 -380.16,-167.14 0,0 -842.49,-43.8 -1488.39,234.22 -645.9,278.03 -1102.11,1087.01 -1102.11,1087.01 0,0 -118.1,67.56 -118.1,-21.72 0,-89.28 65.07,-1153.15 967.93,-1714.09 902.85,-560.94 1598.88,-414.49 1598.88,-414.49l-25.82 -135.04c-19.12,-100 78.83,-217.11 203.77,-162.13z"/>
   <path class="fil2" d="M17894.65 13171.58c-75.01,85.4 -153.21,127.94 -234.64,127.94 -73,0 -133.65,-26.94 -182.17,-80.66 -48.51,-53.71 -72.77,-131.91 -72.77,-234.14 0,-93.57 19.28,-179.2 57.68,-256.67 38.35,-77.47 86.36,-135.38 144.04,-174 57.69,-38.62 115.59,-57.91 173.5,-57.91 95.53,0 167.8,46.06 216.54,138.12l86.91 -414.35 130.69 0 -221.29 1063.29 -121.8 0 23.31 -111.62zm-358.9 -211.62c0,53.43 5.48,95.8 16.1,126.49 10.62,30.91 28.73,56.4 54.44,76.96 25.49,20.52 56.17,30.69 92.06,30.69 59.64,0 113.63,-30.96 161.87,-92.56 64.84,-81.66 97.26,-182.89 97.26,-303.17 0,-60.65 -15.82,-108.16 -47.74,-142.59 -31.91,-34.15 -72.27,-51.26 -120.56,-51.26 -31.41,0 -60.14,6.93 -86.14,21.07 -25.71,13.87 -51.47,37.62 -76.96,71.05 -25.21,33.37 -46.79,75.96 -64.11,127.44 -17.56,51.76 -26.22,97.03 -26.22,135.88zm1147.13 -591.54l31.19 -148.51 130.46 0 -31.19 148.51 -130.46 0zm-191.55 914.78l161.37 -770.74 130.46 0 -161.37 770.74 -130.46 0zm636.36 -264.33l132.14 -7.43c0,37.61 5.7,69.81 17.33,96.53 11.4,26.49 32.69,48.23 63.6,65.11 31.19,17.05 67.36,25.49 108.44,25.49 57.68,0 100.95,-11.62 129.68,-34.93 28.95,-23.03 43.32,-50.47 43.32,-81.89 0,-22.52 -8.67,-44.1 -25.77,-64.39 -17.78,-20.29 -61.1,-45.27 -129.68,-74.95 -68.8,-29.46 -112.85,-50.25 -132.13,-62.38 -32.7,-19.79 -57.18,-43.1 -73.79,-70.04 -16.6,-26.77 -24.76,-57.46 -24.76,-92.34 0,-60.64 24.04,-112.85 72.28,-156.39 48.29,-43.32 115.59,-65.12 202.45,-65.12 96.3,0 169.81,22.25 220.06,67.08 50.47,44.54 76.46,103.46 78.47,176.46l-127.72 8.94c-2.01,-46.56 -18.33,-83.45 -49.02,-110.67 -30.68,-27.22 -74.23,-40.81 -130.46,-40.81 -45.27,0 -80.43,10.4 -105.41,31.19 -24.99,21.02 -37.4,43.55 -37.4,67.8 0,23.98 10.9,45.56 32.48,63.84 14.31,12.63 51.48,31.91 111.34,57.9 100,43.32 162.88,77.47 188.87,102.74 41.58,39.85 62.38,88.59 62.38,145.99 0,38.13 -11.69,75.52 -35.16,112.13 -23.25,36.67 -58.91,65.84 -106.93,87.87 -48.01,22.02 -104.47,32.92 -169.53,32.92 -88.65,0 -164.1,-22.02 -226.2,-66.07 -62.16,-43.82 -91.84,-115.59 -88.88,-214.58zm1327.56 157.9l-21.74 107.43c-31.47,8.16 -61.88,12.36 -91.33,12.36 -52.21,0 -93.57,-12.86 -124.48,-38.63 -23.03,-19.28 -34.66,-45.77 -34.66,-79.2 0,-16.82 6.15,-55.89 18.79,-116.82l93.56 -448.45 -103.96 0 20.79 -101 103.97 0 39.85 -188.81 150.24 -90.38 -59.41 279.19 129.17 0 -22.24 101 -127.72 0 -89.1 426.43c-11.12,54.22 -16.6,86.63 -16.6,97.25 0,15.6 4.47,27.5 13.36,35.67 8.94,8.16 23.53,12.4 43.82,12.4 28.95,0 54.94,-2.74 77.69,-8.44zm398.7 106.43l160.42 -770.74 117.04 0 -33.14 157.68c40.07,-59.13 78.92,-102.96 117.04,-131.41 37.9,-28.5 76.75,-42.59 116.32,-42.59 25.99,0 58.19,9.39 96.31,28.23l-53.5 121.74c-22.74,-16.83 -47.73,-25.21 -74.73,-25.21 -46,0 -93.29,25.71 -141.8,76.97 -48.52,51.2 -86.86,143.31 -114.87,276.45l-64.33 308.88 -124.76 0zm974.64 -914.78l31.19 -148.51 130.46 0 -31.19 148.51 -130.46 0zm-191.55 914.78l161.37 -770.74 130.46 0 -161.37 770.74 -130.46 0zm624.46 0l222.79 -1063.29 130.41 0 -80.44 380.2c40.36,-38.12 76.97,-64.84 109.89,-80.44 32.92,-15.59 67.08,-23.53 102.96,-23.53 69.81,0 128.22,26.72 175.01,80.43 46.78,53.5 70.03,131.41 70.03,233.64 0,68.08 -9.39,130.46 -28.22,186.86 -18.84,56.46 -42.32,103.74 -70.04,142.09 -27.72,38.34 -56.45,69.03 -86.13,92.06 -29.68,22.74 -60.15,39.85 -91.34,51.25 -30.96,11.35 -60.86,17.05 -89.59,17.05 -49.53,0 -93.07,-13.08 -130.91,-39.57 -37.62,-26.5 -67.07,-67.08 -88.15,-121.3l-30.91 144.55 -115.36 0zm193.56 -315.08l-1.01 24.54c0,65.34 15.1,114.8 45.78,148.96 30.46,33.92 68.36,50.97 113.86,50.97 44.83,0 85.63,-16.04 123.02,-48.24 37.12,-31.91 67.8,-82.16 91.84,-150.24 23.98,-68.08 35.88,-130.91 35.88,-188.37 0,-64.56 -15.09,-114.8 -45.27,-150.47 -30.24,-35.88 -67.86,-53.71 -112.41,-53.71 -45.77,0 -88.09,18.33 -126.43,54.72 -38.4,36.61 -70.54,92.56 -96.31,168.52 -19.28,56.96 -28.95,104.69 -28.95,143.32zm1448.85 175.73c-92.34,103.69 -187.08,155.67 -283.89,155.67 -59.41,0 -107.43,-16.83 -144.04,-50.7 -36.61,-33.93 -54.94,-75.51 -54.94,-124.53 0,-32.42 9.16,-87.87 26.99,-166.79l101.23 -445.04 131.91 0 -112.12 498.98c-9.4,41.58 -14.09,74 -14.09,97.03 0,26.49 8.89,47.29 26.94,61.88 17.83,14.86 44.33,22.24 79.2,22.24 37.4,0 73.79,-8.89 109.39,-26.72 35.66,-17.83 66.35,-41.81 92.12,-71.99 25.71,-30.24 46.78,-66.12 63.1,-107.43 10.62,-26.27 23.25,-72.55 37.34,-138.84l73.28 -335.15 130.46 0 -170.54 770.74 -121.29 0 28.95 -139.35zm897.9 32.92l-21.75 107.43c-31.46,8.16 -61.87,12.36 -91.33,12.36 -52.2,0 -93.57,-12.86 -124.48,-38.63 -23.03,-19.28 -34.65,-45.77 -34.65,-79.2 0,-16.82 6.15,-55.89 18.78,-116.82l93.57 -448.45 -103.97 0 20.8 -101 103.96 0 39.85 -188.81 150.25 -90.38 -59.42 279.19 129.18 0 -22.25 101 -127.72 0 -89.1 426.43c-11.12,54.22 -16.6,86.63 -16.6,97.25 0,15.6 4.47,27.5 13.36,35.67 8.94,8.16 23.53,12.4 43.82,12.4 28.96,0 54.95,-2.74 77.7,-8.44zm421 -186.35c0,-150.02 44.27,-274.28 132.64,-372.76 73.05,-80.94 168.57,-121.52 287.13,-121.52 92.56,0 167.29,28.96 224.19,86.86 56.74,57.91 85.19,136.16 85.19,234.43 0,88.31 -17.83,170.47 -53.72,246.49 -35.66,75.96 -86.64,134.37 -152.48,174.73 -66.07,40.58 -135.38,60.87 -208.38,60.87 -59.92,0 -114.36,-12.86 -163.38,-38.35 -49.24,-25.48 -86.58,-61.87 -112.35,-108.65 -25.99,-46.79 -38.84,-100.73 -38.84,-162.1zm130.68 -12.91c0,72.55 17.55,127.49 52.48,164.83 34.88,37.4 79.43,56.23 133.37,56.23 28.23,0 56.17,-5.7 83.67,-17.1 27.73,-11.4 53.44,-28.45 77.2,-51.7 24.03,-23.31 44.32,-49.75 60.92,-79.49 16.83,-29.68 30.41,-61.59 40.58,-96.02 15.09,-47.74 22.53,-93.57 22.53,-137.62 0,-69.53 -17.61,-123.47 -52.71,-161.87 -35.38,-38.34 -79.71,-57.63 -133.2,-57.63 -41.31,0 -78.92,9.9 -112.85,29.46 -34.15,19.51 -64.84,48.01 -92.28,85.85 -27.5,37.62 -47.57,81.44 -60.43,131.41 -12.85,50.03 -19.28,94.58 -19.28,133.65zm964.47 305.69l160.41 -770.74 117.05 0 -33.15 157.68c40.08,-59.13 78.93,-102.96 117.05,-131.41 37.89,-28.5 76.74,-42.59 116.31,-42.59 25.99,0 58.19,9.39 96.31,28.23l-53.49 121.74c-22.75,-16.83 -47.74,-25.21 -74.73,-25.21 -46,0 -93.29,25.71 -141.81,76.97 -48.51,51.2 -86.86,143.31 -114.86,276.45l-64.34 308.88 -124.75 0z"/>
  </g>
 </g>
</svg>
