<?xml version="1.0" encoding="UTF-8"?>
<!DOCTYPE svg PUBLIC "-//W3C//DTD SVG 1.1//EN" "http://www.w3.org/Graphics/SVG/1.1/DTD/svg11.dtd">
<!-- Creator: CorelDRAW -->
<svg xmlns="http://www.w3.org/2000/svg" xml:space="preserve" width="297mm" height="210mm" version="1.1" style="shape-rendering:geometricPrecision; text-rendering:geometricPrecision; image-rendering:optimizeQuality; fill-rule:evenodd; clip-rule:evenodd"
viewBox="0 0 29700 21000"
 xmlns:xlink="http://www.w3.org/1999/xlink"
 xmlns:xodm="http://www.corel.com/coreldraw/odm/2003">
 <defs>
  <style type="text/css">
   <![CDATA[
    .fil0 {fill:#2E558C}
   ]]>
  </style>
 </defs>
 <g id="Слой_x0020_1">
  <metadata id="CorelCorpID_0Corel-Layer"/>
  <path class="fil0" d="M13547.98 12690.97c-39.97,-171.55 -58.25,-306.99 -119.81,-458.07 -505.71,-1241.28 -2095.25,-838.31 -2095.25,193.21 0,328.61 214.26,557.7 457.4,698.33 436.44,252.45 1098.19,-131.99 1107.59,-553.86 252.3,184.87 138.47,841.75 -12.18,1143.57 -220.97,442.71 -668.51,820.64 -1099.17,1043.71 -854.69,442.73 -1616.4,618.08 -2555.28,444.2 -129.81,-24.04 -177.05,-43.59 -282.27,-78.89 -30.5,-10.23 -91.8,-30.16 -123.39,-45.14 -37.57,-17.82 -78.82,-44.55 -124.94,-67.67 -98.37,-49.3 -143.46,-74.6 -228.56,-132.6 -782.28,-533.1 -973.35,-1609.63 -352.09,-2438.27 62.61,-83.5 102.4,-117.05 173.22,-187.95 63.66,-63.73 105.51,-137.65 198.63,-162.52 -140.57,603.4 -83.07,1211.6 513.33,1533.27 219.05,118.15 534.3,172.25 763.25,104.55 1300.99,-384.68 614.34,-2011.28 -441.62,-1549.22 -156.81,68.62 -181.89,165.87 -305.27,248.49 0,-681.91 732.39,-1146.01 1276.59,-1395.99 51.49,-23.66 107.52,-48.5 150.64,-66.04 327.5,-133.3 852.29,-324.67 1173.03,-391.99l1505.72 -275.97c123.67,-20.72 296.92,-15.85 403.49,-29.89 299.07,-39.4 443.71,-31.21 739.23,-31.21 0,248.69 -202.19,1051.97 -277.28,1311.85 -48.06,166.37 -294.82,971.28 -445.01,1144.1zm-2335.44 -7030.77c0,-106.39 -10.69,-146.52 -18.48,-222.31 -18.9,-184.12 42.39,-162.94 -294.52,-162.94 -5.09,0 -287.58,119.84 -321.34,136.12l-954.72 441.75 0 144.47c247.48,57.65 475.16,27.14 581.77,646.18 59.26,344.14 140.53,1007.3 140.53,1352.29l-94.53 290.71c-47.71,70.85 -147.6,143.38 -218.47,190.85 14.13,60.62 24.44,143.19 48.16,192.62 200.49,-4.46 340.29,-62.74 457.59,-72.1l495.47 -58.29c198.71,-27.23 811.68,-92.65 948.99,-158.54 -40.45,-173.61 22.31,-158.16 -132.8,-204.29 -102.69,-30.55 -164.88,-64.71 -218.75,-142.41 -255.48,-368.53 -201.29,-754.82 -256.19,-1164.4 -33.12,-247.08 -90.48,-553.03 -90.48,-800.39 0,-15.89 62.07,-145.81 73.42,-167.35 29.78,-56.53 64.4,-102.88 112.27,-152.58 317.55,-329.81 776.58,-173.39 845.69,516.47 20.9,208.72 24.31,347.8 27.03,574.92 2.87,239.57 212.13,1212.42 -263.88,1323.33 0,283.04 12.9,248.74 302.48,206.25l1094.92 -60.83c96.03,-1.17 456.5,-5.33 456.5,-121.35 0,-366.59 -291.14,66.54 -451.4,-752.48 -88.07,-450.1 -10.59,-1201.19 -103.63,-1605.9 -102.88,-447.47 -291.45,-819.92 -913.65,-819.92 -286.55,0 -651.52,174.96 -853.28,326.5l-133.42 107.35c-194.88,178.7 -144.52,206.21 -265.28,216.27zm8980.58 433.4c28.14,18.84 29.22,24.05 55.32,40.98 44.34,28.74 22.58,12.38 61.27,35.04 46.7,27.34 79.29,50.86 119.91,96.78 63.64,71.93 35.43,22.68 63.6,129.04 70.08,264.69 26.76,229.03 -6.88,472.96 -30.9,224.2 -165.34,638.36 -233.84,849.66 -65.32,201.5 -123.94,555.81 -360.73,722.76 -104.57,73.73 -147.96,54.71 -276.49,84.65 -31.21,65.06 -48.15,116.12 -48.15,216.71l571.46 150.85c41.8,13.08 67.23,16.79 115.51,28.94 81.69,20.55 163.5,39.12 233.34,55.59 96.29,22.69 146.16,50.75 218.13,70.79l691.38 199.46c25.08,-52.27 66.56,-148.5 72.23,-216.69 -49.87,-33.4 -126.77,-75.41 -162.48,-126.45 -121.65,-173.88 -91.22,-446.9 -42.67,-632.52l343.59 -1197.38c55.03,-163.66 37.54,-192.36 95.01,-266.15 136.59,-175.43 338.53,-257.54 561.08,-257.54 106.72,0 -10.03,-3.27 69.13,27.18 491.56,189.05 254.01,751.57 155.74,1064.51 -10.47,33.34 -17.59,66.32 -26.16,94.23 -32.98,107.51 -67.22,189.35 -102.24,283 -12.3,32.9 -11.37,33.7 -25.08,71.22l-20.05 52.2c-72.39,195.41 -53.9,201.74 -168.39,457.62 -34.89,77.97 -102.6,199.46 -146.98,262.34 -51.15,72.48 -129.67,147.08 -232.52,176.79 -134.42,38.82 -225.75,16.66 -225.75,183.57 0,68.33 40.86,73.12 173.93,114.99l1095.74 372.96c29.62,12.03 78.47,36.55 99.14,45.33l340.63 116.82c4.03,-8.39 20.44,-47.69 21.74,-50.49 52.02,-111.75 50.49,-70.68 50.49,-190.29 -55.11,-19.95 -103.36,-76.41 -131.49,-133.35 -64.92,-131.42 -61.12,-216.85 -61.12,-348.21 0,-90.77 19.55,-50.95 52.07,-236.85 34.32,-196.18 162.91,-455.33 228.01,-638.79 28.54,-80.4 45.96,-136.87 77.48,-211.45 269.33,-637.19 545.14,-1393.47 -274.21,-1741.15 -385.19,-163.45 -846.03,-118.02 -1214.94,35.21 -71.03,29.5 -116.79,76.05 -192.63,96.3 6.73,-301.7 263.41,-363.11 -50.44,-479.28 -216.28,-80.06 -354.43,-26.33 -695.93,-26.36l-745.57 0.81c-109.33,19.39 -80.57,59 -121.19,143.66zm-2287.28 1757.69c-209.81,0 -466.11,120.12 -675.29,-167.39 -236.72,-325.36 -12.32,-916.12 675.29,-916.12l120.38 0c0,218.92 -7.86,132.28 -38.71,298.38l-81.67 785.13zm-10015.87 -385.25c2.89,130.18 245.78,929.78 288.91,1011.28 -142.57,95.47 -227.13,192.62 -457.45,192.62 -522.53,0 -611.09,-726.8 -245.21,-1015.72 98.82,-78.04 258.45,-175.26 413.75,-188.18zm6187.69 -4117.33c0,318.72 327.86,746.41 746.37,746.41 390.94,0 605.51,-64.29 818.51,-433.5 380.14,-658.96 -618.85,-1486.94 -1294.74,-861.41 -77.94,72.14 -132.05,128.73 -177.8,231.51 -16.67,37.45 -92.34,268.02 -92.34,316.99zm-3972.65 14687.58l-177.06 -376.72c-41.86,-108.08 4.82,-104.84 -184.09,-104.84 -135.43,0 -50.69,254.08 -47.93,360.95 4.6,177.74 23.86,268.35 23.86,457.7 132.13,88.49 9.65,61.38 168.53,48.16 0,-190.44 -24.07,-282.66 -24.07,-457.49l115.47 221.63c2.2,5.4 4.56,11.9 6.92,17.15 82.56,184.38 194.28,107.48 235.04,-73.95 13.97,-62.19 12.52,-66.28 22.91,-121.55 22.94,-121.98 -30.39,-54.38 53.04,-115.51 0,534.84 4.94,501.21 192.61,457.48 0,-97.61 -61.05,-769.24 -96.31,-842.72l-192.61 0 -54.92 258.08c-18.73,109.9 -41.39,102.07 -41.39,271.63zm3996.72 -2407.8l240.77 457.48c-113.94,-30.43 -383.08,-220.92 -457.45,-240.78 -62.3,41.72 -122.31,85.58 -144.46,168.55l306.98 294.95c82.67,82.94 207.59,253.17 319.01,282.92 73.32,-109.51 83.01,-104.29 -66.12,-246.9 -56.11,-53.67 -104.87,-81.43 -126.5,-162.43 302.87,70.57 171.65,207.31 409.31,48.16 -29.7,-127.46 -158.23,-237.33 -168.54,-361.17 99.02,26.44 93.74,65.88 155.86,133.07 61.71,66.74 107.18,58.94 133.06,155.87l96.3 0c19.02,-71.23 9.8,-39.04 48.16,-96.31l-571.94 -583.77c-88.86,28.04 -132.72,88.06 -174.44,150.36zm1083.45 -1083.51c160,0 112.16,26.86 288.92,120.39 -123.44,184.35 0.24,108.41 48.16,240.78 -159.04,0 -148.5,7.52 -324.18,-109.27 -46.86,-31.15 -87.01,-54.3 -100.97,-117.31 -14,-63.11 17.07,-134.59 88.07,-134.59zm-3009.58 2744.89c0,-127.27 14.82,-112.68 120.39,-168.54 112.96,59.78 188.55,130.74 192.61,313.01 -43.82,11.7 -24.36,5.01 -48.98,23.24l-47.33 49c23.84,89.27 24.32,31.11 48.16,120.38 -118.81,-2.65 -133.88,-26.15 -173,-115.93 -7.67,-17.62 -91.85,-216.57 -91.85,-221.16zm4044.88 -4647.05c-95.06,0 -97.7,-7.58 -168.54,-24.08 5.98,-71.85 33.16,-216.7 120.39,-216.7 159.45,0 55.79,151.13 48.15,240.78zm-1589.06 2648.58c0,-58.74 55.84,-120.4 144.46,-120.4 38.73,0 312.99,182.34 312.99,264.87 0,304.75 -316.82,51.65 -398.82,-34.56 -34.05,-35.77 -58.63,-51.46 -58.63,-109.91zm-3611.49 2142.94c0,364.24 272.9,650.11 -72.23,650.11 -107.41,0 -127.05,-198.2 -140.45,-292.95 -49.06,-346.74 -58.21,-333.08 -172.55,-333.08 -117.28,0 -33.98,255.41 10.49,471.06 115.94,562.23 639.58,337.92 639.58,82.73 0,-287.7 -10.57,-148.72 -51.53,-381.88 -17.14,-97.58 -44.78,-149.24 -44.78,-268.22 -117.14,0 -168.53,-16.3 -168.53,72.23zm2046.51 -553.79c36.65,24.55 144.59,111.79 168.54,144.47 -42.45,57.94 -48.17,64.21 -144.46,72.22 0,-120.49 -21.07,-107.57 -24.08,-216.69zm2913.27 -3563.55l74.05 -3.63c39.81,1.06 77.42,3.63 118.57,3.63 -5.41,65.01 -11.3,65.5 -24.08,120.39 -49.77,-4.14 -94.51,1.23 -159.97,-95.32l-8.57 -25.07zm-4694.94 4021.02c26.26,49.64 33.4,57.08 48.15,120.4 174.05,0 114.87,-48.16 288.92,-48.16 0,279.82 -185.53,486.2 -72.23,722.34 125.13,-29.15 233.24,-63.03 355.43,-102.09 186.94,-59.78 203.8,-58.93 102.03,-210.93 -154.13,35.92 -175.4,69.72 -288.93,72.24 6.6,-295.99 131.24,-302.55 96.32,-722.34 -125.11,0 -438.61,107.56 -529.69,168.54zm2239.12 -1155.74c24.42,104.84 69.44,187.5 72.24,313.02 -154.24,-35.93 -195.54,-111.49 -337.08,-144.47 -4.31,3.75 -11.6,3.23 -13.47,10.59l-38.64 33.61c-30.29,30.34 -22.19,19.25 -44.2,52.11 108.86,148.58 358.69,127.28 560.57,354.37 50.14,56.4 98.84,117.39 137.65,175.35 52.21,-34.96 83.16,-45.48 120.39,-96.31 -57.73,-216.24 -103.33,69.69 -251.61,-591.11 -17.94,-79.97 -43.31,-149.96 -61.39,-227.54 -78.73,21.01 -104.3,60.42 -144.46,120.38zm2383.59 -1950.31c-153.89,-41.1 -452.83,-274.53 -625.99,-288.94 -29.81,56.33 -41.35,62.68 -48.15,144.47 69.94,18.67 268.15,136.83 349.2,180.5 507,273.2 359.54,270.77 662.01,-300.9 -55.81,-37.37 -78.12,-64.7 -168.53,-72.23 -24.56,105.42 -114.21,255.96 -168.54,337.1zm168.54 -2335.58c0,154.39 88.55,141.4 444.36,229.8 368.77,91.62 398.32,156.99 398.32,-85.33 -77.47,-18.04 -130.21,-38.6 -204.57,-60.27l-459.68 -119.84c-71.24,-22.25 -178.43,-79.83 -178.43,35.64zm6895.9 -239.26c166.43,0 301.34,134.91 301.34,301.35 0,166.42 -134.91,301.33 -301.34,301.33 -166.43,0 -301.34,-134.91 -301.34,-301.33 0,-166.44 134.91,-301.35 301.34,-301.35zm-11.58 468.18l-2.26 -108.91c-2.2,-0.93 -5.34,-2.58 -9.45,-4.95l-53.98 -31.17 -46.37 80.33 -44.41 -25.64 159.12 -275.61 98.39 56.81c20.73,11.97 36.51,26.33 47.33,43.08 10.83,16.74 16.1,34.83 15.82,54.26 -0.29,19.44 -6.27,39.27 -17.93,59.48 -11.98,20.73 -26.66,36.05 -44.08,45.94 -17.4,9.91 -36.43,13.79 -57.07,11.67l2.72 122.33 -47.83 -27.62zm101.49 -178.16c10.16,-17.59 12.95,-33.99 8.39,-49.24 -4.56,-15.23 -16.53,-28.43 -35.89,-39.61l-51.93 -29.99 -63.42 109.85 51.93 29.99c19.36,11.18 36.82,14.87 52.36,11.07 15.56,-3.79 28.41,-14.49 38.56,-32.07zm-89.91 -235.05c136.07,0 246.38,110.3 246.38,246.38 0,136.06 -110.31,246.37 -246.38,246.37 -136.07,0 -246.38,-110.31 -246.38,-246.37 0,-136.08 110.31,-246.38 246.38,-246.38zm-7329.29 1436.35c3.14,140.79 130.7,213.58 294.9,379.28 75.76,76.46 286.21,287.16 379.26,294.91 15.47,-66.44 11.6,-54.26 48.15,-96.32 -40.78,-77.06 -53.96,-81.21 -96.31,-144.46 36.78,-157.91 68.59,-237.78 164.13,-256.12 51.76,-9.93 48.08,41.57 115.79,-69.79 49.29,-81.04 49.75,-96.4 -59.59,-108.78 -141.25,-16 -780.23,-24.37 -846.33,1.28zm-2792.88 3515.39l99.29 526.73c87.84,468.72 72.58,311.97 237.78,267.85 -8.23,-98.94 -24.08,-53.79 -24.08,-144.47 0,-16.43 149.55,-144.47 240.77,-144.47 83.64,0 36.75,48.16 120.38,48.16 78.26,0 18.18,-20.86 120.39,-48.16 -38.88,-145.62 -461.76,-388.82 -586.55,-497.31 -3.88,-3.37 -8.87,-8.34 -12.77,-11.73 -152.75,-133.04 -195.21,-13.12 -195.21,3.4zm2455.81 -1227.97c0,-96.13 -142.99,-219.53 -208.99,-272.55 -68.31,-54.88 -220.82,-184.94 -320.69,-184.94 -183.71,0 -566.9,271.83 -124.18,629.83 88.83,71.83 265.01,216.5 389.14,167.64 113.29,-44.6 264.72,-190.64 264.72,-339.98zm529.69 -2793.05c0,142.51 204.92,155.77 421.64,228.44 323.78,108.58 421.04,189.79 421.04,12.34 0,-63.73 -2.11,-47.5 -104.7,-87.92l-184.22 -56.55 0 -72.24c53.16,-12.38 74.32,-25.72 131.01,-37.54 65.68,-13.69 103.98,-8.26 168.59,-24.01 135.49,-33.01 133.78,-74.04 133.78,-227.38 -103.52,24.11 -243.04,69.6 -361.14,72.23 -34.02,-70.89 -85.03,-240.78 -313,-240.78 -199.8,0 -313,433.38 -313,433.41zm-3467.04 5176.76c145.38,0 175.89,-41.4 258.57,-102.59 130.83,-96.84 182.21,12.69 222.97,-162.26 -109.05,-148.85 -47.32,100.85 -175.17,-234.14 -16.12,-42.25 -28.87,-66.45 -44.99,-99.48 -105.22,-215.75 -155.5,-268.33 -357.68,-268.33 -157.25,0 -279.54,189.34 -294.7,278.04 -12.58,73.61 160.09,588.76 391,588.76zm2528.05 -3154.21c0,221.61 599.97,686.56 804.15,298.55 44.06,-83.73 19.58,-73.97 43.39,-149.23 39.48,-124.83 0.12,-45.79 115.53,-101.16 -4.95,-21.25 -22.58,-95.03 -34.98,-110.37 -66.31,-82.07 -25.24,-10.03 -109.48,-10.03 -135.76,0 -444.81,-449.7 -718.21,-164.44 -40.99,42.76 -100.4,160.04 -100.4,236.68zm-8956.5 -7560.49c0,88.07 11.25,385.24 96.3,385.24 281.21,0 724.37,-134.72 928.88,-274.97 51.8,-35.51 55.84,-52.33 106.42,-86.2 -58.41,-250.73 -277.77,-732.74 75.32,-887.8 75.34,-33.09 -35.04,-27.16 69.14,-27.16 293.35,0 336.57,21.68 488.39,571.01 36.17,130.88 96.07,230.5 113.52,440.26 -52.61,27.85 -59.12,27.25 -119.42,49.12 -361.75,131.15 -555.62,210.25 -877.43,422.74l-276.98 228.63c-352.91,334.16 -423.77,907.98 -8.29,1279.99 514.34,460.52 1246.06,64 1661.53,-324.92 53.16,-49.77 66.8,-74.79 126.2,-114.57 190.18,127.36 174.77,192.63 481.53,192.63 366.2,0 784.51,-249.14 1017.6,-523.33 185.31,-218 30.38,-295.32 -30.46,-295.32 -81.62,0 -405.46,375.52 -578.54,-167.84 -185.25,-581.58 -239.82,-1477.56 -607.96,-1920.19 -149.46,-179.7 -519.52,-295.69 -739.62,-295.69 -162.99,0 -348.07,50.48 -508.1,93.82l-310.39 98.91c-301.76,109.28 -668.37,326.2 -870.78,573.86 -65.68,80.36 -104.86,152.56 -153.57,255.75l-83.29 326.03zm10352.94 -1011.28c382.38,183.48 741.18,126.79 1107.53,96.31 44.93,-192.88 29.02,-353.36 95.96,-530.06 169.63,-447.71 650.42,-345.73 650.42,24.42 0,293.3 -11.28,581.09 -72.24,842.73 -240.33,0 -510.04,-11.64 -746.65,-0.28 -190.28,9.14 -683.91,126.41 -874.1,257.52 -898.8,619.56 -307.82,1969.77 1187.65,1476.65 88.84,-29.29 198.58,-89.09 288.65,-96.58 205.72,307.23 368.5,433.4 866.76,433.4 302.54,0 818.6,-193.69 818.6,-288.93 0,-88.4 -37.3,-116.39 -72.22,-168.55 -395.47,8.81 -553,172.11 -429.64,-694.51 80.09,-562.6 346.15,-1382.21 58.49,-1823.69 -101.43,-155.66 -180.56,-212.71 -340.61,-309.47 -119.29,-72.11 -307.66,-153.28 -449.97,-176.04 -122.11,-19.53 -158.28,-15.63 -272.76,-40.24 -68,-14.62 -241.02,-32.8 -301.12,-37.61l-564.21 59.27c-94.91,28.43 -156.76,36.69 -247.46,65.55 -289.26,92.04 -525.64,334.08 -652.04,624.05 -34.3,78.69 -51.04,180.85 -51.04,286.06zm-2311.35 -794.58c0,121.93 72.95,103.97 175.4,137.61 150.49,49.4 220.91,178.08 256.1,321.76 21.3,87.01 50.03,150.07 50.03,238.9l-47.19 3082.94c-1.51,125.15 -22.72,135.95 -25.03,239.82 -444.14,0 -730.16,-0.32 -1159.16,44.68 -181.76,19.07 -313.98,12.8 -492.21,37.47 -309.8,42.89 -624.19,56.46 -920.18,139.21 -334.38,93.46 -720.32,154.07 -1063.89,260.33 -321.91,99.56 -667.98,190.13 -983.94,316.22 -365.48,145.86 -751.52,306.28 -1082.4,506.69l-334.38 195.31c-315.13,209.29 -600.79,454.44 -867.82,721.29 -200.9,200.77 -543.8,644.45 -641.49,923.53 -27.98,79.92 -40.32,115.31 -73,191.86 -235.46,551.58 -204.98,1195.79 -7.5,1761.62 124.01,355.29 368.78,692.46 663.76,925.35 54.8,43.26 97.25,63.22 154.16,110.7 137.71,114.87 294.4,179.56 451.56,270.74l30.49 17.67c4.77,2.55 10.85,5.9 15.71,8.36 182.91,92.3 388.1,150.14 592.88,201.67 1022.74,257.37 2019.87,127.31 2969.4,-279.37l465.64 -232.59c144.94,-91.12 288.6,-163.49 422.82,-275.42 309.87,-258.4 657.96,-499.83 910.5,-823.07l384.63 -482.15c358.23,-520.34 683.11,-1123.14 912.32,-1712.14 36.61,-94.05 61.42,-171.41 94.65,-266.51 34.28,-98.13 58.09,-158.06 90.36,-246.73 30.91,-84.96 50.62,-178.46 83.77,-277.39l229.36 -830.06c27.9,-103.83 9.47,-271.57 131.18,-272.83 353.49,-3.66 726.16,86.03 1071.05,123.23 473.12,51.03 904.33,164.88 1360.27,252.87 102.34,19.75 171.87,45 266.99,70.1l1002.17 297.98c64.71,17.43 61.7,12.18 113.91,30.55 30.44,10.7 89.39,36.87 120.22,48.32l698.69 288.47c151.33,69.32 290.06,136.78 431.69,218.4 605.94,349.2 1159.36,776.31 1537.52,1375.82 20.11,31.88 46.09,67.2 64.69,103.85l97.01 216c8.22,21.82 10.59,31.27 18.77,53.46l65.82 199.04c20.98,68.85 22.95,38.97 22.95,145.59 -67.36,-24.38 -67.3,-59.75 -130.06,-110.7 -451.97,-366.91 -1096.08,-274.7 -1334.95,186.59 -193.2,373.09 -104.38,799.05 182.22,1086.58 77.88,78.14 158.17,134 250.67,182.73 210.1,110.69 458.5,99.48 695.05,99.48 70.64,0 97.53,-26.1 171.29,-45.41 165.38,-43.28 304.96,-132.85 424.71,-249.44 162.18,-157.93 280.07,-310.36 348.64,-542.24 94.11,-318.3 78.15,-451.93 46.35,-755.91 -10.62,-101.59 -3.47,-112.44 -24.59,-192.11 -16.43,-61.96 -21.02,-110.54 -38.97,-177.72 -12.14,-45.44 -46.13,-117.74 -60.46,-156.24l-67.32 -173.46c-89.99,-199.97 -199.98,-399.43 -324.88,-565.99 -164.33,-219.11 -328.11,-446.25 -536.13,-619.58l-454.79 -387.91c-60.16,-45.4 -80.77,-68.85 -133.72,-107.06 -264.24,-190.72 -555.34,-346.61 -833.18,-515.14 -83.86,-50.87 -194.09,-101.03 -286.07,-147.32 -59.97,-30.17 -86.81,-40.32 -150.07,-66.61l-1220.79 -464.61c-7.4,-2.49 -27.72,-10.54 -34.92,-13.23 -5.56,-2.06 -11.7,-4.76 -17.23,-6.85l-922.45 -257.32c-583.53,-121.85 -1358.25,-286.65 -1928.49,-310.67 -139.74,-5.88 -281.49,-45.13 -409.47,-47.98 0,-321.56 48.64,-417.17 48.14,-794.59 -0.33,-257.51 24.12,-431.61 24.1,-698.24 -0.06,-481.11 24.07,-919.14 24.07,-1420.61l0 -1516.91c0,-205.89 -699.61,72 -904.77,130.53l-530.91 167.31c-69.08,20.17 -129.3,31.68 -129.3,111.48z"/>
 </g>
</svg>
