<?xml version="1.0" encoding="UTF-8"?>
<!DOCTYPE svg PUBLIC "-//W3C//DTD SVG 1.1//EN" "http://www.w3.org/Graphics/SVG/1.1/DTD/svg11.dtd">
<!-- Creator: CorelDRAW -->
<svg xmlns="http://www.w3.org/2000/svg" xml:space="preserve" width="297mm" height="210mm" version="1.1" style="shape-rendering:geometricPrecision; text-rendering:geometricPrecision; image-rendering:optimizeQuality; fill-rule:evenodd; clip-rule:evenodd"
viewBox="0 0 29700 21000"
 xmlns:xlink="http://www.w3.org/1999/xlink"
 xmlns:xodm="http://www.corel.com/coreldraw/odm/2003">
 <defs>
  <style type="text/css">
   <![CDATA[
    .fil4 {fill:#ECDCBD;fill-rule:nonzero}
    .fil1 {fill:#EBDECE;fill-rule:nonzero}
    .fil10 {fill:#86531E;fill-rule:nonzero}
    .fil6 {fill:url(#id0);fill-rule:nonzero}
    .fil7 {fill:url(#id1);fill-rule:nonzero}
    .fil5 {fill:url(#id2);fill-rule:nonzero}
    .fil8 {fill:url(#id3);fill-rule:nonzero}
    .fil9 {fill:url(#id4);fill-rule:nonzero}
    .fil2 {fill:url(#id5);fill-rule:nonzero}
    .fil0 {fill:url(#id6);fill-rule:nonzero}
    .fil3 {fill:url(#id7);fill-rule:nonzero}
   ]]>
  </style>
  <linearGradient id="id0" gradientUnits="userSpaceOnUse" x1="7381.68" y1="13614.86" x2="7641.23" y2="8683.72">
   <stop offset="0" style="stop-opacity:1; stop-color:#EFB469"/>
   <stop offset="0.470588" style="stop-opacity:1; stop-color:#C69853"/>
   <stop offset="1" style="stop-opacity:1; stop-color:#DACAB2"/>
  </linearGradient>
  <linearGradient id="id1" gradientUnits="userSpaceOnUse" x1="2673.84" y1="7515.78" x2="7245.19" y2="15042.3">
   <stop offset="0" style="stop-opacity:1; stop-color:#351709"/>
   <stop offset="0.25098" style="stop-opacity:1; stop-color:#4F2B0E"/>
   <stop offset="0.388235" style="stop-opacity:1; stop-color:#6E4315"/>
   <stop offset="0.54902" style="stop-opacity:1; stop-color:#8D5B1D"/>
   <stop offset="0.709804" style="stop-opacity:1; stop-color:#A46C23"/>
   <stop offset="0.870588" style="stop-opacity:1; stop-color:#B17626"/>
   <stop offset="1" style="stop-opacity:1; stop-color:#B67A27"/>
  </linearGradient>
  <linearGradient id="id2" gradientUnits="userSpaceOnUse" x1="3099.37" y1="12706.48" x2="6603.07" y2="14782.75">
   <stop offset="0" style="stop-opacity:1; stop-color:#88541F"/>
   <stop offset="0.478431" style="stop-opacity:1; stop-color:#E3A861"/>
   <stop offset="0.521569" style="stop-opacity:1; stop-color:#DDA25B"/>
   <stop offset="0.690196" style="stop-opacity:1; stop-color:#C68E46"/>
   <stop offset="0.85098" style="stop-opacity:1; stop-color:#B98139"/>
   <stop offset="1" style="stop-opacity:1; stop-color:#B47D35"/>
  </linearGradient>
  <linearGradient id="id3" gradientUnits="userSpaceOnUse" xlink:href="#id1" x1="4526.81" y1="9578.02" x2="10755.66" y2="11507.84">
  </linearGradient>
  <linearGradient id="id4" gradientUnits="userSpaceOnUse" xlink:href="#id1" x1="3462.55" y1="7161.67" x2="7886.91" y2="14515.49">
  </linearGradient>
  <radialGradient id="id5" gradientUnits="userSpaceOnUse" gradientTransform="matrix(1.56733 -0 -0 1.53892 -2640 -6422)" cx="4653.44" cy="11915.8" r="444.72" fx="4653.44" fy="11915.8">
   <stop offset="0" style="stop-opacity:1; stop-color:#8D5B1D"/>
   <stop offset="0.341176" style="stop-opacity:1; stop-color:#C48B44"/>
   <stop offset="0.658824" style="stop-opacity:1; stop-color:#DAAD6C"/>
   <stop offset="0.721569" style="stop-opacity:1; stop-color:#DBB071"/>
   <stop offset="0.8" style="stop-opacity:1; stop-color:#DDB781"/>
   <stop offset="0.878431" style="stop-opacity:1; stop-color:#E2C49B"/>
   <stop offset="0.968627" style="stop-opacity:1; stop-color:#E8D6BF"/>
   <stop offset="1" style="stop-opacity:1; stop-color:#EADDCD"/>
  </radialGradient>
  <radialGradient id="id6" gradientUnits="userSpaceOnUse" gradientTransform="matrix(1.16278 -0 -0 1.14173 -664 -1811)" cx="4081.22" cy="12780.44" r="764.65" fx="4081.22" fy="12780.44">
   <stop offset="0" style="stop-opacity:1; stop-color:#E2C59D"/>
   <stop offset="0.4" style="stop-opacity:1; stop-color:#C48B44"/>
   <stop offset="0.729412" style="stop-opacity:1; stop-color:#DAAD6C"/>
   <stop offset="0.780392" style="stop-opacity:1; stop-color:#DBB071"/>
   <stop offset="0.839216" style="stop-opacity:1; stop-color:#DDB781"/>
   <stop offset="0.901961" style="stop-opacity:1; stop-color:#E2C49B"/>
   <stop offset="0.980392" style="stop-opacity:1; stop-color:#E8D6BF"/>
   <stop offset="1" style="stop-opacity:1; stop-color:#EADDCD"/>
  </radialGradient>
  <radialGradient id="id7" gradientUnits="userSpaceOnUse" gradientTransform="matrix(1.77241 -0 -0 1.74032 -3718 -9141)" cx="4813.53" cy="12347.61" r="363.89" fx="4813.53" fy="12347.61">
   <stop offset="0" style="stop-opacity:1; stop-color:#9A662C"/>
   <stop offset="0.341176" style="stop-opacity:1; stop-color:#C48B44"/>
   <stop offset="0.658824" style="stop-opacity:1; stop-color:#DAAD6C"/>
   <stop offset="0.729412" style="stop-opacity:1; stop-color:#DBB071"/>
   <stop offset="0.811765" style="stop-opacity:1; stop-color:#DEB981"/>
   <stop offset="0.909804" style="stop-opacity:1; stop-color:#E4C89B"/>
   <stop offset="1" style="stop-opacity:1; stop-color:#EBDBBD"/>
  </radialGradient>
 </defs>
 <g id="Слой_x0020_1">
  <metadata id="CorelCorpID_0Corel-Layer"/>
  <g id="_2197475845648">
   <polygon id="Vector" class="fil0" points="5805,6855.03 5833.59,7486.7 5683.41,7858.56 4650.01,8293.65 3713.18,8875.58 3143.46,9585.97 2821.33,10605.29 2909.27,11584.55 3244.79,12402.93 3954.83,13124.4 4822.26,13775.39 6526.96,14355.6 6105.35,14049.26 5032.32,13600.15 3990,12739.68 3489.38,11892.36 3244.79,11417.79 3310.9,10605.29 4063.61,9167.26 4777.58,8722.27 5728.09,8293.65 6231.7,7841 6344.6,7422.35 "/>
   <polygon id="Vector_2" class="fil1" points="4777.53,13474.93 4360.98,13177.37 3591.01,12269.53 3244.74,10983.59 3660.7,9559.92 4422.63,8938.46 5760.86,8371.78 6105.31,8062.5 6105.31,7298.02 6503.41,7862.68 6511.16,8099.67 6636.62,8541.73 6681.3,9238.67 6525.73,9926.84 6083.58,10622.26 5428.03,11194.58 5046.6,11529.57 4397.03,12402.93 4378.25,12656.01 4461.38,13071.18 "/>
   <polygon id="Vector_3" class="fil2" points="4313.31,12701.03 4038.26,11951.46 3928.64,10931.5 4273.38,10307.44 4990.63,9685.09 5932.22,9399.3 6346.12,8955.43 6402.13,8669.3 6543.34,8338.68 6716.18,9057.25 6653.59,9827.32 6246.56,10545.31 5579.73,11090.95 5081.47,11574.3 4596.11,12050.04 "/>
   <polygon id="Vector_4" class="fil3" points="4672.37,12535.16 4638.09,12739.63 5050.18,12811.63 5972.73,12739.63 6879.45,12336.47 7327.04,11789.95 7562.42,10984.47 7507.58,10282.86 7268.04,9635.41 7099.37,9242.15 6981.37,9380.86 6618.72,9963.08 6475.11,10074.86 5264.75,11609.12 4842.22,12125.82 "/>
   <path id="Vector_5" class="fil4" d="M4726.62 13288.26c0,0 -222.91,-310.41 -164.8,-580.16 58.12,-269.76 325.67,-624.7 325.67,-624.7l1053.66 -960.52 606.11 -689.59 321.79 -443.28c0,0 267.6,-426.85 158.81,-837.37 -108.73,-410.46 -391.53,-610.91 -391.53,-610.91l44.68 697.24 -62.53 394.08 -150.48 476.34 -384.72 513.17 -1036.93 907.3 -338.51 320.08 -246.76 406.39 -100.39 483.65 100.39 331.5 265.54 216.78z"/>
   <polygon id="Vector_6" class="fil5" points="4585.61,13597.2 3713.13,12858.42 3520.92,12739.63 3572.17,12992.17 4113,13734.43 4822.21,14172.71 6051.36,14460.61 6840.7,14460.61 6618.72,14325.44 6324.3,14246.13 5961.36,14184.43 5094.27,13876.03 "/>
   <polygon id="Vector_7" class="fil6" points="6166.42,13522.9 6740.01,13734.43 7649.13,13417.84 8268.63,12811.63 8759.39,11938.27 8931.64,10849.59 8759.39,10145.04 8283.54,8960.09 7549.03,8121.01 7206.93,7929.97 6998.97,7996.38 7288,8588.52 7790.09,9312.39 7975.43,9747.72 8253.43,10266.48 8321.36,11016.05 8283.54,11637.22 8057.68,12155.93 7729.03,12657.43 7353.24,13020.81 6863.07,13330.98 "/>
   <path id="Vector_8" class="fil7" d="M7575.51 14782.75c-607.24,-393.5 -1059.59,-284.67 -1719.6,-146.55 -627.55,104.71 -1028.01,-2.36 -1460.06,-469.91 -334.64,94.21 -690.71,107.65 -1042.33,83.67 133.51,-212.13 211.84,-436.81 202.91,-688.12 -1.18,-56.16 -6.87,-112.36 -12.8,-168.23 -5.4,-49.78 -16.38,-56.2 -68.27,-50.32 -451.13,70.19 -876.61,-59.1 -1308.7,-179.36 3.87,-308.99 54.83,-635.78 247.04,-889.75 75.98,-105 188.63,-163.27 294.38,-234.34 -671.64,-7.89 -1034.58,-737.6 -1685.03,-809.6 280.4,-358.97 627.84,-712.4 1064.94,-884.16 237.19,-98.58 492.57,-45.61 741.67,-42.42 -646.33,-616.46 -484.82,-910.79 -731.52,-1660.06 191.57,-17.56 381.68,-12.61 573.3,-24.33 310.81,-13.73 611.46,48.9 909.71,128.16 -162.69,-237.29 -269.95,-492.43 -298.25,-778.56 -23.84,-213.55 -73.91,-423.07 -102.8,-635.2 370.39,20.5 740.45,88.68 1076.27,248.13 241.35,116.43 453.82,349.94 581.93,581.63 21.48,-220.31 46.79,-428.32 120.41,-636.91 30.4,-87.79 73.61,-169.4 127.81,-245.47 233.31,-343.52 522.98,-664.19 654.37,-1062.69 77.15,246.07 183.53,481 356.08,677.92 51.25,59.1 109.67,113.54 169.55,164.74 258.03,220.32 483.89,466.97 648.1,763.6 105.79,189.03 134.09,351.12 312.57,497.38 337.63,295.5 654.66,617.93 883.51,1003.88 478.55,753.39 677.87,1705.43 349.21,2553.04 -313.75,863.7 -1098.34,1594.83 -2050.37,1685.52 -57.48,1.18 -119.77,6.77 -175.19,-9.61 -96.23,-48.02 -194.28,-80.78 -286.04,-137.82 1328.02,109.71 2346.81,-1314 2280.69,-2520.87 -66.46,-989.51 -697.58,-1847.33 -1417.77,-2501.26 -105.8,-93.33 -193.98,-201.58 -300.07,-295.21 82.25,242.83 196.68,475.46 213.35,733.49 82.84,779.73 -276.81,1599.24 -878.71,2107.46 -309.04,251.02 -644.56,471.33 -927.9,751.63 -267.01,277.95 -521.75,631.67 -496.45,1030.76 84.95,525.77 602.19,842.31 1056.31,1050.96 372.16,160.33 750.31,303.39 1138.9,419.54 394.18,124.92 669.53,300.8 966.01,582.81 -2.35,2.06 -4.75,4.12 -7.16,6.43zm-3021.73 -1584c-84.36,-78.72 -162.15,-162.39 -243.17,-244 -118.89,-143.07 -206.19,-306.64 -241.06,-487.47 -57.24,-380.65 -188.34,-747.81 -207.42,-1134.05 -57.48,-673.5 342.1,-1258.08 914.52,-1597.48 333.71,-211.83 737.5,-286.43 1074.5,-493.55 274.41,-160.92 413.6,-370.98 559.27,-643.68 -3.53,31 -8.63,51.21 -8.04,71.12 -0.88,108.24 -29.48,213.55 -63.17,315.37 -183.83,343.76 -560.16,512.28 -915.06,638.67 -606.4,205.11 -1220.8,628.19 -1381.72,1269.51 -68.52,347 41.39,691.7 126.34,1025.8 44.39,165.29 63.17,417.83 122.76,580.76 19.67,-80.73 246.75,-483.89 241.65,-562.32 -47.38,-185.19 -102.5,-448.52 -137.62,-646.57 -44.14,-278.58 -98.04,-587.52 55.96,-843.84 5.4,7.01 5.98,12.02 4.22,15.79 -118.01,272.99 -44.73,569.97 14.56,847.91 12.27,146.6 130.22,423.07 154.06,545.35 94.17,-91.28 166.31,-160.29 272.06,-269.17 4.17,-4.36 -1.47,-68.17 -19.08,-107.65 -94.42,-393.5 -289.03,-1014.67 42.62,-1361.67l-0.88 -0.88c-86.72,158.56 -143.66,324.48 -128.41,506.15 12.51,292.02 126.3,633.43 196.34,904.36 31.58,-16.67 451.12,-387.66 477.36,-405.22 0.3,-35.06 -29.82,-174.94 -34.28,-196.03 -12.51,-60.23 -33.65,-221.74 -41.4,-312.77 -15.5,-277.06 -4.75,-582.77 154.06,-822.11 -146.6,406.98 -78.97,841.73 2.99,1254.84 2.35,13.2 284.27,-192.5 354.26,-266.81 10.74,-11.13 355.78,-414.58 363.23,-468.73 23.84,-173.18 20.26,-363.68 34.29,-565.55 14.91,-216.2 15.5,-442.06 24.13,-610.33 2.99,-43.26 -2.7,-122.86 19.08,-163.82 3.28,-5.83 6.52,-7.89 5.93,-15.49 25.06,285.54 1.52,987.44 9.86,1235.27 27.42,-30.75 46.15,-65.57 61.06,-103 6.87,-16.97 108.49,-237.28 121.29,-285.59 47.97,-179.61 76.27,-418.07 80.44,-465.74 -3.88,-204.82 -10.1,-473.4 -37.82,-674.44 -18.19,-123.45 -43.5,-246.31 -72.09,-368.04 -62.59,-254.25 -194.32,-485.41 -297.12,-725.05 -31.3,-68.42 -60.77,-138.06 -98,-203.29 -81.66,-131.99 -156.16,-280.6 -246.75,-400.86 106.97,333.27 263.13,763.06 -134.97,970.48 -248.52,135.17 -523.87,209.52 -785.77,314.83 -729.76,271.22 -1392.76,762.47 -1737.22,1463.48 -365,729.12 -360.83,1617.98 1.23,2347.35 129.87,293.78 361.42,524.01 576.59,759.28 748.78,824.47 1480.31,1126.1 2538.13,1426.31 -9.22,-12.02 -884.1,-356.37 -1000,-421.89 -136.79,-77.25 -275.64,-150.67 -407.96,-234.39 -469.57,-293.74 -896.57,-658.01 -1241.07,-1088.68 -829.86,-1082.25 -794.4,-2495.12 221.1,-3447.75 427.64,-391.19 972.59,-608.85 1512.24,-807.25 280.99,-102.11 550.99,-210.6 710.09,-476.87 63.47,118.79 105.79,241.06 47.67,369.81 -205.89,489.77 -998.82,582.52 -1427.87,828.88 -503.02,270.34 -915.7,698.36 -1117.72,1229.73 -252.98,613.22 -195.79,1380.35 79.56,1977.83 182.35,342.29 430.28,643.09 705.57,917.21 76.32,76.07 252.69,248.72 289.33,250.19 -24.38,-23.99 -126.35,-128.75 -142.68,-144.25zm1033.35 -6304.24c31.88,-28.05 45.62,-66.41 60.18,-104.42 -19.66,35.12 -52.72,62.59 -59.29,105.01 -21.44,10.55 -32.77,27.22 -29.77,51.5 -11.92,11.13 -26.83,20.5 -35.46,33.65 -46.5,72.88 -91.48,146.3 -136.5,220.02 -110.26,188.14 -207.37,388.83 -238.36,605.37 39.63,-171.46 110.25,-329.73 196.96,-481.29 63.76,-111.77 131.11,-221.19 196.04,-332.38 8.05,-14.08 10.45,-31.29 15.5,-46.84 22.95,-9.37 28.94,-28.64 30.7,-50.62zm-2867.13 2189.37c-9.22,-9.66 -18.45,-19.27 -27.71,-28.93 -2.36,2.94 -4.76,6.13 -7.17,9.07 11.97,6.42 23.84,12.55 35.81,19.03 22.61,36.83 66.11,55.57 98.58,83.92 98.04,72.29 201.48,140.17 314.09,187.55 0.3,-8.78 -3.28,-11.09 -7.45,-13.15 -144.84,-71.95 -268.78,-176.12 -406.15,-257.49zm1483.35 -1316c6.23,16.97 16.97,21.97 35.46,5.54 -10.16,-3.19 -19.96,-6.43 -30.12,-9.61 -7.75,-8.49 -13.68,-19.33 -23.25,-25.16 -129.92,-80.19 -272.35,-138.12 -416.84,-186.72 2.65,8.83 8.05,11.72 13.39,14.07 130.22,57.34 263.72,107.66 382.9,186.67 11.04,7.6 25.36,10.55 38.46,15.21zm-401.69 863.4c-1.18,15.21 6.57,23.4 25.36,22.81 -8.69,-7.31 -17.61,-14.61 -26.24,-21.92 -84.61,-144.54 -173.14,-287.61 -222.62,-448.23 -56.31,-171.76 -92.65,-349.65 -158.23,-518.47 -2.94,0.88 -5.93,2.06 -8.92,2.94 95.64,330.03 146.01,702.19 390.65,962.87zm-2314.09 2311.94c70.92,-38.01 127.56,-97.7 195.2,-141.01 87.6,-59.39 174.9,-120.26 267.55,-171.17 156.16,-85.39 328.11,-124.92 504.19,-149.49 107.85,-17.85 215.12,-4.37 318.85,26.34 -39.63,-44.49 -159.45,-52.97 -217.82,-52.97 -408.26,6.18 -792.34,198.98 -1067.04,489.48 -23.25,11.43 -23.25,11.43 -40.27,39.53 16.73,-17.27 28.01,-28.99 39.34,-40.71zm6241.41 1714.26c-353.97,412.23 -825.11,754.82 -1384.38,815.98 83.72,6.72 165.39,-9.37 244.64,-30.41 308.41,-77.83 580.17,-210.36 824.76,-417.82 136.5,-119.09 475.31,-441.22 528.33,-622.3 -25.31,20.5 -171.03,205.65 -213.35,254.55zm-1024.72 1765.41c0.59,-3.23 1.47,-6.42 2.06,-9.66 -302.42,-108.24 -622.74,-162.1 -934.72,-238.46 -462.75,-106.77 -912.7,-283.49 -1301.3,-555.3 -246.7,-176.12 -438.32,-373.63 -701.11,-597.14 -62.88,-56.5 -124.58,-126.98 -194.86,-173.82 -15.2,23.99 47.08,104.47 61.65,129.34 92.06,172.59 217.82,321.55 360.54,455.54 705.92,693.12 1733.04,976.02 2707.74,989.5zm-3921.09 -3372.55c-72.98,-74.01 -430.58,-45.96 -543.78,-38.36 -265.83,31.34 -535.19,43.31 -789.93,131.4 189.51,-28.99 379.03,-67.88 573.59,-70.24 101.62,-4.07 202.9,-14.61 304.53,-20.45 156.16,-7.94 297.07,-22.27 455.59,-2.35zm527.73 1612.68c-42.03,-17.26 -76.9,0.88 -110.55,15.79 -229.14,101.24 -462.45,191.63 -697.87,277.07 -64.06,23.15 -120.66,58.51 -171.03,104.76 11.04,-0.59 20.55,-3.83 29.48,-8.49 64.69,-33.94 132.33,-61.16 203.25,-79.25 263.72,-66.46 514.29,-169.7 746.72,-309.88zm-292.31 538.04c0.59,3.23 1.47,6.77 2.06,9.95 66.75,-7.3 129.92,-35.65 196.09,-47.96 89.41,-19.92 169.55,-61.16 252.09,-97.75 8.05,-3.48 13.98,-12.56 20.85,-18.98 -101.63,10.49 -192.51,54.1 -291.73,74.01 -53.61,12.55 -109.32,18.14 -164.16,26.34 -117.12,17.26 -234.54,17.85 -351.61,0.58 -56.65,-8.19 -113.25,-14.37 -181.47,-4.12 189.81,31.34 369.47,56.21 552.46,50.62 -11.63,2.65 -22.96,5 -34.58,7.31zm21.73 -1055.33c0,-2.3 -0.3,-4.66 -0.3,-7.01 -85.49,2.65 -164.45,40.66 -234.19,86.32 -291.73,186.96 -434.16,506.45 -547.41,815.98 11.04,-5.54 16.73,-12.85 20.6,-21.04 38.11,-77.25 74.16,-155.67 114.72,-231.74 135.57,-282.61 322.68,-554.42 646.58,-642.51zm-359.02 -579.58c-166.9,-86.32 -352.84,-122.9 -529.85,-183.13 -137.62,-42.18 -272.35,-93.93 -415.96,-113.55 309.58,118.79 625.44,215.32 945.81,296.68zm1154.05 1936c-4.51,-1.18 -8.97,-2.35 -13.43,-3.53 -31.88,53.26 -43.8,115.9 -69.41,172.05 -51.84,128.75 -113.24,251.91 -161.5,382.12 8.04,-5 11.62,-5.88 13.09,-8.19 104.91,-167.39 222.92,-338.22 231.25,-542.45zm-972.92 -3575.31c1.22,-0.89 2.11,-2.06 3.28,-2.95 -246.11,-252.78 -331.94,-596.54 -462.45,-911.37 -3,1.47 -5.94,2.89 -8.93,4.07 117.07,319.24 196.33,677.33 468.1,910.25zm-836.39 1638.73c-1.52,2.6 -2.99,5.54 -4.8,8.19 264.6,157.97 605.23,318.89 913.92,191.33 -316.44,94.21 -637.11,-44.73 -909.12,-199.52zm1744.62 2483.69c134.98,-34.53 262.55,-94.51 394.82,-139.54 14.32,-5.59 25.65,-19.32 43.8,-33.64 -75.97,-3.83 -389.72,121.39 -438.62,173.18zm349.26 -5846c-25.95,-59.98 -434.45,-415.76 -487.81,-428.66 160.92,141.64 322.72,283.83 487.81,428.66zm1518.76 -423.07c41.45,-105.94 101.04,-522 87.6,-587.23 -28.3,189.61 -57.48,385.35 -87.6,587.23zm-2495.27 1034.53c118.94,22.26 226.79,73.71 335.23,123.79 -70.92,-63.22 -250.87,-139.59 -335.23,-123.79zm-364.71 3775.47c50.37,-10.84 261.32,-150.97 275.94,-180.54 -91.77,60.28 -183.83,120.56 -275.94,180.54z"/>
   <path id="Vector_9" class="fil8" d="M8217.97 12720.65c217.22,-226.74 374.56,-582.52 492.27,-902.89 356.37,-1074.65 -66.16,-2259.01 -778.6,-3099.86 -225.57,-253.72 -486,-473.39 -725,-714.5 -31.3,-34.53 -30.71,-39.49 0.29,-73.43 381.14,-414.29 959.49,-611.8 1518.22,-606.25 -77.2,536.9 -51.59,953.84 -376.38,1426.65 196.38,-65.28 384.43,-122.62 590.03,-139.88 82.2,-7.01 165.97,-7.6 247.88,-1.18 205.01,16.73 409.73,19.62 615.33,17.27 -0.88,8.19 0,13.48 -2.11,16.97 -52.43,90.44 -67.63,190.49 -82.2,291.72 -65.87,528.38 -302.76,1034.53 -732.46,1369.86 902.01,-114.42 1286.39,291.38 1851.05,902.3 -315.26,95.4 -581.34,292.86 -844.47,481.29 -224.09,151.85 -438.62,326.8 -723.48,354.31 381.38,229.98 516.4,666.24 524.45,1083.72 -107.9,28.11 -214.82,50.32 -315.27,99.17 -127.52,57.39 -261.61,87.21 -399.87,103.88 -167.79,21.09 -337.34,24.58 -503.61,-8.78 -63.76,-7.6 -100.4,-44.48 -153.17,-78.13 5.1,148.07 44.44,290.55 60.82,437.74 24.42,189.86 56.3,377.41 118.59,559.37 -861.15,62.63 -1419.88,-239.29 -2151.41,-617.93 245.23,55.62 585.27,-43.55 860.57,-166.17 162.09,-76.36 606.7,-415.76 683.85,-483.35 77.2,-66.11 166.56,-172.89 224.68,-251.9zm1567.66 -1109.18c-220.81,107.71 -454.12,215.95 -708.57,179.66 -62.88,-7.9 -124.58,-23.98 -187.75,-29.23 -0.29,3.77 -0.88,7.31 -1.18,11.08 102.51,17.56 206.19,40.96 310.17,40.37 209.77,-11.97 424.05,-71.95 586.44,-203 11.63,-5.6 23.25,-11.14 34.58,-17.02 -2.11,-2.9 -4.22,-6.13 -6.28,-9.03 -9.22,9.32 -18.49,18.39 -27.41,27.17zm-368.88 -2401.49c-78.96,225.61 -187.16,439.16 -337.04,627.89 3.28,2.35 6.57,4.41 9.86,6.72 134.68,-152.73 235.71,-329.74 302.71,-520.48 21.48,-59.98 79.89,-205.7 67.93,-223.85 -2.65,14.08 -34.83,86.32 -43.46,109.72zm-1111.78 -819.22c124.88,-215.02 140.67,-469.27 209.19,-703.91 -9.52,5.25 -14.33,11.68 -16.39,18.98 -22.65,76.37 -47.67,152.14 -66.75,229.39 -35.16,142.78 -77.15,283.19 -126.63,421.9 -3.58,10.25 -19.67,62.04 -20.55,81.07 6.86,-15.84 13.97,-31.63 21.13,-47.43zm646.04 4430.53c211.24,79.02 435.33,125.51 634.36,237.88 -85.83,-83.09 -205.6,-123.45 -314.33,-169.7 -119.82,-45.91 -242.29,-85.15 -361.77,-131.94 -101.62,-39.77 -200.84,-86.32 -300.95,-129.92 -13.09,-5.84 -26.23,-17.26 -45.61,-4.36 121.88,78.37 259.55,133.4 389.77,198.93 -72.98,-16.97 -140.61,-57.34 -211.83,-82.79 -17.31,-7.02 -34.58,-25.46 -59.93,0.59 133.5,55.27 393.94,207.12 500.61,181.66 -84.02,-28.64 -160.63,-46.2 -230.32,-100.35zm43.21 -1769.24c1.18,3.24 2.35,6.48 3.24,9.67 304.28,-78.97 621.02,-13.15 928.78,8.19 175.24,15.49 345.09,70.23 518.81,89.85 -296.78,-90.69 -605.47,-138.41 -914.81,-163.57 -177.59,-19.32 -370.64,-23.69 -536.02,55.86zm-304.23 -1637.25c2.35,1.47 4.46,2.64 6.81,4.12 139.2,-192.26 357.6,-305.76 548.88,-441.22 110.55,-74.9 237.53,-124.38 348.96,-196.33 -219.33,89.21 -424.05,209.47 -617.73,343.22 -114.13,74.31 -229.74,164.11 -286.92,290.21zm1642.7 1516.75c2.7,-2.95 5.1,-5.89 7.75,-8.49 -288.74,-222.67 -614.7,-448.82 -994.9,-462.31 -116.54,3.24 -247.93,25.75 -329.59,113.84 439.5,-258.67 958.01,110.6 1316.74,356.96zm-2005.94 2033.4c-1.81,4.12 -3.58,8.19 -5.39,12.31 313.79,205.65 699.05,233.46 1065.28,169.99 -410.03,12.85 -684.15,-1.47 -1059.89,-182.3zm-1087.65 795.53c-2.35,3.82 -4.46,7.6 -6.81,11.43 286.03,241.65 665.06,315.12 1036.34,296.09 -408.5,-36.3 -678.8,-83.09 -1029.53,-307.52zm1173.73 237.58c2.99,-1.77 5.98,-3.24 8.68,-4.96 -99.52,-241.4 -177.3,-493.6 -288.15,-729.7 -14.02,2.35 -22.66,3.82 -30.99,5.24 16.08,36 39.62,70.53 45.9,107.66 13.1,76.71 40.22,148.07 69.99,218.6 52.14,122.56 109.08,243.12 164.8,364.26 6.86,14.03 19.66,25.75 29.77,38.9zm385.01 -1872.24c-0.59,4.12 -1.47,8.24 -2.11,12.31 61.11,19.62 125.75,27.81 188.34,43.01 364.75,88.63 512.23,462.26 655.84,763.65 3.29,-1.47 6.57,-2.65 10.15,-4.12 -162.73,-419.24 -343.27,-781.74 -852.22,-814.85zm1363.24 -836.19c-251.81,9.66 -930.56,220.91 -1031.89,291.73 347.15,-80.49 682.68,-214.48 1031.89,-291.73zm-1410.33 1046.89c13.39,35.07 13.39,35.36 105.8,87.45 41.39,23.1 84.31,43.6 125.11,67.88 118.3,73.13 232.14,153.32 343.92,235.81 36.63,26.93 63.17,66.71 107.26,84.27 -196.38,-197.76 -430.87,-342.3 -682.09,-475.41zm-1122.46 1186.38c2.35,44.78 151.65,103.58 205.6,138.41 105.5,64.93 206.78,136.34 306,209.77 32.81,23.98 56.35,59.39 95.68,74.89 -174.94,-175.83 -383.83,-304.28 -607.28,-423.07zm-125.17 -5629.22c205.6,-164.99 413.9,-255.43 654.96,-355.78 -234.83,50.91 -543.23,227.92 -654.96,355.78zm1383.2 909.66c-196.63,-22.56 -366.47,89.8 -502.09,217.08 150.48,-110.01 306.35,-206.59 502.09,-217.08zm-126.93 4386.93c-62,-36.59 -120.07,-38.94 -183.24,-62.93 -31,-11.43 -59.59,-29.57 -91.18,-38.89 -28.59,-8.49 -51.54,-36 -88.23,-27.81 40.27,44.19 276.23,129.63 362.65,129.63zm-681.16 -5240.14c-2.69,-2.89 -5.68,-5.54 -8.33,-8.48 -42.92,25.75 -81.96,67.88 -94.47,109.42 39.34,-38.6 70.92,-69.89 102.8,-100.94z"/>
   <path id="Vector_10" class="fil9" d="M7283.79 9827.62c-163.87,-423.07 -334.94,-765.71 -527.1,-1160.68 2.65,-2.35 5.34,-4.95 7.75,-7.31 361.12,432.74 618.57,947.97 780.66,1483.4 234.25,751.34 72.44,1556.19 -485.7,2129.39 -574.77,560.55 -1470.21,731.72 -2248.22,578.69 -76.57,-18.98 -154.65,-40.36 -221.4,-83.37 -70.92,-36.3 10.15,-268.29 30.12,-329.45 210.06,-562.31 738.97,-900.24 1193.68,-1259.84 382.61,-286.73 644.81,-684.64 926.09,-1060.87 78.96,-104.47 151.4,-212.42 214.57,-326.85 42.63,-70.77 49.15,-151.84 76.57,-227.03 -9.81,397.62 -318.22,695.18 -543.53,997.4 -81.62,118.79 -306,322.14 -388.55,428.91 383.5,-208.59 799.5,-382.36 1042.33,-756 39.93,-57.92 66.46,-120.85 65.28,-192.5 0,-6.18 4.76,-23.99 8.63,-30.75 29.19,170.58 -77.49,343.81 -183.28,470.79 -303.01,340.82 -761.29,472.51 -1128.11,728.19 -40.51,30.45 -79.85,62.04 -119.48,93.38 -34.28,27.17 -88.53,87.74 -133.21,95.93 304.83,-67.88 608.47,-135.75 914.17,-201.28 308.41,-68.76 595.37,-207.47 779.84,-467.26 -113.54,320.07 -449.95,470.15 -762.23,545.1 -357.3,88.03 -727.35,142.18 -1061.99,301.04 -64.06,30.7 -125.76,66.41 -184.17,106.77 -31,21.39 -265.19,258.38 -278,276.53 348.92,-148.07 641.23,-196.63 1015.8,-267.75 318.55,-35.65 651.97,-48.55 946.39,-187.5 82.2,-36.88 221.69,-169.11 230.03,-172.64 -9.86,34.23 -29.53,62.63 -54.83,87.5 -216.64,224.38 -536.67,283.19 -835.8,324.44 -536.96,74.35 -1173.18,140.76 -1550.98,563.54 272.64,-17.86 591.79,-92.75 812.89,-113.84 310.75,-36.88 626.31,-48.85 930.55,-126.69 86.12,-21.92 257.78,-119.96 272.35,-117.9 -383.79,322.43 -949.63,265.97 -1419.54,350.82 -188.04,29.24 -411.5,43.85 -572.42,147.73 -77.2,45.37 -123.06,154.79 -161.8,222.67 110.55,20.75 600.72,49.44 725.29,59.69 336.7,8.19 681.74,-54.74 990.73,-188.73 509.84,-228.8 906.77,-717.99 1057.54,-1239.64 84.01,-319.78 67.92,-650.11 8.04,-972.24 -34.87,-140.18 -103.39,-302.86 -168.96,-501.79z"/>
   <path id="Vector_11" class="fil10" d="M13814.57 10678.76c271.67,37.72 500.32,140.13 685.91,306.89 185.3,166.8 278.34,374.51 278.34,623.47 0,310.17 -137.43,553.29 -411.89,729.12 -274.32,175.83 -639.37,263.62 -1095.01,263.62l-1223.21 0c82.55,-66.7 145.42,-150.08 188.63,-250.13 43.21,-100.06 68.57,-186.97 75.68,-260.98 7.46,-74.01 11.04,-169.4 11.04,-286.77 0,-227.33 0.93,-586.89 2.7,-1079.31 1.76,-492.42 2.69,-885.33 2.69,-1179.36 -5.39,-236.11 -70.62,-415.77 -195.49,-538.38 -56.9,-55.86 -123.06,-94.76 -198.45,-116.44l1347.15 0c231.55,0 432.93,25.75 604.6,76.96 171.61,51.5 305.65,122.56 402.22,213.59 96.53,90.98 167.25,190.74 212.18,298.99 45.02,108.29 67.73,227.38 67.73,356.96 -1.82,216.48 -70.73,395.26 -206.63,536.9 -135.86,142.19 -318.41,243.71 -548.19,304.87zm-490.17 -70.23c104.57,-7.31 200.5,-25.75 287.81,-55.57 87.3,-29.87 167.49,-74.06 241.06,-132.57 73.32,-58.51 130.51,-137.48 170.82,-236.7 40.22,-99.17 60.48,-214.43 60.48,-346.12 0,-256.02 -79.95,-452.01 -239.64,-588.35 -159.7,-136.06 -356.37,-204.23 -589.39,-204.23l-462.75 0 0 1568.79 413.31 0c53.02,0.29 92.36,-1.77 118.3,-5.25zm-107.6 159.45l-424.3 0 0 1036 0 643.68 435.33 0c90,0 178.48,-8.19 265.78,-24.28 87.3,-16.38 175.83,-44.78 265.83,-85.14 89.95,-40.66 168.03,-91.57 234.2,-152.73 66.11,-61.11 120.36,-141.6 162.68,-240.77 42.28,-99.17 63.47,-210.95 63.47,-335.28 0,-140.76 -28.55,-266.56 -85.54,-377.46 -56.84,-110.89 -133.5,-199.22 -230.02,-265.04 -96.53,-65.87 -202.91,-115.31 -319.44,-148.95 -116.78,-33.06 -239.54,-50.03 -367.99,-50.03z"/>
   <path id="Vector_12" class="fil10" d="M15734.68 9886.42l0 2715.74 -462.75 0 0 -2088.14c0,-232.58 -64.35,-408.41 -192.71,-527.54 -58.75,-52.33 -122.22,-85.69 -190.1,-100.06l845.56 0zm-475.21 -447.93c-63.47,-62.29 -95.1,-137.48 -95.1,-225.86 0,-88.38 31.63,-164.11 95.1,-227.33 63.46,-63.17 140.96,-94.81 232.67,-94.81 91.77,0 169.6,31.64 232.68,94.81 63.61,63.22 95.15,138.95 95.15,227.33 0,88.38 -31.54,163.57 -95.15,225.86 -63.47,62.33 -140.91,93.33 -232.68,93.33 -91.71,0 -169.21,-31 -232.67,-93.33z"/>
   <path id="Vector_13" class="fil10" d="M16249.86 11244.31c0,-128.15 20.64,-259.25 62.04,-393.54 41.39,-134.29 102.75,-263.62 184.41,-388.25 81.76,-124.33 178.14,-235.81 289.37,-334.1 111.09,-98.34 242.54,-176.72 393.99,-235.23 151.31,-58.51 311.54,-87.79 480.51,-87.79 213.1,0 410.95,45.66 593.55,136.64 182.7,90.98 331.46,207.71 446.42,350.24 114.72,142.48 204.38,296.63 268.48,462.55 64.35,165.88 96.57,329.15 96.57,489.48 0,133.41 -19.62,267.4 -59.35,401.69 -39.58,134.29 -99.26,261.86 -179.06,382.71 -79.8,120.85 -174.9,228.21 -285.11,321.84 -110.3,93.92 -241.75,168.23 -393.94,223.26 -152.63,54.98 -314.97,82.49 -487.56,82.49 -209.43,0 -404.88,-42.42 -586.69,-127.27 -181.82,-84.85 -331.65,-194.86 -448.97,-330.03 -117.71,-135.17 -209.58,-286.14 -275.64,-453.19 -65.92,-166.51 -99.02,-333.86 -99.02,-501.5zm526.21 0c0,838.55 294.72,1257.79 884.5,1257.79 587.57,0 881.65,-419.24 881.65,-1257.79 0,-155.08 -14.52,-303.39 -44.14,-445.04 -29.43,-141.6 -76.17,-277.36 -140.52,-406.98 -64.39,-129.88 -156.26,-233.46 -275.64,-311.01 -119.52,-77.49 -259.94,-116.43 -421.74,-116.43 -128.75,0 -244.6,26.04 -348.28,78.42 -103.68,52.38 -188.29,120.85 -253.57,205.7 -65.28,84.8 -119.77,184.02 -163.91,297.52 -44.14,113.54 -74.75,228.21 -92.4,343.52 -17.27,115.25 -25.95,233.45 -25.95,354.3z"/>
   <path id="Vector_14" class="fil10" d="M20013.02 8890.79l0 3711.37 -462.75 0 0 -3064.8c-3.53,-201.87 -56.85,-375.05 -159.65,-519.3 -40.61,-57.63 -89.12,-100.05 -145.96,-126.98l768.36 0 0 -0.29z"/>
   <path id="Vector_15" class="fil10" d="M23084.87 12402.05c-64.35,169.4 -218.65,254.25 -462.75,254.25 -236.94,0 -392.17,-130.8 -465.74,-392.37 -79.01,120.85 -180.88,216.54 -305.75,286.73 -124.83,70.23 -295.6,105.35 -512.44,105.35 -268.23,0 -474.66,-59.99 -619.89,-179.95 -145.08,-119.97 -217.52,-264.51 -217.52,-434.16 0,-72 10.54,-138.99 31.68,-200.16 21.14,-61.16 53.32,-116.72 96.53,-166.46 43.11,-49.44 87.59,-93.33 133.4,-131.1 45.96,-37.71 104.62,-75.19 176.52,-112.31 71.51,-36.89 134.04,-67.29 187.36,-90.74 53.36,-23.39 121.34,-52.63 203.88,-87.74 82.54,-35.12 146.89,-63.52 192.7,-85.15 170.78,-79.3 319.1,-178.48 444.85,-297.56 125.75,-119.08 188.68,-245.18 188.68,-378.59 0,-100.93 -17.02,-189.02 -51.01,-263.62 -33.84,-74.89 -78.91,-131.93 -134.97,-171.76 -56.06,-39.77 -114.43,-68.47 -174.9,-86.56 -60.47,-18.15 -123.01,-26.93 -187.41,-26.93 -156.11,0 -302.71,31 -439.5,93.33 -136.79,62.29 -205.31,138.36 -205.31,228.51 0,39.78 12.46,72.24 37.28,97.41 24.77,25.16 52.68,44.19 83.92,56.79 31.44,12.56 59.34,34.19 84.11,64.94 24.77,30.7 37.23,70.18 37.23,119.08 0,176.71 -102.75,265.05 -308.45,265.05 -80.73,0 -153.66,-31.88 -218.9,-95.94 -65.28,-64.1 -97.74,-141.05 -97.74,-231.15 0,-153.32 51.25,-288.49 154.29,-405.81 102.8,-117.32 231.01,-204.23 384.38,-260.97 153.51,-56.8 316.49,-85.15 488.99,-85.15 323.36,0 570.31,98.59 741.08,296.09 170.78,197.51 256.27,458.49 256.27,783.22l0 1290.31c0,102.65 20.55,185.78 61.95,248.95 41.39,63.22 103.39,94.81 185.93,94.81 80.44,-0.59 157.68,-33.94 231.25,-100.64zm-953.26 -492.43l0 -968.41c-45.81,52.33 -101.62,102.65 -166.51,151.55 -65.28,48.56 -113.79,83.09 -146.01,102.7 -32.17,19.87 -98.34,56.46 -198.54,109.43 -100.05,53.21 -156.6,83.37 -169.45,90.68 -176.47,99.17 -297.71,193.98 -363.63,284.08 -66.07,90.14 -99.12,210.94 -99.12,362.5 0,133.45 44.38,239.93 133.5,319.24 89.02,79.26 217.13,119.08 384.38,119.08 176.37,0 324.44,-62.34 444.84,-186.67 120.46,-124.38 180.54,-252.49 180.54,-384.18z"/>
   <path id="Vector_16" class="fil10" d="M25082.28 9832.33l0 586.93c-106.68,-187.55 -281.09,-281.18 -523.62,-281.18 -146.89,0 -279.17,53.51 -396.59,160.92 -117.71,107.36 -204.37,232.28 -260.43,374.47 -56.06,142.52 -84.12,279.41 -84.12,411.1l0 1517.59 -468.34 0 0 -2120.61c0,-223.5 -54.24,-388.54 -162.44,-495.02 -53.36,-52.38 -107.61,-85.74 -162.34,-100.06l793.52 0 0 605.92c80.73,-221.79 208,-391.78 381.67,-509.98 173.48,-118.2 379.67,-177.3 618.57,-177.3 56.36,0 144.59,9.07 264.12,27.22z"/>
   <path id="Vector_17" class="fil10" d="M26151.04 9886.42l0 2715.74 -462.75 0 0 -2088.14c0,-232.58 -64.4,-408.41 -192.7,-527.54 -58.81,-52.33 -122.28,-85.69 -190.16,-100.06l845.61 0zm-475.21 -447.93c-63.46,-62.29 -95.15,-137.48 -95.15,-225.86 0,-88.38 31.69,-164.11 95.15,-227.33 63.42,-63.17 140.91,-94.81 232.68,-94.81 91.71,0 169.6,31.64 232.77,94.81 63.46,63.22 95,138.95 95,227.33 0,88.38 -31.54,163.57 -95,225.86 -63.57,62.33 -141.06,93.33 -232.77,93.33 -91.77,0 -169.26,-31 -232.68,-93.33z"/>
   <path id="Vector_18" class="fil10" d="M26638.56 11898.83c0,-95.68 24.37,-170.28 73.08,-224.43 48.5,-54.15 114.32,-81.02 196.82,-81.02 77.25,0 146.4,21.62 208.05,64.93 61.36,43.31 92.36,104.76 92.36,184.02 0,61.46 -12.81,111.49 -38.41,150.08 -25.7,38.95 -54.24,64.4 -85.49,76.96 -31.29,12.6 -59.59,32.22 -85.53,58.26 -25.7,26 -38.4,59.11 -38.4,98.59 0,66.7 70.57,128.45 212.02,185.2 141.6,56.74 286.68,85.14 435.38,85.14 82.55,0 160.38,-6.72 232.83,-20.21 72.39,-13.44 142.57,-35.7 210.6,-66.11 67.98,-30.7 122.12,-77.25 162.34,-139.29 40.61,-62.29 60.57,-136.6 60.57,-223.21 0,-147.73 -58.75,-273.58 -176.46,-377.41 -117.71,-103.59 -291.98,-205.11 -523.47,-304.28 -288.49,-120.85 -494.93,-250.78 -619.8,-389.43 -124.97,-139 -187.5,-311.88 -187.5,-519.35 0,-88.38 16.72,-169.4 49.44,-243.41 33.1,-74.02 85.93,-142.48 158.56,-205.7 72.44,-63.18 174.95,-112.66 307.18,-148.61 132.37,-36 288.49,-54.15 468.44,-54.15 91.76,0 202.07,12.6 330.52,37.77 128.35,25.16 207.37,37.71 236.84,37.71 119.28,0 206.49,-45.91 261.62,-138.06l0 971.06 -90.84 0c0,-220.02 -75.38,-399.97 -225.9,-539.51 -150.43,-139.88 -321.45,-209.82 -512.49,-209.82 -203.83,0 -355.83,40.12 -455.88,120.27 -100.15,80.19 -150.28,180.83 -150.28,301.63 0,129.92 43.6,231.74 130.81,305.75 87.35,74.01 230.07,146.9 428.51,219.14 323.36,124.38 563.84,261.61 721.77,411.1 157.92,149.79 236.84,332.64 236.84,549.17 0,220.02 -94.76,405.81 -283.68,557.36 -189.22,151.56 -446.27,227.33 -771.5,227.33 -150.37,0 -285.35,-19.32 -404.87,-58.22 -119.48,-38.64 -213.06,-86.61 -281.04,-143.36 -67.88,-56.74 -124.48,-121.14 -169.5,-193.39 -45.03,-72 -75.39,-138.11 -90.83,-197.5 -15.55,-59.4 -22.71,-114.38 -22.71,-165z"/>
  </g>
 </g>
</svg>
