<?xml version="1.0" encoding="UTF-8"?>
<!DOCTYPE svg PUBLIC "-//W3C//DTD SVG 1.1//EN" "http://www.w3.org/Graphics/SVG/1.1/DTD/svg11.dtd">
<!-- Creator: CorelDRAW -->
<svg xmlns="http://www.w3.org/2000/svg" xml:space="preserve" width="297mm" height="210mm" version="1.1" style="shape-rendering:geometricPrecision; text-rendering:geometricPrecision; image-rendering:optimizeQuality; fill-rule:evenodd; clip-rule:evenodd"
viewBox="0 0 29700 21000"
 xmlns:xlink="http://www.w3.org/1999/xlink"
 xmlns:xodm="http://www.corel.com/coreldraw/odm/2003">
 <defs>
  <style type="text/css">
   <![CDATA[
    .fil2 {fill:#A8A8AA}
    .fil0 {fill:#3A3C3D}
    .fil1 {fill:#32306C}
   ]]>
  </style>
 </defs>
 <g id="Слой_x0020_1">
  <metadata id="CorelCorpID_0Corel-Layer"/>
  <g id="_2197482190736">
   <path class="fil0" d="M15137.85 4106.08c489.41,114.02 902.6,375.48 1247.02,721.02l5480.37 5479.45c684.31,680.74 1033.46,925.13 2094.8,925.13 360.17,0 2827.84,58.67 2966.58,-53.3 91.58,-73.9 87.25,-215.89 87.25,-319.93 0,-126.36 -2085.62,-2136.52 -2214.03,-2264.92l-4851.93 -4920.31c-238.06,-270.36 -1340.8,-1412.58 -1584.99,-1536.74 -296.73,-150.93 -399.08,-134.13 -714.12,-134.13 -732.84,0 -1332.43,1027.56 -1953.73,1507.27 -119.63,92.38 -523.44,469.94 -557.22,596.46z"/>
   <path class="fil1" d="M8860.55 10519.12c0,131.17 30.29,305.38 203.58,305.38l2884.19 0c651.24,0 1192.67,-154.57 1561.38,-440.56 190.56,-147.84 376.96,-292.16 550.85,-467.09 704.74,-708.83 337.64,-799.04 1968,831.31 81.35,81.35 137.22,141.07 219.81,221.3 621.87,612.97 2138.41,729.59 3172.06,692.44 235.33,1.24 1523.23,62.16 1707.7,-36.31 489.53,-261.34 -288.55,-717.45 -608.84,-1126.75 -1593.41,-1494.61 -3125.93,-3110.37 -4672.64,-4658.49 -495.11,-470.94 -598.7,-682.38 -1319.56,-682.38 -583.47,0 -1159.05,734.88 -1586.27,1162.14l-3783.38 3783.34c-104.88,104.88 -296.88,233.36 -296.88,415.67z"/>
   <path class="fil1" d="M8653.15 14077.19c-35.75,354.84 -237.53,310.11 -606.96,310.11l0 -1255.47c164.36,0 390.39,-30.5 497.71,45.2 5.81,4.13 13.35,10.7 18.64,15.31 59.47,51.42 88.13,116.74 100.47,180.35 17.19,88.28 -2.69,633.28 -9.86,704.5zm-1319.52 2685.33l712.56 0 0 -1730.51 203.59 0c712.92,0 333.36,1122.26 475.03,1730.51l712.56 0c0,-136.14 -24.61,-220.26 -45.25,-364.26 -61.68,-430.18 69.81,-1200.69 -155.82,-1504.51l-47.17 -54.63c-72.26,-77.62 -122.43,-118.58 -226.79,-146.43 6.73,-4.69 17.95,-19.12 20.84,-13.07l126.28 -111.25c57.27,-60.76 84.04,-84.4 123.92,-147.56 218.17,-345.66 167.64,-1227.99 39.63,-1541.67 -92.77,-227.31 -431.46,-391.98 -616.05,-391.98l-1323.33 0 0 4275.36z"/>
   <path class="fil1" d="M20974.06 14421.25l-339.32 0 0 -1323.33c719.05,0 644.71,56.31 644.71,882.21 0,246.11 -178.06,441.12 -305.39,441.12zm-1017.94 2341.27l678.62 0 0 -1730.51c439.84,0 633.12,8.94 646.71,441.49l18.96 1062.14c33.98,296.85 -57.51,226.88 759.45,226.88 -160.83,-690.36 34.26,-1115.25 -150.25,-1755.23 -23.09,-80.12 23.56,7.29 -41.56,-88.53 -76.79,-113.06 -153.69,-211.89 -283.22,-226.07 29.94,-40.88 407.18,-306.55 407.18,-746.51 0,-464.61 64.24,-997.22 -318.41,-1310.3l-102.32 -67.33c-289.31,-139.75 -1192.75,-81.39 -1615.16,-81.39l0 4275.36z"/>
   <path class="fil1" d="M18293.47 14421.25c-78.19,0 -101.8,-23.61 -101.8,-101.8l0 -1221.53c715.77,0 644.71,60.6 644.71,950.05 0,307.63 -282.7,373.28 -542.91,373.28zm-780.41 2341.27l678.61 0 0 -1730.51c749.27,0 644.75,180.43 644.71,1051.85 -0.04,841.65 -75.98,678.66 780.41,678.66 -17.47,-210.33 -70.97,-120.84 -68.29,-542.48 2.21,-351.75 41.16,-1132.08 -201.34,-1393.42l-171.45 -167.88 90.21 -79.43c97.79,-85.4 146.92,-175.7 194.33,-314.64 130.81,-383.57 120.47,-1148.39 -93.57,-1459.55 -296.25,-430.5 -1277.28,-317.96 -1853.62,-317.96l0 4275.36z"/>
   <path class="fil1" d="M11100.02 13572.95l0 2205.53c0,490.77 -648.6,573.29 -646.71,35.87 -25.97,-728.59 -42.77,-1586.83 -18.28,-2302.56 5.65,-164.51 39.68,-323.7 150.25,-386.18 262.7,-148.48 514.74,-44.72 514.74,447.34zm-1357.27 -237.53l0 2578.8c0,557.94 403.53,916.14 1017.94,916.14 186.32,0 330.27,-9.85 492.62,-83.92 107.41,-49.01 251.72,-120.71 327.59,-215.61 146.8,-183.63 231.68,-473.26 231.68,-786.26 0,-454.5 44.84,-1766.69 -17.59,-2414.61 -37.96,-393.39 -160.63,-693.28 -584.2,-836.39 -713,-240.94 -1468.04,106.16 -1468.04,841.85z"/>
   <path class="fil1" d="M4890.57 15778.48c0,363.17 71.42,576.66 240.5,777.44 98.95,117.51 146,141.43 309.83,199.18 364.5,128.45 881.64,118.11 1172.84,-169.56 154.09,-152.25 278.77,-363.18 278.77,-603.47l0 -3494.91 -644.67 0 0 3325.26c0,479.16 -482.68,439.24 -610.97,237.74 -37.99,-59.6 -67.69,-168.73 -67.69,-271.68l0 -3291.32 -678.61 0 0 3291.32z"/>
   <polygon class="fil1" points="2685.04,16762.52 4517.34,16762.52 4517.34,16151.75 3363.66,16151.75 3363.66,14896.27 4279.8,14896.27 4279.8,14285.51 3363.66,14285.51 3363.66,13097.92 4517.34,13097.92 4517.34,12487.16 2685.04,12487.16 "/>
   <polygon class="fil1" points="15273.58,16762.52 17105.88,16762.52 17105.88,16151.75 15952.2,16151.75 15952.2,14896.27 16868.35,14896.27 16868.35,14285.51 15952.2,14285.51 15952.2,13097.92 17105.88,13097.92 17105.88,12487.16 15273.58,12487.16 "/>
   <polygon class="fil1" points="13169.85,16762.52 13848.46,16762.52 13848.46,14998.07 14730.67,14998.07 14730.67,14387.3 13848.46,14387.3 13848.46,13097.92 14968.2,13097.92 14968.2,12487.16 13169.85,12487.16 "/>
   <g>
    <polygon class="fil2" points="5338.95,19009.55 5596.11,19009.55 5596.11,18156.38 5785.74,18979.76 5918.47,18978.63 6143.94,18156.38 6143.94,19009.55 6389.86,19009.55 6389.86,17473.82 6155.09,17473.82 5871.39,18411.76 5580.61,17476.35 5338.95,17473.82 "/>
    <path class="fil2" d="M17365.83 19009.54l234.79 0 0 -839.62 395.01 742.46c64.16,126.32 21.77,97.16 275.79,97.16l0 -1364.38 -234.78 0 0 827.96c-28.08,-21.46 -206.33,-371.53 -223.6,-408.15 -41.53,-88.05 -197.22,-351.76 -212.42,-419.81l-234.79 0 0 1364.38z"/>
    <path class="fil2" d="M13158.19 17878.38l402.48 0 0 897.94 -402.48 0 0 -897.94zm-257.14 23.33l0 827.96c0,168.87 73.54,279.87 234.78,279.87l447.2 0c165.74,0 234.78,-118.87 234.78,-291.53l0 -769.66c0,-169.56 -52.72,-303.19 -234.78,-303.19l-469.56 0c-131.09,0 -212.42,118.24 -212.42,256.55z"/>
    <path class="fil2" d="M11909.91 17925.03l0 804.64c0,167.09 75.15,279.87 234.78,279.87l413.67 0c270.63,0 234.78,-282.18 234.78,-478.12 -59.91,-14.55 -192.94,-45.15 -257.14,-46.64l0 291.54 -368.95 0 0 -897.94 368.95 0 0 279.88c83.85,-7.28 173.28,-39.37 257.14,-46.65 0,-536.05 -47.66,-466.45 -670.81,-466.45 -69.65,0 -125.03,36.85 -159.84,78.16 -36.85,43.75 -52.58,123.43 -52.58,201.71z"/>
    <path class="fil2" d="M16744.63 17948.35c5.6,70.28 44.24,196.03 62.59,272.9 12.65,53 24.54,95.06 35.73,137.65 11.38,43.27 20.61,104.45 35.84,137.54l-268.33 0 111.54 -478.39c4.84,-20.44 4.02,-20.57 9.25,-37 16.21,-50.89 -12,30.29 6.17,-16.9l7.21 -15.8zm-525.47 1061.19l268.32 0c15.35,-33.35 63.23,-243.22 67.08,-291.53l380.13 0 67.21 291.5 279.37 0.03 -391.3 -1364.38 -279.51 0 -391.3 1364.38z"/>
    <path class="fil2" d="M8982.65 17948.35c5.29,66.33 75.4,323.32 98.33,410.55 11.37,43.27 20.61,104.45 35.83,137.54l-268.32 0 130.48 -540.27c0.71,-1.74 2.19,-5.37 3.68,-7.82zm-525.47 1061.19l268.33 0c15.34,-33.35 63.22,-243.22 67.07,-291.53l380.13 0 67.22 291.5 279.36 0.03 -100.62 -338.18c-29.73,-112.94 -69.22,-231.54 -98.25,-340.65 -23.13,-86.94 -187.37,-622.09 -192.43,-685.55l-279.5 0 -345.19 1190.92c-12.84,41.92 -42.96,133.85 -46.12,173.46z"/>
    <path class="fil2" d="M15852.16 18274.87l-313.04 11.66 0 -408.15c392.74,0 324.22,-71.46 324.22,338.19 0,14.89 -7.24,49.12 -11.18,58.3zm-570.18 734.67l257.14 0 0 -489.78c629.37,0 581.36,28.39 581.36,-629.71 0,-152.1 -77.16,-244.89 -223.6,-244.89l-614.9 0 0 1364.38z"/>
    <polygon class="fil2" points="6658.22,19009.55 7452.01,19009.55 7452.01,18776.33 6915.34,18776.33 6915.34,18426.48 7261.93,18426.48 7270.59,18199.68 6915.34,18193.26 6915.34,17878.38 7440.81,17878.38 7440.81,17645.16 6658.22,17645.16 "/>
    <path class="fil2" d="M18738.76 18414.81l0 594.73 257.14 0 0 -594.73c0,-48.93 318.83,-648.83 380.12,-769.65l-268.32 0 -119.26 260.44c-24.84,51.81 -97.78,230.56 -126.7,252.66 -3.96,-49.61 -182.05,-475.25 -201.24,-513.1l-279.51 0c16.86,75.48 357.77,692.93 357.77,769.65z"/>
    <polygon class="fil2" points="7519.07,17878.38 7854.47,17878.38 7854.47,19009.54 8111.62,19009.54 8111.62,17878.38 8435.84,17878.38 8435.84,17645.16 7519.07,17645.16 "/>
    <polygon class="fil2" points="9623.43,19009.54 10383.68,19009.54 10383.68,18776.32 9880.57,18776.32 9880.57,17645.16 9623.43,17645.16 "/>
    <polygon class="fil2" points="10489.22,19009.54 11249.47,19009.54 11249.47,18776.32 10746.36,18776.32 10746.36,17645.16 10489.22,17645.16 "/>
    <polygon class="fil2" points="13977.59,19009.55 14234.75,19009.55 14234.75,18156.38 14424.37,18979.76 14557.1,18978.63 14782.57,18156.38 14782.57,19009.55 15028.5,19009.55 15028.5,17653.45 14743.07,17653.45 14510.03,18411.76 14266.56,17655.98 13977.59,17653.45 "/>
   </g>
  </g>
 </g>
</svg>
