<?xml version="1.0" encoding="UTF-8"?>
<!DOCTYPE svg PUBLIC "-//W3C//DTD SVG 1.1//EN" "http://www.w3.org/Graphics/SVG/1.1/DTD/svg11.dtd">
<!-- Creator: CorelDRAW -->
<svg xmlns="http://www.w3.org/2000/svg" xml:space="preserve" width="297mm" height="210mm" version="1.1" style="shape-rendering:geometricPrecision; text-rendering:geometricPrecision; image-rendering:optimizeQuality; fill-rule:evenodd; clip-rule:evenodd"
viewBox="0 0 29700 21000"
 xmlns:xlink="http://www.w3.org/1999/xlink"
 xmlns:xodm="http://www.corel.com/coreldraw/odm/2003">
 <defs>
  <style type="text/css">
   <![CDATA[
    .fil0 {fill:#2B2A29}
   ]]>
  </style>
 </defs>
 <g id="Слой_x0020_1">
  <metadata id="CorelCorpID_0Corel-Layer"/>
  <g id="_2196710872912">
   <path class="fil0" d="M2383.16 12449.01l1072.54 0 0 -1806.94c3.3,3.78 1.72,1.17 7.26,8.59l20.16 32.68c9.36,15.57 16.74,27.97 25.71,42.97l364.56 612.88c69.04,115.37 137.53,230.15 207.43,347.33l181.43 304.64c26.71,49.68 12.93,40.45 107.49,40.45 18.48,0 42.55,-52.44 58.41,-78.95l781.66 -1310.59 0 1806.94 1072.54 0 0 -3735.4 -1072.54 0c-5.21,19.51 -699.31,1213.99 -763.85,1323.11 -19.66,33.23 -34.61,61.49 -54.07,93.87 -13.02,21.67 -49.27,79.72 -53.85,99.37 -22.25,-16.3 -505.67,-864.51 -555.02,-950.76 -35.88,-62.7 -76.12,-126.52 -110.69,-190.47l-205.45 -354.6c-7,-11.9 -6.08,-20.52 -21.74,-20.52l-1061.98 0 0 3735.4z"/>
   <path class="fil0" d="M11100.86 10615.65c62.29,0 147,17.64 190.2,36.98 163.16,73.06 280.03,243.7 280.03,417.4 0,107.69 2.8,172.46 -44,273.01 -24.75,53.18 -55.81,99.15 -94.68,137.79 -117.53,116.85 -272.34,154.31 -440.34,120.67 -63.92,-12.8 -120.17,-36.24 -169.8,-73.24 -126.9,-94.63 -194.55,-253.71 -197.3,-410.72l11.56 -110.3c5.58,-31.37 15.57,-66.43 26.5,-95.02 71.33,-186.68 239.53,-296.57 437.83,-296.57zm470.23 -602.31c-165.24,-190.1 -390.96,-306.45 -665.72,-306.45 -254.48,0 -431.78,28.81 -648.86,159.51 -18.05,10.86 -32.44,19.3 -48.54,30.72 -15.53,11 -28.52,21.4 -45.31,33.94 -337.46,252.14 -525.32,703.33 -525.32,1138.97 0,418.11 76.91,720.17 324.52,1033.32 201.39,254.69 520.26,419.62 848.41,419.62 191.09,0 327.97,-10.21 489.61,-91.57 112.66,-56.7 193.65,-125.63 271.21,-214.86l0 232.47 993.29 0 0 -3735.4 -993.29 0 0 1299.73z"/>
   <path class="fil0" d="M18460.71 10615.65c128.87,0 244.28,46.13 328.9,130.76 40.29,40.28 69.32,82.11 95.61,136.87 85.28,177.62 58.88,446.58 -92.96,597.55 -166.39,165.43 -444.17,171.19 -610.14,47.43 -96.18,-71.72 -162.43,-180.81 -184.97,-301.12l-12.33 -109.6c-0.94,-53.43 18.54,-154.24 38.06,-205.32 31.11,-81.42 88.5,-157.65 156.24,-208.32 50.4,-37.7 105.27,-62.14 168.38,-74.67 31.47,-6.24 79.42,-13.58 113.21,-13.58zm-1463.51 454.38c0,418.11 76.9,720.17 324.52,1033.32 40.52,51.25 107.15,119.75 157.01,160 15.87,12.81 25.94,22.13 43.79,35.46l93.83 64.67c17.74,10.68 30.82,19.52 50.01,29.25 215.3,109.2 355.1,130.24 598.86,130.24 146.64,0 295.48,-41.72 394.51,-91.57 112.67,-56.7 193.65,-125.63 271.21,-214.86l0 232.47 993.29 0 0 -2668.14 -993.29 0 0 232.47c-165.23,-190.1 -390.96,-306.45 -665.72,-306.45 -164.32,0 -209.4,-0.51 -372.02,40.1 -102.72,25.65 -191.8,68.2 -276.85,119.41 -18.04,10.86 -32.43,19.3 -48.53,30.72 -369.8,262.14 -570.62,707.94 -570.62,1172.91z"/>
   <path class="fil0" d="M25852.26 10615.65c62.29,0 147,17.64 190.2,36.98 58.05,26 95.69,50.76 138.71,93.78 78.17,78.17 141.32,205.7 141.32,323.62 0,107.69 2.8,172.46 -44,273.01 -24.75,53.18 -55.81,99.15 -94.68,137.79 -23.65,23.51 -36.48,33.55 -62.77,53.46 -127.34,96.48 -323.91,96.81 -470.4,38.51 -27.16,-10.81 -54.67,-27.92 -76.97,-44.54 -96.18,-71.72 -162.42,-180.81 -184.96,-301.12l-12.34 -109.6c-0.94,-53.43 18.54,-154.24 38.06,-205.32 19.7,-51.55 55.91,-113.14 93.01,-150.03 98.95,-98.38 200.15,-146.54 344.82,-146.54zm-1463.52 454.38c0,247.4 19.17,420.05 94.43,629.41 127.46,354.58 424.72,689.33 801.59,783.45 245.71,61.36 541.45,61.79 766.52,-51.49 112.66,-56.7 193.65,-125.63 271.21,-214.86l0 232.47 993.29 0 0 -2668.14 -993.29 0 0 232.47c-77.56,-89.23 -158.55,-158.18 -271.21,-214.88 -225.05,-113.25 -520.76,-112.85 -766.52,-51.47 -164.73,41.13 -287.91,117.36 -414.48,219.54 -49.86,40.25 -116.49,108.74 -157.02,159.99 -94.87,119.98 -173.68,246.99 -230.09,403.92 -51.77,144.02 -94.43,343.4 -94.43,539.59z"/>
   <path class="fil0" d="M21757.58 12449.01l993.29 0 0 -1051.41c12.39,9.07 29.8,43.48 39.99,60.41l594.03 991 1098.96 0c-252.95,-377.73 -503.66,-787.52 -756.59,-1166.59 -38.09,-57.09 -72.34,-114.03 -109.9,-170.13l51.84 -80.25c17.11,-28.33 31.71,-54.85 49.58,-82.5 111.06,-171.81 246.92,-403.64 353.96,-581.21l253.6 -417.4c17.13,-28.38 31.25,-54.34 49.69,-82.39 12.42,-18.89 45.21,-68.41 49.7,-87.67l-1120.09 0 -137.34 253.63c-11.13,22.57 -21.42,37.34 -33.45,61.66l-70.42 130.34c-12.2,24.24 -22.46,39.52 -35.23,65.16 -11.7,23.48 -21.15,37.21 -33.46,61.65 -12.2,24.23 -22.46,39.52 -35.23,65.15l-137.39 253.59c-12.01,24.28 -23.44,41.25 -35.23,65.15l-37.02 63.37 0 -2086.96 -993.29 0 0 3735.4z"/>
   <path class="fil0" d="M8084.01 10494.13c49.46,0 122.52,10.11 161.92,23 96.27,31.49 162.93,77.39 215.55,164.86 17.1,28.41 52.71,97.64 55.77,134.43l-887.62 0c5.39,-64.71 95.07,-183.66 156.16,-229.53 38.27,-28.74 80,-51.49 129.12,-66.37 41.91,-12.7 115.57,-26.39 169.1,-26.39zm-1442.38 586.46c0,252 30.04,457.97 128.55,653.4 98.16,194.75 152.37,258.43 295.44,401.97 178.78,179.37 444.71,301.17 694.78,351.36 325.66,65.35 778.88,48.11 1082.62,-87.66 93.32,-41.71 161.93,-78.27 241.72,-133.41 51.18,-35.37 167.44,-129.96 198.61,-176.51 -10.23,-15.3 -23.94,-22.82 -38.34,-35.63l-606.24 -508.57c-21.33,11.29 -23.75,17.55 -43.22,30.74 -16.76,11.36 -30.64,20.78 -47.57,31.68 -33.61,21.63 -67.37,37.26 -104.78,53.74 -139.99,61.69 -294.29,61.21 -442.3,35.63 -52.89,-9.14 -108.33,-25.51 -152.95,-47.82 -61.62,-30.81 -129.13,-77.86 -166.62,-134.54 -13.18,-19.94 -30.16,-40.14 -35.85,-64.53l1769.96 0c1.93,-23.23 10.88,-56.97 15.44,-79.66 5.75,-28.56 9.58,-54.67 14.03,-86.36 37.53,-267.63 -8.9,-536.23 -95.85,-755.6 -24.02,-60.59 -83.86,-170.94 -117.42,-220.74 -186.02,-276.03 -472.02,-490.45 -801.15,-561.97 -326.35,-70.92 -691.69,-52.46 -987.56,85.81l-214.84 123.3c-50.14,33.01 -143.27,114.44 -186.24,157.17 -7.95,7.91 -13.84,12.95 -21.1,21.18l-59.14 67.67c-86.72,111.72 -135.4,173.58 -198.41,314.08 -64.97,144.9 -121.57,356.07 -121.57,565.27z"/>
   <path class="fil0" d="M14276.22 11064.74c0,205.14 10.76,342.4 74.58,533.02 40.55,121.15 100.1,232.2 171.58,335.63 50.15,72.56 87.56,104.87 133.46,162.41 35.41,44.39 161.81,144.16 207.64,178.06 54.18,40.06 159.05,100.88 218.05,125.37 42.74,17.75 75.77,32.64 121.27,47.81 40.81,13.6 91.69,29.38 131.37,37.69 398.1,83.44 808.76,37.64 1141,-177.34 13.36,-8.65 23.8,-13.52 35.98,-22.13 136.8,-96.73 226.97,-178.79 328.37,-316.22 20.5,-27.8 81.5,-116.62 88.99,-148.76 -35.13,-18.59 -67.98,-39.59 -104.04,-59.75 -19.34,-10.81 -31.45,-17.66 -50.81,-28.44 -186.57,-103.8 -385.4,-226.17 -572.64,-330.83 -19.33,-10.82 -31.45,-17.66 -50.81,-28.44 -17.58,-9.8 -35.37,-26.3 -56.49,-28.06 -60.64,114.62 -131.29,171.66 -251.63,208.03 -100.18,30.28 -229.94,21.82 -318.98,-17.82 -22.86,-10.17 -49.9,-25.67 -70.31,-40.64 -13.58,-9.96 -19.26,-15.95 -31.71,-26.41 -50.62,-42.53 -18.19,-14.81 -55.15,-55.8 -93.32,-103.56 -113.89,-262.57 -91.28,-395.06 15.71,-92.02 56.77,-158.1 112.59,-225.54l59.52 -51.45c176.18,-133.39 464.54,-106.76 617.58,95.16 10.96,14.47 23.14,36.15 34.66,44.6l415.63 -234.23c128.36,-68.45 282.36,-166.42 413.87,-236.01 -6.55,-28.08 -26.28,-51.42 -40.58,-75.65l-179.97 -226.86c-94.57,-82.86 -190.68,-166.45 -304.29,-224.05 -81.02,-41.08 -155.1,-80.58 -245.84,-108.15 -260.27,-79.12 -549.11,-92.57 -818.6,-29.96 -156.78,36.43 -341.58,110.32 -469.78,206.5 -45.89,34.43 -99.07,72.72 -140.08,113.53 -16.75,16.68 -29.93,24.29 -47.68,42.14 -7.96,8.01 -13.77,12.93 -21.06,21.2 -9.26,10.51 -9.31,13.19 -18.57,23.7 -48.45,54.97 -68.97,74.27 -115.3,138.31 -158.61,219.23 -250.54,504.91 -250.54,774.44z"/>
   <path class="fil0" d="M20341.62 12449.01l993.29 0 0 -3883.34c0,-12.17 -3.68,-15.85 -15.85,-15.85l-977.44 0 0 3899.19z"/>
   <polygon class="fil0" points="12987.06,12449.01 13980.34,12449.01 13980.34,9780.87 12987.06,9780.87 "/>
   <path class="fil0" d="M12934.22 9020.05c0,177.06 59.19,294.56 159.82,394.94 130.53,130.2 242.85,165.1 426.64,165.1 105.66,0 211.22,-51.2 287.65,-108.6 16.04,-12.04 20.05,-18.41 33.87,-29.54 86.72,-69.82 150.6,-180.68 176.24,-288.7 49.8,-209.76 -42.08,-426.75 -210.11,-552.94 -221.75,-166.55 -516.97,-140.82 -711.64,53.86 -81.19,81.19 -162.47,206.38 -162.47,365.88z"/>
  </g>
 </g>
</svg>
