<?xml version="1.0" encoding="UTF-8"?>
<!DOCTYPE svg PUBLIC "-//W3C//DTD SVG 1.1//EN" "http://www.w3.org/Graphics/SVG/1.1/DTD/svg11.dtd">
<!-- Creator: CorelDRAW -->
<svg xmlns="http://www.w3.org/2000/svg" xml:space="preserve" width="297mm" height="210mm" version="1.1" style="shape-rendering:geometricPrecision; text-rendering:geometricPrecision; image-rendering:optimizeQuality; fill-rule:evenodd; clip-rule:evenodd"
viewBox="0 0 29700 21000"
 xmlns:xlink="http://www.w3.org/1999/xlink"
 xmlns:xodm="http://www.corel.com/coreldraw/odm/2003">
 <defs>
  <style type="text/css">
   <![CDATA[
    .fil0 {fill:#E31E24}
   ]]>
  </style>
 </defs>
 <g id="Слой_x0020_1">
  <metadata id="CorelCorpID_0Corel-Layer"/>
  <g id="_2197583724896">
   <polygon class="fil0" points="2409.89,11143.36 3724.35,11143.36 5066.12,9416.58 5225.68,9416.58 5225.68,11127.43 6586.36,11127.43 8035.71,9398.86 8133.21,9421.02 8133.21,11131.87 9276.93,11131.87 9276.93,8050.89 7904.58,8050.89 6550.8,9703.02 6372.9,9703.02 6372.9,8072.16 4900.2,8072.16 "/>
   <path class="fil0" d="M2409.89 11143.36l1314.46 0 1341.77 -1726.78 159.56 0 0 1710.85 1360.68 0 1449.35 -1728.57 97.5 22.16 0 1710.85 1143.72 0 0 -3080.98 -1372.35 0 -1353.78 1652.13 -177.9 0 0 -1630.86 -1472.7 0 -2490.31 3071.2zm1314.46 9.14l-1333.59 0c834.96,-1029.79 1672.25,-2058.06 2505.12,-3089.49 495.21,2.1 990.89,0.02 1486.15,0.02l0 1630.86 164.46 0 1353.78 -1652.13 1385.8 0 0 3099.25 -1162 0 0 -1712.73 -84.94 -19.32 -1448.51 1727.61 -1374.08 0 0 -1710.85 -145.95 0 -1341.75 1726.78 -4.49 0z"/>
   <polygon class="fil0" points="27289.02,8050.8 25974.57,8050.8 24632.8,9777.59 24473.23,9777.59 24473.23,8066.74 23112.55,8066.74 21663.2,9795.31 21565.71,9773.15 21565.71,8062.3 20421.98,8062.3 20421.98,11143.27 21794.33,11143.27 23148.11,9491.15 23326.02,9491.15 23326.02,11122.01 24798.72,11122.01 "/>
   <path class="fil0" d="M27289.02 8050.8l-1314.45 0 -1341.77 1726.79 -159.57 0 0 -1710.85 -1360.68 0 -1449.35 1728.57 -97.49 -22.16 0 -1710.85 -1143.73 0 0 3080.97 1372.35 0 1353.78 -1652.12 177.91 0 0 1630.86 1472.7 0 2490.3 -3071.21zm-1314.45 -9.13l1333.6 0c-835.64,1029.05 -1672.99,2057.64 -2505.12,3089.47l-1486.17 0 0 -1630.86 -164.46 0 -1353.75 1652.13 -1385.83 0 0 -3099.25 1162 0 0 1712.73 84.95 19.32 1448.52 -1727.61 1374.06 0 0 1710.85 145.95 0 1341.77 -1726.78 4.48 0z"/>
   <path class="fil0" d="M12136.23 7982.29c829.13,0 1561.75,272.93 2003.99,690.3l-1013.8 535.72c-197.46,-291.76 -597.12,-491.3 -1058.02,-491.3 -656.89,0 -1189.42,405.29 -1189.42,905.27 0,499.96 532.53,905.27 1189.42,905.27 327.28,0 623.64,-100.62 838.71,-263.42 28.7,2.03 58.03,1.39 87.67,-2.17l1155.49 -138.96 219.91 135.49c-381.45,564.82 -1238.15,958.45 -2233.95,958.45 -1350.62,0 -2445.51,-724.11 -2445.51,-1617.32 0,-893.22 1094.89,-1617.33 2445.51,-1617.33z"/>
   <path class="fil0" d="M12136.23 7973.15c407.85,0 792.49,65.91 1130.84,182.44 351.47,121.06 653.2,296.89 879.4,510.37l9.26 8.73c-344.08,181.8 -687.95,364.15 -1032.29,545.48l-4.58 -6.76c-99.44,-146.94 -250.85,-270.36 -435.7,-356.2 -179.04,-83.16 -389.54,-131.06 -614.76,-131.06 -326.41,0 -621.84,100.62 -835.51,263.25 -213,162.1 -344.78,385.89 -344.78,632.88 0,246.97 131.8,470.78 344.78,632.88 213.71,162.63 509.1,263.25 835.51,263.25 159.6,0 311.78,-24.08 450.63,-67.66 144.09,-45.25 273.85,-111.58 382.58,-193.89l2.74 -2.08 3.4 0.25c14.32,1.01 28.69,1.35 42.97,1.01 14.02,-0.35 28.38,-1.39 42.98,-3.14l1158.62 -139.34c76.75,47.6 153.79,94.9 230.74,142.15l-5.31 7.87c-194.7,288.29 -512.42,532.17 -908.89,702.24 -383.7,164.63 -841.34,260.26 -1332.63,260.26 -677.1,0 -1290.29,-181.62 -1734.26,-475.24 -445.07,-294.35 -720.38,-701.36 -720.38,-1151.22 0,-449.87 275.31,-856.88 720.38,-1151.23 443.97,-293.62 1057.16,-475.24 1734.26,-475.24zm770.88 2290.98c28.7,2.03 58.03,1.39 87.67,-2.17l1155.49 -138.96 219.91 135.49c-381.45,564.82 -1238.15,958.45 -2233.95,958.45 -1350.62,0 -2445.51,-724.11 -2445.51,-1617.32 0,-893.22 1094.89,-1617.33 2445.51,-1617.33 829.13,0 1561.75,272.93 2003.99,690.3l-1013.8 535.72c-197.46,-291.76 -597.12,-491.3 -1058.02,-491.3 -656.89,0 -1189.42,405.29 -1189.42,905.27 0,499.96 532.53,905.27 1189.42,905.27 327.28,0 623.64,-100.62 838.71,-263.42z"/>
   <path class="fil0" d="M17464.32 7982.29c-1029.74,0 -1910.71,420.93 -2271.25,1016.79l245.14 149.7 1203.15 -161.39c16.11,-2.16 32.14,-3.44 48.03,-3.91 215.39,-164.59 513.43,-266.47 842.75,-266.47 656.89,0 1189.42,405.29 1189.42,905.27 0,499.96 -532.53,905.27 -1189.42,905.27 -451.43,0 -844.12,-191.41 -1045.61,-473.43l-980.51 514.37c446.05,393.7 1157.17,648.45 1958.3,648.45 1350.61,0 2445.5,-724.11 2445.5,-1617.32 0,-893.22 -1094.89,-1617.33 -2445.5,-1617.33z"/>
   <path class="fil0" d="M17464.32 7982.29c-1029.74,0 -1910.71,420.93 -2271.25,1016.79l245.14 149.7 1203.15 -161.39c16.11,-2.16 32.14,-3.44 48.03,-3.91 215.39,-164.59 513.43,-266.47 842.75,-266.47 656.89,0 1189.42,405.29 1189.42,905.27 0,499.96 -532.53,905.27 -1189.42,905.27 -451.43,0 -844.12,-191.41 -1045.61,-473.43l-980.51 514.37c446.05,393.7 1157.17,648.45 1958.3,648.45 1350.61,0 2445.5,-724.11 2445.5,-1617.32 0,-893.22 -1094.89,-1617.33 -2445.5,-1617.33zm-1372.73 268.69c391.78,-175.38 864.24,-277.83 1372.73,-277.83 677.09,0 1290.28,181.62 1734.25,475.24 445.07,294.35 720.38,701.36 720.38,1151.23 0,449.86 -275.31,856.87 -720.38,1151.22 -443.97,293.62 -1057.16,475.24 -1734.25,475.24 -394.01,0 -766.36,-61.5 -1096.25,-170.73 -342.76,-113.48 -639.91,-278.65 -868.08,-480.04l-9.89 -8.73c333.12,-174.62 666.37,-349.09 999.24,-524.21l4.61 6.47c101.51,142.08 252.21,261.06 434.71,343.7 176.57,79.94 382.96,125.87 603.48,125.87 326.41,0 621.81,-100.62 835.51,-263.25 212.99,-162.1 344.78,-385.91 344.78,-632.88 0,-246.99 -131.78,-470.78 -344.78,-632.88 -213.67,-162.63 -509.1,-263.25 -835.51,-263.25 -160.57,0 -313.65,24.35 -453.2,68.48 -144.86,45.8 -275.15,112.9 -384.01,196.08l-2.32 1.78 -2.96 0.09c-7.49,0.22 -15.42,0.67 -23.63,1.33 -8.07,0.66 -15.95,1.5 -23.46,2.51l-1206.34 161.81c-85.44,-51.49 -170.6,-103.95 -255.65,-156.11l4.68 -7.75c183.9,-303.91 502.29,-562.5 906.34,-743.39z"/>
   <polygon class="fil0" points="16701.18,9433.37 15182.2,10230.22 14252.53,9657.49 12941.06,9815.19 14401.94,9043.24 15339.89,9615.98 "/>
   <path class="fil0" d="M16705.38 9441.43l-1523.55 799.24 -931.34 -573.73 -1357.17 163.18c502.99,-265.76 1006.29,-531 1508.97,-797.36l939.61 573.75 1409.1 -189.01 -45.62 23.93zm-4.2 -8.06l-1518.98 796.85 -929.67 -572.73 -1311.47 157.7 1460.88 -771.95 937.95 572.74 1361.29 -182.61z"/>
   <path class="fil0" d="M10554.66 13010.44l199.09 0c0,-98.14 8.04,-571.95 -5.38,-629.55 14.01,10.26 327.94,495.32 333.61,516.55l182.94 0c4.67,-17.5 104.54,-166.37 122.72,-194.73 15.2,-23.69 26.04,-41.88 41.96,-65.66l159.97 -248.97c0.63,-0.96 1.51,-2.35 2.12,-3.25 7.66,-11.28 1.49,-3.17 6.84,-9.31 -1.4,16.83 -5.39,19.1 -5.39,37.66l0 597.26 199.09 0 0 -801.73 -306.7 0c-7.66,28.68 -299.7,448.81 -306.7,478.88l-10.76 0c-4.21,-18.06 -61.78,-103.49 -75.33,-123.75l-215.12 -328.33c-7.1,-11.12 -12.42,-26.8 -27.02,-26.8l-295.94 0 0 801.73z"/>
   <path class="fil0" d="M10554.66 13010.43l199.09 0c0,-98.13 8.04,-571.94 -5.37,-629.53 13.99,10.25 327.93,495.31 333.59,516.54l182.95 0c4.66,-17.5 104.53,-166.37 122.71,-194.73 15.21,-23.7 26.04,-41.88 41.97,-65.67l162.09 -252.22c7.65,-11.27 1.5,-3.16 6.83,-9.31 -1.39,16.84 -5.37,19.11 -5.37,37.67l0 597.25 199.08 0 0 -801.72 -306.7 0c-7.65,28.68 -299.7,448.81 -306.7,478.89l-10.76 0c-4.2,-18.07 -61.78,-103.51 -75.33,-123.77l-215.13 -328.32c-7.09,-11.13 -12.41,-26.8 -27.01,-26.8l-295.94 0 0 801.72zm199.09 9.14l-208.22 0 0 -820 305.07 0c17.12,0 24.21,12.63 30.99,24.67l3.73 6.38 216.92 331.03c14.67,21.91 58.52,87.36 71.4,115.2 17.08,-33.63 88.47,-140.83 157.96,-245.14 71.91,-108 141.82,-212.92 145.12,-225.36l1.83 -6.78 322.82 0 0 820 -217.36 0 0 -605.97 -146.73 228.37c-9.91,14.77 -18.09,27.78 -26.61,41.35l-15.36 24.32 -20.87 31.79c-35.02,53.19 -97.42,147.95 -100.71,160.33l-1.81 6.82 -196.93 0 -1.82 -6.78c-2.51,-9.39 -78.57,-129.76 -157.26,-251.65 -61.63,-95.45 -124.6,-191.39 -154.85,-235.3 6.3,96.9 3.94,347.14 2.54,497.09l-0.72 109.63 -9.13 0z"/>
   <path class="fil0" d="M17236.38 12596.13l-408.93 0 0 -226c75.91,0 430.36,-6.83 488.72,11.69 63.93,20.31 65.49,56.66 65.49,112.07 0,83.55 -62.87,102.24 -145.28,102.24zm-608.02 403.55c0,12.4 3.75,16.14 16.14,16.14l182.95 0 0 -263.65 360.51 0c181.3,0 183.01,70.73 210.23,220.22 10.93,60.03 -15.23,43.43 220.23,43.43l-26.91 -102.23c-24.94,-105.1 -24.24,-218.07 -150.65,-247.52 64.12,-44.56 145.27,-36.78 145.27,-225.99 0,-40.28 -8.84,-71.91 -23.2,-100.56 -44.08,-87.97 -131.65,-130.81 -240.46,-130.81l-694.11 0 0 790.97z"/>
   <path class="fil0" d="M17236.38 12596.13l-408.93 0 0 -226c75.9,0 430.36,-6.83 488.72,11.7 63.93,20.3 65.5,56.66 65.5,112.06 0,83.55 -62.89,102.24 -145.29,102.24zm-608.01 403.54c0,12.41 3.74,16.15 16.13,16.15l182.95 0 0 -263.65 360.51 0c181.29,0 183.01,70.73 210.23,220.22 10.93,60.02 -15.24,43.43 220.23,43.43l-26.9 -102.24c-24.96,-105.1 -24.25,-218.05 -150.67,-247.51 64.14,-44.56 145.28,-36.78 145.28,-225.99 0,-40.29 -8.84,-71.92 -23.19,-100.57 -44.09,-87.96 -131.66,-130.8 -240.46,-130.8l-694.11 0 0 790.96zm208.22 -412.67l399.79 0c39.76,0 74.6,-4.41 98.98,-18.55 23.15,-13.45 37.18,-36.54 37.18,-74.56 0,-26.63 -0.39,-48.66 -7.95,-65.45 -7.31,-16.15 -22.09,-28.71 -51.14,-37.93 -47.78,-15.11 -304.91,-12.79 -430.6,-11.66l-46.26 0.35 0 207.8zm-211.27 431.87c-4.41,-4.4 -6.09,-10.48 -6.09,-19.2l0 -800.1 703.25 0c56.91,0 108.36,11.51 151.23,34.83 41.49,22.56 74.89,56.18 97.36,101.04 7.46,14.91 13.52,30.66 17.69,47.85 4.18,17.28 6.51,36.01 6.51,56.79 0,156.22 -53.94,183.26 -109.82,211.29 -7.41,3.71 -14.89,7.45 -22.21,11.56 93.84,31.45 109.86,112.79 126.64,198.41 3.25,16.63 6.57,33.51 10.52,50.14l29.84 113.48 -11.82 0c-53.67,0 -92.06,0.78 -121,1.39 -41.71,0.86 -64.92,1.33 -78.78,-1.39 -22.59,-4.46 -24.03,-14.4 -27.17,-36.65l-2.23 -14.31 -4.41 -24.59c-22.69,-127.55 -33.49,-188.11 -196.87,-188.11l-351.37 0 0 263.66 -192.09 0c-8.71,0 -14.78,-1.68 -19.18,-6.09z"/>
   <path class="fil0" d="M12472.35 12606.88c0,-261.84 197.85,-252.89 398.18,-252.89 178.85,0 301.32,51.61 301.32,231.37 0,90.6 -3.7,172.1 -78.35,222.98 -86.36,58.85 -216.52,51.44 -325.2,51.44 -182.37,0 -295.95,-56.65 -295.95,-252.9zm290.56 419.7c171.01,0 337.22,2.38 472.05,-98.31 189.67,-141.62 191.87,-500.82 -3.06,-645.1 -129.63,-95.95 -299.99,-95.99 -468.99,-95.99 -235.99,0 -479.13,105.82 -489.68,365.85 -1.1,26.83 -5.69,28.64 -5.69,53.85 0,51.51 16.76,140.79 38.06,188.28 24.95,55.62 55.77,93.62 101.28,130.09 74.97,60.06 221.05,101.33 356.03,101.33z"/>
   <path class="fil0" d="M12472.36 12606.88c0,-261.85 197.84,-252.9 398.17,-252.9 178.86,0 301.33,51.62 301.33,231.39 0,90.59 -3.71,172.08 -78.36,222.97 -86.35,58.85 -216.52,51.45 -325.2,51.45 -182.36,0 -295.94,-56.66 -295.94,-252.91zm290.55 419.71c171,0 337.22,2.37 472.04,-98.32 189.69,-141.62 191.87,-500.82 -3.05,-645.11 -129.62,-95.94 -300,-95.98 -468.99,-95.98 -235.99,0 -479.12,105.83 -489.69,365.85 -1.09,26.82 -5.68,28.63 -5.68,53.85 0,51.52 16.76,140.79 38.06,188.28 24.94,55.62 55.77,93.62 101.28,130.09 74.97,60.06 221.04,101.34 356.03,101.34zm88.38 -663.53c-188.87,-0.25 -369.79,-0.53 -369.79,243.82 0,94.95 27.1,155.85 75.95,192.78 49.37,37.32 121.56,50.99 210.85,50.99l32.93 0.18c99.81,0.66 211.67,1.39 287.13,-50.02 35.25,-24.01 53.79,-55.38 63.51,-91.43 9.94,-36.89 10.86,-79.34 10.86,-124.01 0,-86.44 -29.15,-141.89 -79.52,-175.55 -51.25,-34.2 -124.92,-46.7 -212.68,-46.7l-19.24 -0.06zm-76.81 672.62l-11.57 0.04c-68.4,0 -139.75,-10.5 -203.39,-28.61 -63.71,-18.13 -120.01,-44.04 -158.36,-74.75 -23.31,-18.67 -42.88,-37.77 -59.82,-59.33 -16.92,-21.52 -31.26,-45.58 -44.05,-74.16 -10.6,-23.64 -20.1,-57.26 -27.03,-91.52 -7.32,-36.32 -11.85,-73.52 -11.85,-100.47 0,-13.84 1.35,-21.14 2.79,-28.95 1.15,-6.34 2.43,-13.11 2.93,-25.27 4.93,-121.83 59.71,-210.74 140.81,-271.34 95.67,-71.46 227.99,-103.27 357.97,-103.27 84.75,0 169.94,0.04 250.58,12.11 81.27,12.19 157.64,36.71 223.84,85.7 26.03,19.27 48.67,42.29 67.82,67.93 54.52,73.01 81.56,168.26 81.6,263.16 0.04,94.86 -26.93,189.67 -80.39,261.92 -18.77,25.32 -40.77,47.92 -65.95,66.71 -134.18,100.21 -297.51,100.16 -465.93,100.1z"/>
   <path class="fil0" d="M15228.67 12606.88c0,-261.84 197.85,-252.89 398.18,-252.89 178.85,0 301.32,51.61 301.32,231.37 0,90.6 -3.69,172.1 -78.35,222.98 -86.36,58.85 -216.53,51.44 -325.21,51.44 -182.36,0 -295.94,-56.65 -295.94,-252.9zm290.57 419.7c170.99,0 337.21,2.38 472.04,-98.31 189.67,-141.62 191.87,-500.82 -3.06,-645.1 -129.63,-95.95 -299.99,-95.99 -468.98,-95.99 -148.48,0 -285.81,36.67 -389.46,132.49 -0.82,0.74 -2.01,1.8 -2.81,2.56 -57.68,54.89 -94.21,151.5 -97.43,230.8 -1.09,26.83 -5.69,28.64 -5.69,53.85 0,25.08 4.26,24.44 5.57,48.59 1.44,26.45 1.09,31.04 5.85,53.34 19.66,92.02 54.49,157.59 127.94,216.44 74.95,60.06 221.04,101.33 356.03,101.33z"/>
   <path class="fil0" d="M15228.66 12606.88c0,-261.85 197.86,-252.9 398.19,-252.9 178.85,0 301.31,51.62 301.31,231.39 0,90.59 -3.68,172.08 -78.33,222.97 -86.37,58.85 -216.54,51.45 -325.21,51.45 -182.37,0 -295.96,-56.66 -295.96,-252.91zm290.57 419.71c171,0 337.23,2.37 472.05,-98.32 189.66,-141.62 191.87,-500.82 -3.07,-645.11 -129.63,-95.94 -299.97,-95.98 -468.98,-95.98 -148.48,0 -285.8,36.67 -389.46,132.49l-2.79 2.56c-57.7,54.88 -94.23,151.5 -97.44,230.8 -1.08,26.82 -5.68,28.63 -5.68,53.85 0,25.08 4.25,24.44 5.57,48.58 1.42,26.46 1.08,31.04 5.85,53.35 19.64,92.02 54.48,157.59 127.93,216.44 74.95,60.06 221.05,101.34 356.02,101.34zm88.38 -663.53c-188.87,-0.25 -369.82,-0.53 -369.82,243.82 0,94.95 27.1,155.85 75.96,192.78 49.37,37.31 121.58,50.99 210.87,50.99l32.92 0.18c99.82,0.66 211.69,1.39 287.15,-50.02 35.25,-24.01 53.79,-55.4 63.5,-91.43 9.94,-36.89 10.83,-79.34 10.83,-124.01 0,-86.44 -29.14,-141.89 -79.52,-175.55 -51.23,-34.2 -124.9,-46.7 -212.65,-46.7l-19.24 -0.06zm-76.82 672.62l-11.56 0.04c-68.41,0 -139.76,-10.5 -203.4,-28.61 -63.71,-18.15 -119.99,-44.04 -158.34,-74.75 -37.58,-30.09 -65.39,-62.09 -86.31,-98.35 -20.87,-36.14 -34.83,-76.41 -44.82,-123.3 -4.24,-19.9 -4.59,-26.2 -5.52,-45.06l-0.51 -9.73c-0.55,-10.36 -1.72,-15.88 -2.78,-21.03 -1.46,-7.06 -2.83,-13.63 -2.83,-28.01 0,-13.82 1.35,-21.13 2.8,-28.93 1.17,-6.34 2.44,-13.12 2.92,-25.29 1.7,-41.98 12.52,-88.7 30.68,-131.73 17.08,-40.47 40.76,-77.89 69.57,-105.3l2.95 -2.67c50.5,-46.66 108.78,-79.59 172.28,-101.18 69.26,-23.55 144.8,-33.73 223.31,-33.73 84.78,0 169.94,0.04 250.57,12.11 81.27,12.19 157.64,36.71 223.84,85.7 26.04,19.27 48.68,42.26 67.82,67.91 54.51,73.03 81.57,168.28 81.6,263.18 0.04,94.88 -26.95,189.71 -80.39,261.92 -18.75,25.32 -40.76,47.92 -65.92,66.71 -134.19,100.21 -297.53,100.16 -465.96,100.1z"/>
   <path class="fil0" d="M18184.27 12429.32c0,55.37 18.46,104.33 52.38,141.33 85.15,92.94 345.68,111.33 470.55,126.71 86.16,10.61 187.33,18.12 187.33,92.47 0,86.31 -195.16,80.71 -263.65,80.71 -119.55,0 -258.5,-38.47 -358.83,-98.53 -15.85,-9.48 -27.88,-20.73 -44.73,-25.23 -7.61,28.51 -77.01,100.53 -86.09,134.52 188.56,126.26 322.94,150.67 554.21,150.67 170.36,0 408.94,-63.57 408.94,-263.66 0,-167.45 -151.41,-199.74 -294.5,-227.44 -67.5,-13.07 -159.54,-22.91 -232.83,-30.83 -93.79,-10.13 -182.93,-20.57 -182.93,-96.86 0,-117.77 456.46,-45.27 521.55,-31.9 28.51,5.85 54.42,14.92 81.1,21.14l53.81 -150.66c-20.25,-1.69 -24.99,-6.2 -41.59,-12.22 -173.05,-62.72 -531.93,-77.9 -693.92,-2.27 -67.77,31.65 -130.8,95.55 -130.8,192.05z"/>
   <path class="fil0" d="M18894.54 12789.83c0,86.31 -195.18,80.7 -263.66,80.7 -119.55,0 -258.5,-38.46 -358.83,-98.52 -15.86,-9.48 -27.88,-20.74 -44.73,-25.23 -7.62,28.5 -77.01,100.53 -86.09,134.51 188.56,126.28 322.94,150.69 554.2,150.69 170.37,0 408.95,-63.57 408.95,-263.68 0,-167.44 -151.41,-199.72 -294.49,-227.44 -67.52,-13.06 -159.55,-22.89 -232.84,-30.82 -93.8,-10.12 -182.93,-20.58 -182.93,-96.86 0,-117.77 456.46,-45.27 521.56,-31.9 28.5,5.85 54.41,14.93 81.08,21.14l53.81 -150.66c-20.24,-1.69 -24.97,-6.2 -41.58,-12.21 -173.05,-62.73 -531.93,-77.91 -693.91,-2.28 -67.79,31.66 -130.8,95.55 -130.8,192.05 0,55.38 18.45,104.32 52.36,141.32 85.16,92.95 345.69,111.33 470.56,126.72 86.17,10.61 187.34,18.12 187.34,92.47zm-705.48 -280.07c-9.13,-24.72 -13.92,-51.8 -13.92,-80.44 0,-46.12 13.83,-85.17 35.59,-117.12 25.64,-37.64 62.38,-65.38 100.5,-83.17 78.18,-36.51 200.94,-52.21 326.83,-51.8 138.94,0.45 282.28,20.5 374.03,53.75l11.83 4.68c8.13,3.4 14.14,5.9 27.4,7l11.86 0.96 -60.53 169.53 -7.95 -1.85c-11.75,-2.74 -23.44,-6.05 -35.25,-9.39 -14.87,-4.22 -30.02,-8.53 -45.6,-11.71 -36.76,-7.55 -199.27,-34.1 -332.85,-34.1 -47.32,0 -90.79,3.35 -123.26,12.01 -30.04,8.04 -50.15,20.35 -53.86,38.42 -0.4,1.96 -0.62,4.22 -0.62,6.65 0,33.49 19.99,52.73 50.48,64.74 32.98,13.01 78.07,18.09 124.28,23.06l4.68 0.51c72.67,7.85 162.51,17.57 228.9,30.42 72.3,14.01 146.78,29.2 203.76,62.38 58.44,34.04 98.16,86.37 98.16,174.01 0,89.92 -46.12,153.3 -112.74,196.25 -86.24,55.6 -207.08,76.56 -305.35,76.56 -116.31,0 -208.42,-6.17 -295.35,-28.28 -87.05,-22.13 -168.7,-60.21 -263.91,-123.97l-5.41 -3.64 1.66 -6.25c5.19,-19.49 26.95,-48.34 47.69,-75.9 18,-23.86 35.26,-46.77 38.41,-58.61l2.35 -8.83 8.77 2.34c13.25,3.53 23.3,10.38 33.9,17.62 4.24,2.88 8.6,5.86 13.19,8.6 49.61,29.69 108.84,54.07 170.36,70.95 61.21,16.81 124.87,26.25 183.79,26.25l11.93 0.08c73.91,0.27 242.59,0.93 242.59,-71.64 0,-61.91 -85.49,-72.16 -164.04,-81.57l-63 -7.36c-135.72,-15.18 -350.66,-39.3 -428.41,-124.1 -17.86,-19.44 -31.64,-42.08 -40.89,-67.04z"/>
   <path class="fil0" d="M13729.98 12370.13l376.65 0c12.4,0 16.14,3.75 16.14,16.15l0 629.54 193.71 0 0 -629.54c0,-12.4 3.74,-16.15 16.14,-16.15l376.65 0 0 -161.42 -979.29 0 0 161.42z"/>
   <path class="fil0" d="M13729.98 12370.13l376.66 0c12.39,0 16.13,3.75 16.13,16.14l0 629.55 193.71 0 0 -629.55c0,-12.39 3.73,-16.14 16.14,-16.14l376.64 0 0 -161.42 -979.28 0 0 161.42zm376.66 9.14l-385.8 0 0 -179.7 997.56 0 0 179.7 -385.78 0c-3.68,0 -5.72,0.22 -6.25,0.75 -0.53,0.53 -0.75,2.59 -0.75,6.25l0 638.69 -211.98 0 0 -638.69c0,-3.66 -0.22,-5.72 -0.75,-6.25 -0.53,-0.53 -2.6,-0.75 -6.25,-0.75z"/>
  </g>
 </g>
</svg>
