<?xml version="1.0" encoding="utf-8"?>
<!-- Generator: Adobe Illustrator 27.6.1, SVG Export Plug-In . SVG Version: 6.00 Build 0)  -->
<svg version="1.1" id="Слой_1" xmlns="http://www.w3.org/2000/svg" xmlns:xlink="http://www.w3.org/1999/xlink" x="0px" y="0px"
	 viewBox="0 0 200 200" style="enable-background:new 0 0 200 200;" xml:space="preserve">
<style type="text/css">
	.st0{fill:#FFFFFF00;}
	.st1{fill:#FFF;}
</style>
<g>
	<path class="st0" d="M100,200L100,200C44.8,200,0,155.2,0,100v0C0,44.8,44.8,0,100,0h0c55.2,0,100,44.8,100,100v0
		C200,155.2,155.2,200,100,200z"/>
	<g>
		<path class="st1" d="M186.1,105.7c0-47.2-38.3-85.4-85.4-85.4s-85.4,38.3-85.4,85.4c0,11,2.1,21.5,5.8,31.1
			c-2.2-7.5-3.4-15.4-3.4-23.7c0-45.7,37.1-82.8,82.8-82.8s82.8,37.1,82.8,82.8c0,10-1.8,19.5-5,28.4
			C183.2,130.7,186.1,118.5,186.1,105.7z"/>
		<path class="st1" d="M118.7,151.1c-26.4,0-47.8-21.4-47.8-47.8c0-26.4,21.4-47.8,47.8-47.8c10.4,0,20.1,3.4,27.9,9
			c-9.6-8.4-22.1-13.5-35.9-13.5c-30.1,0-54.6,24.4-54.6,54.6s24.4,54.6,54.6,54.6c25.1,0,46.2-16.9,52.6-40
			C156.5,138.3,139.1,151.1,118.7,151.1z"/>
		<path class="st1" d="M45.3,108.1c0-35.2,28.5-63.7,63.7-63.7c11.9,0,23.1,3.3,32.7,9c-11.3-8.4-25.4-13.3-40.5-13.3
			c-37.7,0-68.3,30.6-68.3,68.3s30.6,68.3,68.3,68.3c17.1,0,32.8-6.3,44.8-16.7c-10.4,7.4-23.1,11.8-36.9,11.8
			C73.8,171.8,45.3,143.3,45.3,108.1z"/>
		<path class="st1" d="M136.1,68.6c0,0,11.3,8.5,2,21.4s-30.5,23.8-38.7,30.7c-8.6,7.2-5.5,14-1.2,16.2c0,0-1.8-2.8,17.5-14.1
			c19.3-11.3,28.4-20.1,32.3-31.6C151.8,79.7,143.3,71.3,136.1,68.6z"/>
		<path class="st1" d="M132.7,120.6c-16.6,11.5-21.5,12.7-24.1,16.8c-2.6,4.1,9.8,5.1,9.8,5.1s-5-2.3,7.7-9.5
			c15.6-8.8,38.6-25.9,27.9-45.7C154.1,87.3,158.3,102.8,132.7,120.6z"/>
		<path class="st1" d="M124.9,142c14.6-2.4,26.4-12.8,30.8-26.6c-0.2,0.4-8.1,13.2-25.3,21.5C124.2,139.8,123.4,141.3,124.9,142z"/>
		<path class="st1" d="M115.2,64.5c-12.9,1.1-24,8.4-30.3,18.9c1.5-2.6,8.8-7.7,18-10.6C112,69.8,115.1,64.6,115.2,64.5z"/>
		<path class="st1" d="M93.6,113.4c3.8-3.1,9.1-6.9,16.6-11.3c23-13.4,29.4-30.4,16.9-36.9c0,0,5.5,7.7-7.5,18.2
			c-16.6,13.4-37.4,21-36.8,33.3l0,0c0,0.1,0,0.2,0,0.3c0,0.2,0,0.5,0.1,0.7c0,0.3,0.1,0.6,0.1,0.9c0,0,0,0.1,0,0.1
			c1.1,5.5,4.4,6.9,4.4,6.9S83.8,121.6,93.6,113.4z"/>
		<path class="st1" d="M85.7,95.5c0.8-0.6,1.7-1.3,2.7-2c0.6-0.4,1.1-0.7,1.5-1.1c3.3-2.3,7.5-4.8,12.7-7.4
			c15.8-8,21.2-15.3,17.2-20.6c0,0,1.2,7.6-22.4,17.5C85.3,87,81.7,90.5,80.3,95.1l0,0c0,0,0,0,0,0.1c-0.1,0.3-0.2,0.5-0.2,0.8
			c0,0.1,0,0.2,0,0.2c-0.1,0.3-0.1,0.5-0.2,0.8c0,0,0,0.1,0,0.1c-0.6,4.4,1.3,7.3,1.3,7.3S80.6,100,85.7,95.5z"/>
	</g>
</g>
</svg>
