<?xml version="1.0" encoding="utf-8"?>
<!-- Generator: Adobe Illustrator 27.6.1, SVG Export Plug-In . SVG Version: 6.00 Build 0)  -->
<svg version="1.1" id="Слой_3" xmlns="http://www.w3.org/2000/svg" xmlns:xlink="http://www.w3.org/1999/xlink" x="0px" y="0px"
	 viewBox="0 0 283.5 260.8" style="enable-background:new 0 0 283.5 260.8;" xml:space="preserve">
<style type="text/css">
	.st0{fill:#006867;}
	.st1{fill:#666666;}
</style>
<g>
	<g>
		<path class="st0" d="M69.3,232.8c-3-3-4.5-7.3-4.5-12.9v-21.3h8.8v21c0,6.8,2.8,10.2,8.5,10.2c2.8,0,4.9-0.8,6.3-2.5
			c1.5-1.7,2.2-4.2,2.2-7.8v-21h8.7v21.3c0,5.6-1.5,9.9-4.5,12.9c-3,3-7.3,4.5-12.7,4.5C76.6,237.3,72.3,235.8,69.3,232.8z"/>
		<path class="st0" d="M124.8,236.1c-2.8-0.8-5.1-1.9-6.8-3.2l3-6.6c1.6,1.2,3.6,2.2,5.8,2.9c2.3,0.7,4.5,1.1,6.8,1.1
			c2.5,0,4.4-0.4,5.6-1.1c1.2-0.7,1.8-1.7,1.8-3c0-0.9-0.4-1.7-1.1-2.3c-0.7-0.6-1.6-1.1-2.7-1.4c-1.1-0.4-2.6-0.8-4.5-1.2
			c-2.9-0.7-5.3-1.4-7.1-2.1c-1.9-0.7-3.4-1.8-4.8-3.3c-1.3-1.5-2-3.6-2-6.1c0-2.2,0.6-4.2,1.8-6c1.2-1.8,3-3.2,5.4-4.3
			c2.4-1.1,5.4-1.6,8.8-1.6c2.4,0,4.8,0.3,7.1,0.9c2.3,0.6,4.4,1.4,6.1,2.5l-2.7,6.7c-3.5-2-7-3-10.6-3c-2.5,0-4.3,0.4-5.5,1.2
			c-1.2,0.8-1.8,1.9-1.8,3.2c0,1.3,0.7,2.3,2,2.9c1.4,0.6,3.4,1.3,6.2,1.9c2.9,0.7,5.3,1.4,7.1,2.1c1.9,0.7,3.4,1.8,4.8,3.3
			c1.3,1.5,2,3.5,2,6c0,2.2-0.6,4.2-1.8,6c-1.2,1.8-3,3.2-5.5,4.3c-2.4,1.1-5.4,1.6-8.9,1.6C130.6,237.3,127.6,236.9,124.8,236.1z"
			/>
		<path class="st0" d="M223.6,198.6h8.8v38.1h-8.8V198.6z"/>
		<path class="st0" d="M262.4,205.7h-12.2v-7.2h33.2v7.2h-12.2v30.9h-8.8V205.7z"/>
	</g>
	<g>
		<path class="st1" d="M45.8,249.3h-4.4v-1.6h10.7v1.6h-4.4v11.4h-1.8V249.3z"/>
		<path class="st1" d="M68,259v1.6h-9.4v-13h9.2v1.6h-7.3v4h6.5v1.6h-6.5v4.2H68z"/>
		<path class="st1" d="M77.7,259.9c-1-0.6-1.9-1.4-2.5-2.4c-0.6-1-0.9-2.1-0.9-3.4s0.3-2.4,0.9-3.4c0.6-1,1.4-1.8,2.5-2.4
			c1-0.6,2.2-0.9,3.5-0.9c1,0,1.9,0.2,2.8,0.5c0.8,0.3,1.6,0.8,2.2,1.5l-1.2,1.2c-1-1-2.2-1.5-3.7-1.5c-1,0-1.8,0.2-2.6,0.6
			c-0.8,0.4-1.4,1-1.8,1.8c-0.4,0.8-0.7,1.6-0.7,2.5s0.2,1.8,0.7,2.5c0.4,0.8,1,1.4,1.8,1.8c0.8,0.4,1.6,0.6,2.6,0.6
			c1.4,0,2.7-0.5,3.7-1.6l1.2,1.2c-0.6,0.7-1.3,1.2-2.2,1.5c-0.8,0.3-1.8,0.5-2.8,0.5C79.9,260.8,78.7,260.5,77.7,259.9z"/>
		<path class="st1" d="M104.4,247.7v13h-1.9v-5.8h-7.5v5.8h-1.9v-13h1.9v5.6h7.5v-5.6H104.4z"/>
		<path class="st1" d="M123.9,247.7v13h-1.5l-7.8-9.7v9.7h-1.9v-13h1.5l7.8,9.7v-9.7H123.9z"/>
		<path class="st1" d="M134.5,259.9c-1.1-0.6-1.9-1.4-2.5-2.4c-0.6-1-0.9-2.1-0.9-3.4s0.3-2.4,0.9-3.4c0.6-1,1.4-1.8,2.5-2.4
			c1-0.6,2.2-0.9,3.5-0.9c1.3,0,2.5,0.3,3.5,0.9c1.1,0.6,1.9,1.4,2.5,2.4c0.6,1,0.9,2.1,0.9,3.4s-0.3,2.4-0.9,3.4
			c-0.6,1-1.4,1.8-2.5,2.4c-1.1,0.6-2.2,0.9-3.5,0.9C136.8,260.8,135.6,260.5,134.5,259.9z M140.6,258.5c0.8-0.4,1.4-1,1.8-1.8
			c0.4-0.8,0.7-1.6,0.7-2.5s-0.2-1.8-0.7-2.5c-0.4-0.8-1-1.4-1.8-1.8c-0.8-0.4-1.6-0.6-2.6-0.6s-1.8,0.2-2.6,0.6s-1.4,1-1.8,1.8
			c-0.4,0.8-0.7,1.6-0.7,2.5s0.2,1.8,0.7,2.5c0.4,0.8,1,1.4,1.8,1.8c0.8,0.4,1.6,0.6,2.6,0.6S139.9,258.9,140.6,258.5z"/>
		<path class="st1" d="M152.2,247.7h1.9V259h7v1.6h-8.9V247.7z"/>
		<path class="st1" d="M169.8,259.9c-1.1-0.6-1.9-1.4-2.5-2.4c-0.6-1-0.9-2.1-0.9-3.4s0.3-2.4,0.9-3.4c0.6-1,1.4-1.8,2.5-2.4
			c1-0.6,2.2-0.9,3.5-0.9c1.3,0,2.5,0.3,3.5,0.9c1.1,0.6,1.9,1.4,2.5,2.4c0.6,1,0.9,2.1,0.9,3.4s-0.3,2.4-0.9,3.4
			c-0.6,1-1.4,1.8-2.5,2.4c-1.1,0.6-2.2,0.9-3.5,0.9C172,260.8,170.8,260.5,169.8,259.9z M175.9,258.5c0.8-0.4,1.4-1,1.8-1.8
			c0.4-0.8,0.7-1.6,0.7-2.5s-0.2-1.8-0.7-2.5c-0.4-0.8-1-1.4-1.8-1.8c-0.8-0.4-1.6-0.6-2.6-0.6c-1,0-1.8,0.2-2.6,0.6
			c-0.8,0.4-1.4,1-1.8,1.8c-0.4,0.8-0.7,1.6-0.7,2.5s0.2,1.8,0.7,2.5c0.4,0.8,1,1.4,1.8,1.8c0.8,0.4,1.6,0.6,2.6,0.6
			C174.3,259.2,175.1,258.9,175.9,258.5z"/>
		<path class="st1" d="M196.5,254.1h1.8v5.1c-0.6,0.5-1.4,0.9-2.2,1.2c-0.9,0.3-1.7,0.4-2.7,0.4c-1.3,0-2.5-0.3-3.5-0.9
			c-1.1-0.6-1.9-1.4-2.5-2.4c-0.6-1-0.9-2.1-0.9-3.4s0.3-2.4,0.9-3.4c0.6-1,1.4-1.8,2.5-2.4c1.1-0.6,2.2-0.9,3.6-0.9
			c1,0,2,0.2,2.8,0.5c0.8,0.3,1.6,0.8,2.2,1.5l-1.1,1.1c-1-1-2.3-1.5-3.8-1.5c-1,0-1.9,0.2-2.7,0.6c-0.8,0.4-1.4,1-1.8,1.8
			c-0.4,0.8-0.7,1.6-0.7,2.6c0,0.9,0.2,1.8,0.7,2.5c0.4,0.8,1.1,1.4,1.8,1.8c0.8,0.4,1.7,0.6,2.6,0.6c1.2,0,2.2-0.3,3-0.8V254.1z"/>
		<path class="st1" d="M206.2,247.7h1.9v13h-1.9V247.7z"/>
		<path class="st1" d="M225.8,259v1.6h-9.4v-13h9.2v1.6h-7.3v4h6.5v1.6h-6.5v4.2H225.8z"/>
		<path class="st1" d="M234.3,260.3c-0.9-0.3-1.6-0.7-2.1-1.2l0.7-1.4c0.5,0.4,1.1,0.8,1.9,1.1c0.8,0.3,1.6,0.4,2.4,0.4
			c1.1,0,1.9-0.2,2.4-0.5c0.5-0.4,0.8-0.8,0.8-1.5c0-0.4-0.1-0.8-0.4-1.1c-0.3-0.3-0.6-0.5-1.1-0.6c-0.4-0.1-1-0.3-1.8-0.5
			c-1-0.2-1.8-0.5-2.4-0.7c-0.6-0.2-1.1-0.6-1.5-1.1c-0.4-0.5-0.6-1.1-0.6-2c0-0.7,0.2-1.3,0.5-1.9c0.4-0.6,0.9-1,1.7-1.3
			c0.7-0.3,1.7-0.5,2.8-0.5c0.8,0,1.5,0.1,2.3,0.3c0.7,0.2,1.4,0.5,1.9,0.9l-0.6,1.5c-0.5-0.3-1.1-0.6-1.7-0.8
			c-0.6-0.2-1.2-0.3-1.8-0.3c-1,0-1.8,0.2-2.4,0.6c-0.5,0.4-0.8,0.9-0.8,1.5c0,0.4,0.1,0.8,0.4,1.1c0.3,0.3,0.7,0.5,1.1,0.6
			c0.4,0.2,1,0.3,1.8,0.5c1,0.2,1.8,0.5,2.4,0.7c0.6,0.2,1.1,0.6,1.5,1.1c0.4,0.5,0.6,1.1,0.6,1.9c0,0.7-0.2,1.3-0.6,1.9
			c-0.4,0.6-0.9,1-1.7,1.3c-0.8,0.3-1.7,0.5-2.8,0.5C236.1,260.8,235.2,260.7,234.3,260.3z"/>
	</g>
	<g>
		<g>
			<path class="st0" d="M141.5,11.1c50.3,0,91,40.7,91,91c0,11-1.9,21.5-5.5,31.2c5.6-12,8.7-25.3,8.7-39.4
				c0-51.9-42-93.9-93.9-93.9S47.8,42,47.8,93.9c0,12.1,2.3,23.6,6.4,34.2c-2.5-8.2-3.8-17-3.8-26C50.5,51.9,91.2,11.1,141.5,11.1z"
				/>
		</g>
		<path class="st0" d="M161.6,143.8c-29,0-52.5-23.5-52.5-52.5c0-29,23.5-52.5,52.5-52.5c11.5,0,22.1,3.7,30.7,9.9
			c-10.5-9.2-24.3-14.8-39.4-14.8c-33.1,0-60,26.9-60,60s26.9,60,60,60c27.6,0,50.8-18.6,57.8-43.9
			C203.2,129.7,184,143.8,161.6,143.8z"/>
		<path class="st0" d="M150.9,166.5c-38.6,0-70-31.3-70-70s31.3-70,70-70c13.1,0,25.4,3.6,35.9,9.9c-12.5-9.2-27.9-14.7-44.6-14.7
			c-41.5,0-75.1,33.6-75.1,75.1c0,41.5,33.6,75.1,75.1,75.1c18.8,0,36-6.9,49.2-18.4C180,161.7,166,166.5,150.9,166.5z"/>
	</g>
	<g>
		<rect x="248.8" y="253.2" class="st1" width="34.6" height="1.9"/>
		<rect x="0" y="253.2" class="st1" width="34.6" height="1.9"/>
	</g>
	<g>
		<polygon class="st0" points="43,202.9 43,198.6 35.6,198.6 21.6,222.8 7.3,198.6 0,198.6 0,236.7 8.3,236.7 8.3,217.8 19.4,236.7 
			23.4,236.7 		"/>
		<polygon class="st0" points="34.7,229 34.7,236.7 43,236.7 43,214.7 		"/>
	</g>
	<polygon class="st0" points="189.5,198.6 180.8,198.6 163.8,236.7 172.9,236.7 185.1,207.2 191.2,221.8 185.7,221.8 182.9,228.5 
		193.9,228.5 197.3,236.7 206.6,236.7 	"/>
	<g>
		<path class="st0" d="M158.3,112.6c21.2-12.4,31.2-22.1,35.5-34.7c4.3-12.6-5.1-21.8-13-24.8c0,0,12.4,9.3,2.2,23.5
			c-10.3,14.2-33.6,26.2-42.6,33.7c-9.5,8-6,15.4-1.3,17.9C139,128.1,137.1,125,158.3,112.6z"/>
		<path class="st0" d="M169.8,123.9c17.2-9.7,42.5-28.5,30.7-50.2c0,0,4.6,17.1-23.4,36.6c-18.2,12.7-23.6,13.9-26.5,18.4
			c-2.9,4.5,10.8,5.6,10.8,5.6S155.8,131.8,169.8,123.9z"/>
		<path class="st0" d="M174.4,128.1c-6.7,3.2-7.6,4.9-6,5.6c16-2.6,29-14.1,33.9-29.2C202,105,193.3,119,174.4,128.1z"/>
		<path class="st0" d="M144.2,57.7c10.1-3.2,13.5-9,13.6-9.1c-14.2,1.2-26.4,9.2-33.3,20.8C126.1,66.6,134.1,60.9,144.2,57.7z"/>
		<path class="st0" d="M134,102.4c4.1-3.4,10-7.5,18.2-12.4c25.2-14.8,32.3-33.4,18.5-40.6c0,0,6.1,8.4-8.2,20
			c-18.2,14.8-41.1,23-40.5,36.6l0,0c0,0.1,0,0.2,0,0.3c0,0.3,0.1,0.5,0.1,0.8c0,0.3,0.1,0.6,0.2,1c0,0,0,0.1,0,0.1
			c1.2,6,4.9,7.6,4.9,7.6S123.3,111.3,134,102.4z"/>
		<path class="st0" d="M125.4,82.6c0.9-0.7,1.9-1.4,3-2.2c0.7-0.4,1.2-0.8,1.7-1.2c3.6-2.5,8.2-5.3,14-8.2
			c17.4-8.8,23.3-16.8,18.9-22.6c0,0,1.3,8.3-24.6,19.3c-13.3,5.6-17.4,9.4-18.9,14.5l0,0c0,0,0,0,0,0.1c-0.1,0.3-0.2,0.6-0.2,0.9
			c0,0.1,0,0.2-0.1,0.2c-0.1,0.3-0.1,0.6-0.2,0.8c0,0,0,0.1,0,0.1c-0.7,4.8,1.4,8,1.4,8S119.7,87.6,125.4,82.6z"/>
	</g>
</g>
</svg>
