<?xml version="1.0" encoding="UTF-8"?>
<!DOCTYPE svg PUBLIC "-//W3C//DTD SVG 1.1//EN" "http://www.w3.org/Graphics/SVG/1.1/DTD/svg11.dtd">
<!-- Creator: CorelDRAW -->
<svg xmlns="http://www.w3.org/2000/svg" xml:space="preserve" width="297mm" height="210mm" version="1.1" style="shape-rendering:geometricPrecision; text-rendering:geometricPrecision; image-rendering:optimizeQuality; fill-rule:evenodd; clip-rule:evenodd"
viewBox="0 0 29700 21000"
 xmlns:xlink="http://www.w3.org/1999/xlink"
 xmlns:xodm="http://www.corel.com/coreldraw/odm/2003">
 <defs>
  <style type="text/css">
   <![CDATA[
    .fil0 {fill:#EC6867}
    .fil1 {fill:#282445}
   ]]>
  </style>
 </defs>
 <g id="Слой_x0020_1">
  <metadata id="CorelCorpID_0Corel-Layer"/>
  <g id="_2197659301376">
   <path class="fil0" d="M2063.85 9509.55c83.25,-22.23 130.77,-93.4 376.63,-112.36 385.33,-29.7 1049.13,365.87 1402.35,542.49 482.66,241.35 701.89,391.03 1270.7,391.03 116.3,0 147.17,-36.72 254.15,-39.1 -51.53,221.17 -1219.48,3551.26 -1385.52,4049.66 -63.06,189.29 -153.79,394.35 -197.98,584.06l-539.79 -1669.47c-40.03,-120.41 -76.67,-215.92 -112.38,-337.29l-215.34 -684.02c-153.3,-455.91 -279.86,-889.86 -429.86,-1349.26 -48.77,-149.35 -422.96,-1242.37 -422.96,-1375.74zm351.89 -1427.27c0,-269.16 287.08,-391.03 449.63,-391.03 107.99,0 438.65,144.71 564.44,198.01 62.68,26.55 112.5,62.81 178.43,95.27 334.84,164.86 404.55,273.72 860.17,273.72 147.69,0 284.93,-45.03 403.52,-85.22 120.22,-40.75 232.3,-129.84 358.9,-129.84 141.69,0 355.45,139.34 424.79,220.35 433.39,506.22 148.8,1187.35 -385.69,1187.35 -542.96,0 -1486.24,-882.75 -2046.7,-1120.41 -512.55,-217.34 -807.49,-69.76 -807.49,-248.2zm2053.06 -1638.4l-0.39 74.28c164.06,38.22 213.66,-9.18 351.75,78.34 324.73,205.84 182.64,704.78 -219.68,738.53 -159.43,13.37 -414.2,-136.5 -535.94,-197.88 -207.8,-104.75 -873.99,-403.92 -1101.43,-403.92l-136.84 0c-441.93,0 -903.04,458.2 -793.44,1008.54 37.45,188.03 131.57,302.06 167.87,457.83 -197.45,94.75 -369.58,84.97 -611.49,326.91 -322.18,322.21 -380.02,902.63 -166.74,1292.11 209.58,382.7 207.57,151.33 321.06,500.07l730.86 2280c38.87,142.19 91.8,278.26 134.53,412.9 105.93,333.8 737.88,2370.75 806.68,2477.87 182.14,283.56 614.75,273.66 765.64,-88.82l1951.33 -5751.76c134.56,-406.16 211.46,-672.15 -8.71,-1110.67 -152.85,-304.44 -430.89,-527.43 -795.28,-612.34 89.34,-383.56 348.65,-819.19 -82.91,-1246.59 -72.62,-71.92 -108.42,-114.75 -203.73,-167.72 -225.32,-125.25 -330.1,-88.56 -573.14,-67.68z"/>
   <path class="fil1" d="M7772.23 8258.25c0,320.93 309.87,633.26 551.01,797.98 432.6,295.52 1208.42,582.56 1208.42,1078.97 0,916.85 -1075.2,700.05 -1075.2,175.96 0,-360.59 195.49,-420.06 195.49,-586.54 0,-203.09 -513.92,-566 -904.83,-161.98 -406.95,420.61 -6.85,1432.82 1237.16,1432.82 1029.12,0 1779.71,-697.7 1423.92,-1443.63 -175.24,-367.43 -974.28,-833.25 -1312.86,-1033.17 -802.51,-473.87 -280.23,-944.71 -13.31,-944.71 132.27,0 235.89,-1.93 333.18,77.36 284.27,231.69 -39.94,392.66 -39.94,528.73 0,352.36 899.26,526.63 899.26,-117.3 0,-298.72 -449.57,-595.87 -763.58,-663.59 -444.48,-95.86 -949.21,-76.13 -1329.57,153.87 -227.56,137.6 -409.15,343.28 -409.15,705.23z"/>
   <path class="fil1" d="M17527.31 9470.44c0,-311.66 -34.66,-645.2 351.88,-645.2 400.05,0 527.83,1009.3 527.83,1427.27 0,297.23 -101.39,430.13 -351.89,430.13 -332.15,0 -527.82,-916.26 -527.82,-1212.2zm-39.1 -703.85c-42.52,-182.54 -127.55,-215.07 -273.69,-215.07 -201.08,0 -879.72,188.32 -879.72,332.38 0,280.89 351.89,43.15 351.89,547.44l0 1935.61c0,307.89 -332.34,316.47 -332.34,586.54 0,45.77 32.44,78.21 78.2,78.21l1329.35 0c254.89,0 -182.78,-442.24 -216.14,-526.8 -52.97,-134.28 -18.45,-557.33 -18.45,-744.05 76.01,20.3 37.3,22.23 99.08,57.31 26.74,15.2 74.98,33.81 110.1,46.31 544.46,193.66 1204.96,-144.45 1369.78,-831.56 99.21,-413.61 -16.03,-763.96 -194.43,-1028.24 -254.99,-377.78 -694.51,-570.09 -1177.47,-402.47 -144.97,50.32 -148.27,98.84 -246.16,164.39z"/>
   <path class="fil1" d="M11799.38 10975.91c185.09,0 354.17,-4.56 509.01,-116.58 76.96,-55.68 204.51,-176.2 214.31,-294l39.09 0c19.39,83.22 97.6,207.33 153.11,257.46 177.71,160.45 510.39,114.03 804.81,114.03 139.4,0 117.3,-76.72 117.3,-175.97 0,-60.91 -156.68,-184.26 -195.68,-234.43 -94.47,-121.5 -119.22,-110.98 -117.4,-332.28l19.84 -1290.69c0,-336.27 -198.44,-351.93 -469.19,-351.93 -213.46,0 -703.77,18.22 -703.77,195.52 0,166.72 332.34,243.36 332.34,566.99 0,344.85 23.7,952.71 -164.58,1164.91 -167.25,188.49 -502.53,115.24 -554.47,-250.26 -113.39,-798.19 252.52,-1677.16 -375.71,-1677.16 -1333.29,0 -648.51,328.94 -520.61,598.89 169.27,357.23 -178.2,1323.7 494.59,1695.11 102.44,56.56 269.31,130.39 417.01,130.39z"/>
   <path class="fil1" d="M25014.67 10506.68c0,408.66 -821.07,394.39 -821.07,39.1 0,-173.17 354,-355.75 -75.11,-511.43 -578.15,-209.76 -972.8,471.67 -257.48,804.96 790.03,368.09 2379.05,4.16 1916.71,-900.25 -114.34,-223.67 -378.26,-346.86 -587.94,-467.78 -145.2,-83.74 -299.84,-150.81 -445.02,-239.23 -121,-73.69 -375.22,-153.6 -375.22,-328.6 0,-266.28 684.23,-293.37 684.23,-39.1 0,79.7 -117.3,96.26 -117.3,175.96 0,268.25 742.88,327.31 742.88,-19.55 0,-186.87 -148.52,-306.76 -273.12,-372.06 -563.43,-295.25 -1796.24,-135.52 -1815.74,530.3 -7.84,268.09 271.86,498.33 472.36,617.73 122.29,72.83 231.77,120.13 354.05,193.36 121.9,73 381.88,181.38 505.68,315.41 31.92,34.57 92.09,148.22 92.09,201.18z"/>
   <path class="fil1" d="M26930.5 9744.17c-31.11,-133.54 -58.65,-241.98 -58.65,-410.58 0,-217.06 73.1,-527.9 273.69,-527.9 171.49,0 208.08,15.03 327.31,181 114.12,158.86 207.77,341.53 62.94,502.57 -88.25,98.13 -391.38,152.25 -605.29,254.91zm-938.36 -19.55c0,362.96 97.35,715.37 356.33,953.57 435.21,400.29 1214.53,455.81 1680.1,85.97 297.34,-236.2 538.93,-863.58 231.28,-863.58 -92.5,0 -80.09,112.57 -98.75,194.52 -81.12,356.47 -597.16,521.14 -942.68,201.83 -71.79,-66.36 -204.63,-270.98 -229.28,-376.8 78.61,-6.54 280.13,-80.9 357.62,-111.58 122.94,-48.67 237.57,-83.67 363.22,-125.53 179.15,-59.68 588.97,-166.86 588.97,-388.54 0,-313.08 -501.4,-723.41 -957.92,-723.41 -404.62,0 -729.2,96.05 -972.96,336.88 -183.24,181.02 -375.93,461.62 -375.93,816.67z"/>
   <path class="fil1" d="M15025 8805.69c-143.96,-272.09 -76.12,-306.47 -547.45,-176.03 -137.32,38 -566.85,174.38 -566.85,312.9 0,268.53 332.34,81.33 332.34,508.33l0 801.62c0,254.06 -332.34,387.62 -332.34,527.89 0,91.27 45.58,136.86 136.84,136.86 263.4,0 1134.9,25.75 1329.35,-19.55 12.55,-52.43 19.55,-36.85 19.55,-78.21 0,-171.51 -312.79,-298.87 -312.79,-547.44 0,-378.05 -72.74,-1339.49 246.53,-1513.14 113.56,-61.76 279.92,-71.73 325.45,62.83 54.29,160.43 -236.59,407.38 28.95,575.59 225.94,143.12 630.67,95.13 630.67,-357.03 0,-279.77 -321.51,-508.34 -606.03,-508.34 -543.5,0 -528.73,159.79 -684.22,273.72z"/>
   <path class="fil1" d="M20381.5 8805.69c-46.46,-96.84 -76.63,-230.92 -199.56,-250.55 -46.46,-7.41 -914.75,165.47 -914.75,426.52 0,152.16 332.34,107.79 332.34,430.13l0 879.82c0,260.78 -425.54,330.34 -293.24,606.1 194.46,45.3 1065.95,19.55 1329.35,19.55 89.03,0 117.29,-29.08 117.29,-97.76 0,-164.3 -312.78,-326.6 -312.78,-527.89 0,-417.39 -101.89,-1523.97 378.03,-1576.24 110.85,-12.08 208.44,51.98 208.44,168.53 0,125.61 -231.23,334.64 15.56,512.34 264.38,190.38 760.63,0.02 613.36,-476.46 -62.19,-201.22 -329.58,-387.81 -589.82,-387.81 -532.88,0 -457.47,121.86 -684.22,273.72z"/>
   <path class="fil1" d="M21867.24 8883.9c0,144.24 73.05,143.21 176.55,194.91 75.74,37.84 155.79,105.45 155.79,215.67l0 1016.68c0,66.27 -20.76,82.51 -52.06,123.9 -204.4,270.31 -260.73,160.99 -260.73,403.99 0,60.11 57.27,78.21 117.3,78.21l1231.6 0c118.09,0 117.3,-53.01 117.3,-117.31 0,-91.84 -73.21,-139.95 -125.55,-206.81 -249.72,-319.01 -187.24,-258.04 -187.24,-868.52 0,-234.59 -1.1,-469.44 0.12,-703.99 0.65,-122.43 -4.6,-232.65 -35.91,-316 -108.71,-289.34 -573.9,-102.99 -753.65,-43.26 -101.56,33.75 -383.52,120.35 -383.52,222.53z"/>
   <path class="fil1" d="M19188.99 13185.24c-5.75,-258.1 -181.34,-190.55 -305.67,-149.32 -550.96,182.75 -300.19,248.88 -209.85,312.97 103.18,73.2 65.89,382.88 65.89,579.31 0,74.68 -61.37,147.9 -102.7,190.67 -91.92,95.12 -84.2,49.14 -73.24,180.81 228.42,0 457.04,-2.27 685.4,1.13 366.76,5.46 -20.73,-184.6 -20.73,-353.06 0,-212.45 -43.33,-610.59 105.96,-734.75 8.93,-7.43 87.47,-47.31 89.54,-47.31 300.19,0 273.69,496.66 273.69,762.51 0,159.86 -394.51,378.55 -20.7,372.62l665.82 -1.14c56.9,-244.26 -195.49,-50.31 -195.49,-782.06 0,-342.32 322.45,-474.71 407.42,-153.3 31.09,117.63 104.32,545.29 63.37,643.45 -51.62,123.74 -343.23,298.46 -2.75,293.05l665.81 -1.14c55.48,-238.12 -78.8,-10.08 -177.58,-506.7 -36.08,-181.41 -65.94,-433.71 -140.9,-582.49 -117.17,-232.59 -466.14,-352.74 -729.78,-154.71 -108.36,81.4 -90.47,153.94 -163.79,207.67 -68.49,-294.04 -561.08,-415.59 -787.76,-181.75 -37.06,38.23 -52.69,74.77 -91.96,103.54z"/>
   <path class="fil1" d="M17038.58 13224.34c0,321.44 391.91,246.44 420.48,92.27 24.65,-133.04 -173.57,-248.68 68.25,-248.68 73.58,0 130.53,111.03 148.53,183.82 20.03,80.99 46.96,202.38 46.96,285.42 -200.11,-46.63 -414.03,-76.8 -606.93,57.75 -362.29,252.67 -137.58,724.31 294.14,724.31 42.56,0 186.38,-34.72 221.71,-51.99 62.19,-30.38 112.31,-76.6 130.18,-143.53 -100.54,-48.24 -332.34,15.09 -332.34,-273.72 0,-142.42 51.95,-195.51 156.4,-195.51 273.14,0 112.3,664.75 547.37,664.75 93.64,0 273.69,-29.56 273.69,-136.86 0,-76.26 -67.59,-41.12 -124.96,-226.95 -124.45,-403.17 -9.15,-790.21 -472.88,-954.32 -60.35,-21.36 -246.76,-53.87 -317.74,-48.52 -175.23,13.21 -452.86,89.48 -452.86,271.76z"/>
   <path class="fil1" d="M10841.46 13107.04c115.74,0 234.6,151.81 234.6,293.27 0,124.31 -91.65,133.87 -287.14,205.48 -64.49,23.62 -76.21,41.58 -96.48,-16.24 -52.25,-149.07 -16.56,-482.51 149.02,-482.51zm-19.54 1251.29c209.61,0 369.95,-7.96 523.46,-160.78 282.08,-280.81 211.39,-505.14 113.12,-472.4 -108.17,36.04 -5.67,320.36 -362.89,320.36 -211.67,0 -289.26,-174.89 -351.89,-293.27 50.79,-24.38 146.5,-55.98 198.31,-75.39 288.91,-108.24 838.37,-183.77 352.46,-573.2 -473.63,-379.59 -1342.73,80.49 -1086.81,813.2 89.05,254.95 338.81,441.48 614.24,441.48z"/>
   <path class="fil1" d="M15924.27 13419.86c0,-352.17 223.6,-385.93 332.29,-215.03 164.84,259.17 65.96,313.23 -238.88,411.06 -13.57,4.35 -93.41,90.67 -93.41,-196.03zm-508.29 234.62c0,412.45 316.72,703.85 664.68,703.85 339.34,0 596.08,-105.82 696.88,-438.09 21.67,-71.45 42.45,-137.75 -20,-180.75 -79.19,-54.49 -98.35,45.73 -110.87,90.04 -99.19,351.22 -570.12,240.76 -644.21,-77.29 264.92,-140.2 1087.19,-197.19 561.54,-639.81 -256.67,-216.13 -692.39,-180.08 -928.31,57.92 -121.8,122.87 -219.71,245.48 -219.71,484.13z"/>
   <path class="fil1" d="M8691.05 13595.83l0 136.85c0,549.17 754.91,802.48 1148.27,483.65 257.36,-208.6 238.76,-577.79 103.56,-484.29 -51.5,35.61 -29.55,77.39 -53.74,143.08 -73.37,199.11 -407.78,258.67 -572.24,-5.86 -176.2,-283.44 -164.5,-767.14 104.74,-795.38 197.04,-20.67 70.92,211.08 70.92,287.33 0,234 488.73,308.01 488.73,-39.11 0,-185.31 -266.11,-351.93 -469.18,-351.93 -268.65,0 -398.46,-3.48 -601.35,200.19 -94.89,95.26 -219.71,244.86 -219.71,425.47z"/>
   <path class="fil1" d="M12542.25 13654.48c0,804.3 1108.84,943.32 1332.35,296 21.21,-61.39 72.06,-217.8 -42.1,-217.8 -122.71,0 5.57,312.83 -390.99,312.83 -411.43,0 -558.45,-977.58 -117.29,-977.58 16.15,0 78.2,62.05 78.2,78.21 0,134.77 -77.23,161.88 -39.2,272.01 59.71,172.94 379.35,199.61 460.52,11.54 98.65,-228.54 -209.3,-459.52 -421.32,-459.52l-175.95 0c-353.71,0 -684.22,330.56 -684.22,684.31z"/>
   <path class="fil1" d="M14634.02 13107.04c-17.9,-215.06 -231.97,-135.88 -416.67,-64.8 -73.47,28.27 -208.91,77.6 -208.91,162.55 0,130.47 195.5,16.28 195.5,332.38l0 371.48c0,183.65 -428.4,398.33 -40.25,392.17l685.37 -1.14c38.59,-182.25 -175.94,-167.88 -175.94,-410.59 0,-152.7 -30.43,-821.16 195.49,-821.16 253.78,0 78.19,141.24 78.19,254.17 0,211.3 430.09,220.88 430.09,-19.55 0,-271.51 -158.17,-351.93 -430.09,-351.93 -174.27,0 -217.86,92.84 -312.78,156.42z"/>
   <path class="fil0" d="M3842.83 6400.85c121.03,0 281.81,-67.39 376.69,-151.15 305.85,-270.01 203.86,-924.18 -415.79,-924.18 -512.68,0 -721.9,791.36 -182.57,1023.32 41.3,17.76 174.35,52.01 221.67,52.01z"/>
   <path class="fil1" d="M7772.23 13165.69c0,102.31 175.95,84.39 175.95,195.52l0 586.54c0,157.77 -175.95,161.83 -175.95,293.28 0,45.04 13.6,58.65 58.65,58.65l781.97 0c0,-225.65 -166.18,-161.9 -176.64,-409.89 -8.1,-192.48 -0.31,-411.88 0.83,-606.92 1.4,-239.85 -18.41,-363.81 -252.65,-312.12 -101.91,22.49 -412.16,92.17 -412.16,194.94z"/>
   <path class="fil1" d="M22043.18 7945.42c0,339.29 528.39,560.24 871.83,324.49 142.18,-97.58 247.58,-265.12 167.54,-464.48 -167.04,-416.05 -1039.37,-339.94 -1039.37,139.99z"/>
   <path class="fil1" d="M7869.98 12598.69c0,363.87 606.03,336.49 606.03,19.56 0,-327.75 -606.03,-292.93 -606.03,-19.56z"/>
  </g>
 </g>
</svg>
