<?xml version="1.0" encoding="UTF-8"?>
<!DOCTYPE svg PUBLIC "-//W3C//DTD SVG 1.1//EN" "http://www.w3.org/Graphics/SVG/1.1/DTD/svg11.dtd">
<!-- Creator: CorelDRAW -->
<svg xmlns="http://www.w3.org/2000/svg" xml:space="preserve" width="297mm" height="210mm" version="1.1" style="shape-rendering:geometricPrecision; text-rendering:geometricPrecision; image-rendering:optimizeQuality; fill-rule:evenodd; clip-rule:evenodd"
viewBox="0 0 29700 21000"
 xmlns:xlink="http://www.w3.org/1999/xlink"
 xmlns:xodm="http://www.corel.com/coreldraw/odm/2003">
 <defs>
  <style type="text/css">
   <![CDATA[
    .fil0 {fill:#2B2A29}
   ]]>
  </style>
 </defs>
 <g id="Слой_x0020_1">
  <metadata id="CorelCorpID_0Corel-Layer"/>
  <g id="_2197481087136">
   <path class="fil0" d="M8426.91 10999.91c15.7,-4.19 121.42,-102.76 141.93,-120.88l769.75 -685.14c12,-12.2 14.89,-13.78 27.65,-23.96l427.52 -379.7c38.4,-33.94 82.25,-64.09 105.24,-110.64 83.36,-168.8 159.85,-338.76 244.04,-506.87 72.69,-145.15 136.54,-293.06 209.62,-438.03 36.39,-72.23 72.74,-140.53 103.67,-215.47l69.92 -145.95c83.96,-167.78 160.29,-339.2 244.1,-506.81l70.4 -145.49c96.42,-192.68 183.75,-391.01 280.02,-583.51 22.41,-44.79 95.89,-188.97 103.25,-220.58 -114.54,26.69 -296.09,53.68 -420.4,77.08 -49.93,9.39 -96.04,16.38 -143.19,25.77 -93.76,18.68 -189.22,33.07 -281.53,51.67l-281.86 51.35c-283.34,47.13 -565.45,106.1 -845.42,154.21 -96.36,16.57 -185.78,32.79 -282.28,50.95 -377.82,71.1 -749.3,134.66 -1127.1,205.75l-984.81 179.09c-44.76,8.41 -98.57,24.43 -143.51,25.43 0,58.78 -9.49,113.41 -9.34,169.01l-23.5 380.1c-2.09,41.77 -9.74,90.67 -9.41,131.41l-65.82 1018.27c-0.5,77.16 -20.42,332.16 -27.79,422.76l-5.07 84.09c-1.6,61.44 -7.51,112.49 -9.12,173.92l-17.63 249.88c-2.19,16.13 -0.47,29.73 -1.27,45.66 -3.41,68.33 -13.53,143.25 -13.96,211.31 -0.3,45.28 -8.55,82.24 -9.64,126.47l-33.41 553.22c-18.31,164.21 -0.81,143.34 -46.28,315.09l-298.45 1151.74c-6.59,26.41 -11.48,45.21 -18.67,70.49l-16.36 63.43c-0.38,1.03 -1.01,2.43 -1.37,3.33l-3.03 6.36c-22.48,-96.52 -51.47,-189.43 -76.08,-285.29 -42.98,-167.39 -103.09,-402.45 -152.22,-570.53l-115.29 -429.1c-27.38,-106.63 -35.23,-114.57 -41.22,-230.99 -1.05,-20.41 -3.7,-17.11 -4.73,-37.52l-9.36 -173.66c-1.04,-20.75 -4.27,-19.49 -4.83,-42.11 -1.74,-71.18 -10.62,-139.68 -13.96,-206.61 -0.79,-15.92 0.93,-29.53 -1.28,-45.65 -10.82,-79.44 -15.42,-256.23 -22.43,-343.63 -1.7,-21.25 -2.84,-63.77 -6.42,-87.44 -8.57,-56.69 -16.13,-269.67 -21.73,-339.64l-13.82 -206.76c-1.04,-20.76 -4.28,-19.49 -4.83,-42.11 -0.89,-36.16 -4.22,-54.37 -4.45,-89.41l-33.23 -511.18c-4.23,-52.84 -9.34,-116.61 -13.57,-169.45l-13.65 -206.94c-4.8,-43.34 -1.22,-87.25 -8.09,-132.69l-11.49 -171.55c-0.43,-67.16 -18.12,-276.34 -23.09,-338.28 -1.08,-13.61 0.59,-28.13 -0.5,-41.74l-13.57 -169.45c-1.22,-15.16 0.75,-30.72 -0.94,-46 -2.58,-23.26 -4.38,-64.24 -7.43,-86.44 -3.19,-23.37 -4.07,-62.83 -5.71,-83.44l-4.95 -88.93c-44.76,-3.72 -95.72,-16.1 -139.59,-24.67l-429.57 -77.28c-96.87,-16.65 -193.51,-35.69 -286.29,-51.63 -97.95,-16.83 -188.82,-32.37 -286.96,-50.93 -381.66,-72.17 -759.26,-133.89 -1141.18,-205.76l-1857.75 -333.95c-73.2,-13.15 -370.57,-72.15 -429.78,-77.08 3.38,14.49 8.41,23 16.05,35.58l57.54 106.73c6.76,13.55 10.33,20.98 17.09,34.53l281.58 530.32c26.43,47.23 47.39,96.66 73.79,142.09 13.59,23.38 24.48,46.07 37.29,70.68l187.57 352.12c26.4,45.43 47.37,94.88 73.8,142.09 14.12,25.21 24.17,43.65 37.46,70.48l112.72 211.12c83.38,166.89 178.55,327.44 261.21,494.38 71.23,143.88 153.97,283.37 225.24,427.1 13.14,26.51 24.17,43.55 37.56,70.39 6.45,12.93 11.17,23.01 17.14,34.48 7.26,13.94 12.68,20.32 20.46,35.85 17.66,35.3 24.11,34.06 48.86,59.08l79.79 79.79c61.97,54.57 208.84,204.23 250.57,237.51 31.66,25.26 182.83,183.6 219.18,212.59 41.19,32.86 71.27,70.54 109.75,106.13 11.39,10.54 16.74,12.18 28.32,23.31l328.63 319.02c38.7,32.34 72.1,72.3 110.12,105.76 12.34,10.89 18.02,13.22 30.53,25.79 19.14,19.23 34.76,34.9 53.9,54.03l113.82 106.78c-3.03,-36.42 -41.74,-141.32 -53.46,-176.51 -49.22,-147.95 -89.47,-297.88 -139.6,-447.04l-56.27 -178.39c-9.06,-29.54 -19.43,-59.96 -27.57,-89.76 -8.15,-29.8 -18.52,-60.21 -27.56,-89.77l-418.88 -1336.34c-18.2,-59.46 -36.93,-120.08 -55.13,-179.54 -18.42,-60.18 -95.41,-318.93 -113.24,-356.08 40.45,3.36 79.16,13.72 121.24,19.56 121.56,16.86 250.29,44.17 371.29,60.48 163.43,22.02 333.08,53.59 496.39,80.86l335.76 53.78c30.14,4.86 20.23,4.97 26.32,44.08l502.63 3059.45c7.29,43.81 70.79,147.76 93.96,192.32 8.52,16.36 15.89,26.53 25.11,45.3 9.67,19.67 17.72,31.29 26.64,48.43l150.33 281.45c9.15,15.75 15.49,27 24.77,45.63 71.09,142.74 156.59,277.67 226.88,420.77 9.21,18.76 16.59,28.94 25.1,45.3 9.18,17.64 15.25,30.83 26.11,48.97l124.22 232.48c9.15,15.74 15.49,26.99 24.77,45.62 9.19,18.47 15.94,26.78 25.14,45.26 9.92,19.91 16.17,30.19 26.48,48.62 9.4,16.8 13.99,29.82 23.93,46.45l226.49 421.17c9.58,17.14 16.38,28.11 24.94,45.45 8.98,18.21 17.18,29.36 26.67,48.41 9.28,18.63 15.63,29.89 24.77,45.64l126.02 235.35c36.9,60.6 65.67,127.85 102.17,188.8 12.86,21.48 43.78,74.52 48.91,96.58l9.39 0c6.07,-26.03 61.9,-123.69 78.22,-156.44l140.72 -272.27c8.48,-16.7 13.57,-22.28 22.05,-38.97 14.15,-27.89 25.12,-50.38 39.04,-78.3l203.32 -392.69c128.73,-259.52 274.34,-518.4 403.62,-779.05 12.93,-26.08 26.53,-48.26 40.7,-76.63l284.73 -550.66c14.25,-28.56 27.24,-49.62 40.68,-76.64l81.39 -157.96c24.02,-47.09 84.64,-419.73 96.97,-494.36l108.32 -605.05c26.68,-133.91 46.9,-268.83 72.71,-405.99 50.71,-269.49 93.82,-533.95 144.74,-803.26 12.93,-68.34 24.69,-133.06 35.61,-199.06l90.42 -505.61c4.5,-26.16 16.84,-75.76 17.48,-104.53 109.73,-25.56 228.81,-47.18 339.09,-69.22l854.92 -172.87c55.48,-11.09 116.09,-30.18 171.69,-34.81 -3.86,46.39 -223.29,681.55 -235.25,717.45 -79.65,239.03 -158.79,481.06 -238.15,719.25l-356.68 1079.42c-13.8,41.38 -114.94,324.87 -117.93,360.77z"/>
   <path class="fil0" d="M20535.21 10521.21c-17.16,-12.57 -65.37,-157.73 -73.33,-180.09 -23.16,-64.9 -47.21,-122.71 -70.41,-187.72 -89.43,-250.7 -190.94,-496.64 -280.4,-747.39 -13.02,-36.51 -136.76,-349.88 -139.04,-377.21l-2661.01 0c15.78,23.57 68.97,71.31 92.7,95.04 15.41,15.41 90.33,79.62 90.33,97.37l0 2435.75 1689.54 0 0 -755.6 -938.63 0 0 -173.64c0,-19.46 46.71,-32.75 62.57,-40.68 25.9,-12.94 46.08,-23.04 71.97,-35.98 48.78,-24.39 91.99,-46.01 140.78,-70.4 95.73,-47.85 185.87,-92.94 281.59,-140.79 95.73,-47.86 185.87,-92.93 281.6,-140.8l283.14 -143.91 -1060.65 0c-23.54,0.07 -61,7.63 -61,-14.08l0 -361.38 938.63 0 0 -671.11c30.41,20.36 91.61,83.43 102.69,117.87 8.55,26.54 18.9,54.32 28.11,79.83 47,130.04 96.23,282.66 146.08,407.7 41.74,104.68 77.09,218.93 116.67,324.5l232.01 650.31c10.45,26.41 19.21,52.5 28.6,79.33l57.38 163.21c9.67,27.7 19.68,56.87 29.98,82.65 52.56,131.82 94.86,271.06 144.8,404.3l72.85 204.05c5.31,16.07 5.38,34.62 21.69,34.62l732.13 0c18.66,0 46.44,-100.05 53.33,-120.32 16.59,-48.8 136.33,-362.78 139.08,-395.93l9.39 0c2.9,34.84 120.44,341.38 137.82,392.51l34.96 96.44c5.11,14.64 3.81,27.3 19.65,27.3l732.12 0c16.71,0 16.25,-15.29 21.59,-30.04l44.12 -124.84c42.99,-107.77 74.31,-220.69 117.33,-328.52 42.98,-107.77 74.31,-220.7 117.33,-328.51 43.46,-109 75.65,-223.09 118.7,-331.84l484.9 -1359.51c14.76,-42.24 34.12,-82.28 44.04,-124.9l-750.89 0c-26.84,50.7 -50.07,128.95 -69.85,183.57 -135.76,374.63 -286.08,743.96 -420,1119.36 -14.84,41.62 -65.66,153.77 -68.63,189.48 -12.41,-9.09 -14.79,-27.7 -20.55,-45.15l-403.61 -1210.84c-14.17,-42.48 -136.17,-389.76 -139.03,-424.15 -12.4,9.09 -14.77,27.71 -20.55,45.16 -6.49,19.65 -11.34,34.05 -17.59,52.81l-456.4 1369.21c-12.33,36.94 -23.67,71.06 -35.19,105.62 -8.36,25.11 -31.47,83.68 -33.44,107.34z"/>
   <path class="fil0" d="M25509.93 9221.21l0 2435.75 746.21 0c17.79,0 313.63,-306.58 332.05,-325 25.66,-25.66 309.01,-313.5 329.68,-327.35l0 652.35 750.91 0 0 -741.52c0,-16.18 122.65,-89.59 136.1,-98.55 46.93,-31.3 93.86,-62.58 140.79,-93.87 95.07,-63.38 188.04,-125.35 284.4,-189.61l565.06 -378.25 -1065.35 0c-23.54,0.07 -61,7.63 -61,-14.08l0 -361.38 1126.35 0 0 -750.9 -2064.98 0c16.06,23.98 70.85,73.19 95.04,97.38 14.37,14.39 92.68,86.09 92.68,99.72l0 1675.46 -652.34 0 0 -1872.56 -938.63 0c25.24,37.67 183.03,173.42 183.03,192.41z"/>
   <path class="fil0" d="M14739.18 9221.21l0 2435.75 741.52 0c10.81,0 14.08,-3.27 14.08,-14.08l0 -924.55 933.94 0 0 938.63 750.89 0 0 -2628.16 -750.89 0 0 938.62 -933.94 0 0 -938.62 -938.63 0c15.78,23.57 68.97,71.31 92.69,95.04 13.94,13.93 90.34,83.83 90.34,97.37z"/>
   <path class="fil0" d="M24097.3 10901.36c-115.33,0 -183.46,1.14 -291.08,-51.51 -123.06,-60.23 -227.45,-173.35 -279.54,-302.41 -6.72,-16.63 -11.73,-33.12 -16.07,-49.63 -49.35,-187.39 -7.98,-382.66 118.48,-524.6 108.79,-122.11 245.85,-193.51 421.28,-193.51 176.55,0 306.33,73.89 395.4,163.09 93.03,93.16 167.77,218.18 167.77,400.09 0,83.93 -18.66,162.83 -45.3,222.19 -30.87,68.77 -45.01,87.9 -89.34,140.62 -47.32,56.28 -101.86,103.08 -168.83,136.24 -54.73,27.1 -133.68,59.43 -212.77,59.43zm-1361.01 -572.56c0,234.95 33.78,363.97 115.34,560.46 54.97,132.39 170.07,281.08 268.33,379.33 14.43,14.44 25.52,25.44 39.84,39.94 109.22,110.46 302.78,227.21 451.18,276.26 286.41,94.69 585.5,98.52 872.95,3.55 142.7,-47.13 294.78,-136.33 405.47,-232.79 55.17,-48.09 112.06,-98.9 159.22,-155.21 13.22,-15.79 22.75,-27.98 35.71,-44.07 85.37,-105.87 157.45,-226.58 203.28,-355.22 89.54,-251.4 102.94,-535.33 38.36,-795.16 -45.57,-183.39 -104.45,-283.78 -201.78,-427.09 -10.67,-15.75 -21.18,-27.1 -32.58,-42.5 -6.58,-8.89 -9.43,-12.23 -16.93,-20.62 -93.05,-104.21 -142.58,-161.5 -266.01,-250.25 -198.72,-142.88 -447.56,-236.63 -706.67,-236.63l-98.57 0c-271.64,0 -561.37,111.49 -761.37,275.8 -96.98,79.68 -162.14,148.59 -239.75,243.65 -50.59,61.97 -123.44,179.15 -152.73,250.87 -15.61,38.21 -31.67,72.93 -45.39,114.18 -43.25,129.92 -67.9,267.97 -67.9,415.5z"/>
   <path class="fil0" d="M12646.04 9967.42c38.01,-25.45 178.03,-187.72 197.11,-187.72l366.07 0 0 1867.87c0,15.41 170.65,177.69 184.2,191.25l518.6 518.59c14.57,14.56 32.72,40.39 52.8,45.75l0 -2623.46 563.17 0 0 -750.9 -1881.95 0 0 938.62z"/>
   <polygon class="fil0" points="8426.91,10999.91 8422.21,10999.91 8426.14,11005.39 "/>
  </g>
 </g>
</svg>
