<?xml version="1.0" encoding="UTF-8"?>
<!DOCTYPE svg PUBLIC "-//W3C//DTD SVG 1.1//EN" "http://www.w3.org/Graphics/SVG/1.1/DTD/svg11.dtd">
<!-- Creator: CorelDRAW -->
<svg xmlns="http://www.w3.org/2000/svg" xml:space="preserve" width="297mm" height="210mm" version="1.1" style="shape-rendering:geometricPrecision; text-rendering:geometricPrecision; image-rendering:optimizeQuality; fill-rule:evenodd; clip-rule:evenodd"
viewBox="0 0 29700 21000"
 xmlns:xlink="http://www.w3.org/1999/xlink"
 xmlns:xodm="http://www.corel.com/coreldraw/odm/2003">
 <defs>
  <style type="text/css">
   <![CDATA[
    .fil0 {fill:#FEFEFE}
    .fil2 {fill:#FFD40B}
    .fil1 {fill:#175633}
   ]]>
  </style>
 </defs>
 <g id="Слой_x0020_1">
  <metadata id="CorelCorpID_0Corel-Layer"/>
  <g id="_2197482197216">
   <path class="fil0" d="M10991.05 8765.13c314.32,-14.02 582.54,203.92 748.88,434.65 280.73,389.42 412.17,982.34 412.17,1496.8l0 159.42c0,490.27 -102.37,1289.63 -505.78,1599.41 -225.52,173.19 -537.01,195.54 -712.41,-58.31 -89.91,-130.11 -75.27,-272.07 -75.27,-449.68l-0.29 -3170.42 132.7 -11.87zm-1733.46 -293.8l0 237.81c104.16,50.44 150.53,39.05 262.91,152.88 196.96,199.5 164.34,403.9 164.34,669.56l0.01 4617.07c0.39,451.3 -341.12,457.87 -350.77,490.53l0 288.18 2094.87 0 0 -286.13c-85.62,-5.28 -174.42,-16.4 -253.42,-39.47 -149.54,-43.69 -266.88,-129.3 -304.86,-283.46 -19.45,-78.93 -12.03,-199.24 -12.03,-286.14 0,-393.64 0,-787.26 0,-1180.89l277 31.15c505.15,30.72 1064.53,-103.88 1450.38,-425.4 65.47,-54.56 145.08,-130.43 197.54,-195.07 435.49,-536.59 539.4,-1247.85 504.33,-1936.22 -31.75,-623.24 -158.57,-1316.82 -582.67,-1778.45 -248.09,-270.06 -617.69,-430.35 -996.8,-418.74 -270.11,8.28 -511.04,70.14 -677.86,265.33l-137.63 178.61 -142.97 -451.02c-44.78,1.8 -1169.94,271.92 -1306.52,303.85 -49.09,11.48 -147.33,29.68 -185.85,46.02z"/>
   <path class="fil0" d="M24908 8779.91c67.46,-23.98 217.8,-15.3 289.69,-0.34 239.28,49.8 425.87,213.71 566.51,390.1 582.05,729.96 555.34,2427.03 111.37,3079.32 -79,116.07 -190.18,233.89 -342.26,295.42 -206.08,83.37 -349.19,40.19 -489.84,-66.76 -41.67,-31.68 -96.83,-129.94 -116.92,-201.54 -25.95,-92.5 -18.55,-197.81 -18.55,-298.03l0 -3198.17zm-1601.05 -70.77c30.69,13.83 58.83,18.78 89.05,32.41 196.6,88.71 338.19,282.97 338.19,507.98l0 4966.57c0,58.04 -12.89,112.83 -35.47,160.65 -45.04,95.41 -99.61,146.11 -185.37,201.05 -55.74,35.7 -124.68,43.52 -129.91,61.38l0 288.18 2094.87 0 0.09 -220.73c0.34,-27.48 2.91,-31.2 -3.71,-54.55l-5.02 -10.85c-82.53,-16.5 -122.9,-0.93 -253.99,-42.47 -330.79,-104.82 -307.68,-316.84 -307.68,-572.74 0,-391.58 0,-783.17 0,-1174.75 37.16,-3.38 128.94,18.3 174.02,23.98 381.36,48.05 824.43,-30.1 1154.76,-173.13 799.53,-346.19 1097.14,-1190.47 1097.14,-2085.25l0 -104.24c0,-853.19 -216.69,-1746.75 -793.63,-2149.57 -357.31,-249.47 -905.62,-321.27 -1280.48,-120.36 -187.68,100.6 -265.55,295.83 -319.49,330.55l-139.12 -454.83 -1493.9 350.86 -0.35 239.86z"/>
   <path class="fil0" d="M14970.98 7912.85l318.89 0c28,-387.66 121.26,-687.43 305.9,-951.07 149.44,-213.4 420.88,-439.58 822.46,-439.58l120.52 0.69 0.91 5357.08c0,387.61 -365.78,537.52 -743.34,561.57 -10.88,40.23 -3.6,259.09 -3.6,317.76l2677.57 0 0.24 -349.96c-233.77,0 -374.84,1.97 -548.98,-107.19 -115.97,-72.71 -240.05,-219.32 -240.05,-422.18l0.95 -5357.78c291.94,0.01 536.54,37.58 753.8,231.43 66.19,59.07 103.3,99.22 160.48,170.52 190.59,237.63 309.74,600.44 333.96,984.41 31.84,10.93 236.25,4.3 286.43,4.3l0 -1796.55c-1415.38,0 -2830.76,0 -4246.14,0l0 1796.55z"/>
   <path class="fil0" d="M2620.31 7912.85l315.81 0c5.92,-351.16 147.53,-719.17 309.44,-950.57 149.39,-213.48 418.97,-440.08 821.99,-440.08l120.52 0.69 0.92 5363.21c0,380.37 -370.07,532.92 -744.89,555.47l0 317.73 2674.75 0 1 -349.96c-229.46,0 -390.37,0.34 -555.85,-112.49 -120.69,-82.29 -233.17,-215.93 -233.17,-435.27l0.94 -5339.39c223.81,0.01 372.61,10.58 554.63,99.8 442.32,216.8 673.95,782.3 694.22,1290.86l286.38 0 -0.56 -1796.55c-1574.82,0 -3149.64,0 -4724.47,0l478.34 0 0 1796.55z"/>
   <path class="fil0" d="M20731.81 8377.75c207.24,-45.34 335.44,146.03 402.35,264.66 75.59,134.02 134.13,336.92 170.56,503.85 83,380.39 121.53,821.71 125.73,1225.35 6.04,581.04 -97.39,1999.53 -579.48,2127.29 -345.82,91.65 -510.66,-480.5 -573.25,-767.96 -164.99,-757.81 -168.45,-1722.01 -25.11,-2480.24 52.24,-276.35 169.4,-805.16 479.2,-872.95zm-1899.92 2098.09c0,590.21 209.48,1195.64 532.04,1653.44l122.4 153.31c19.98,24.83 43.51,48.07 63.95,71.09 20.3,22.86 44.55,46.59 67.2,67.76 335.03,313.26 701.39,480.48 1203.82,480.48 664.43,0 1143.27,-426.3 1394.54,-774.14 153.48,-212.45 262.61,-429.42 367.9,-717.71 115.92,-317.39 164.35,-661.31 164.35,-1020.07 0,-599.95 -248.42,-1241.49 -522.03,-1619.23 -39.2,-54.1 -79.07,-101.47 -118,-151.78 -55.5,-71.71 -206.83,-213.9 -272.61,-266.95 -249.35,-201.08 -603.08,-363.56 -971.22,-363.56l-98.12 0c-307.67,0 -630.16,115.75 -840.81,248.66 -121.31,76.54 -286.13,205.53 -375.7,304.91 -12.82,14.22 -19.15,21.41 -31.52,36.16 -11.87,14.14 -20.88,19.99 -33.08,34.15 -370.93,430.64 -653.11,1097.47 -653.11,1789.9l0 73.58z"/>
   <path class="fil1" d="M7838.16 6033.74c398.33,-48.4 671.56,309.46 703.66,673.5 35.63,404.06 -218.26,773.36 -571.77,807.89 -408.94,39.93 -674.81,-297.23 -706.75,-669.43 -31.69,-369.15 186.01,-764.71 574.86,-811.96zm-5217.85 82.56l-478.34 0c1574.83,0 3149.65,0 4724.47,0l0.56 1796.55 -286.38 0c-20.27,-508.56 -251.9,-1074.06 -694.22,-1290.86 -182.02,-89.22 -330.82,-99.79 -554.63,-99.8l-0.94 5339.39c0,219.34 112.48,352.98 233.17,435.27 165.48,112.83 326.39,112.49 555.85,112.49l-1 349.96 -2674.75 0 0 -317.73c374.82,-22.55 744.89,-175.1 744.89,-555.47l-0.92 -5363.21 -120.52 -0.69c-403.02,0 -672.6,226.6 -821.99,440.08 -161.91,231.4 -303.52,599.41 -309.44,950.57l-315.81 0 0 -1796.55zm4470.52 355.63l0 -545.71 -4691.29 0 0 2219.62c0,14.13 4.26,18.4 18.39,18.4l742.03 0c0,-202.47 7.17,-367.89 52.71,-548.19 52.62,-208.34 118.57,-374.09 250.36,-540.64 73.59,-92.99 183.2,-185.7 295.25,-232.1 51.4,-21.29 145.22,-58.67 211.15,-58.67l0 5095.33c0,143.26 -63.34,235.32 -185.9,292.38 -172.83,80.46 -364.25,75.52 -562.25,75.52l0 760.31 3121.39 0 0 -790.97 -386.33 0c-216.78,0 -404.75,-110.92 -404.75,-324.97l0 -5107.6c56.31,0 170.4,37.5 212.63,57.19 68.42,31.89 188.89,110.39 239.84,164.88l61.83 73.08c243.4,328.23 295.19,668.81 295.19,1084.45l711.35 0c29.6,0 18.41,-53.98 18.4,-110.37l0 -919.73c4.44,6.38 0.39,-1.86 6.54,11.86 3.58,8.02 3.1,7.17 6.69,17.83 85.95,255.07 235.81,419.66 471.22,534.43 255.82,124.7 626.59,77.2 841.73,-114.93 197.26,-176.16 347.97,-434.24 347.97,-743.51 0,-187.93 -13.76,-275.43 -79.71,-441.48 -20.92,-52.69 -46.04,-100.62 -73.88,-146.87 -26.71,-44.38 -111.67,-157.9 -148.69,-188.56 -124.6,-103.2 -180.92,-151.62 -356.43,-201.59 -242.46,-69.04 -547.26,4.57 -725.67,170.68l-88.88 88.95c-71.75,76.65 -137.63,184.85 -175.55,284.34 -4.54,11.9 -6.35,19.12 -10.64,32.28l-14.7 34.36z"/>
   <path class="fil1" d="M14970.98 6116.3c1415.38,0 2830.76,0 4246.14,0l0 1796.55c-50.18,0 -254.59,6.63 -286.43,-4.3 -24.22,-383.97 -143.37,-746.78 -333.96,-984.41 -57.18,-71.3 -94.29,-111.45 -160.48,-170.52 -217.26,-193.85 -461.86,-231.42 -753.8,-231.43l-0.95 5357.78c0,202.86 124.08,349.47 240.05,422.18 174.14,109.16 315.21,107.19 548.98,107.19l-0.24 349.96 -2677.57 0c0,-58.67 -7.28,-277.53 3.6,-317.76 377.56,-24.05 743.34,-173.96 743.34,-561.57l-0.91 -5357.08 -120.52 -0.69c-401.58,0 -673.02,226.18 -822.46,439.58 -184.64,263.64 -277.9,563.41 -305.9,951.07l-318.89 0 0 -1796.55zm-220.76 2029.54c0,14.13 4.26,18.4 18.39,18.4l723.63 0c29.7,0 18.46,-58.05 18.39,-116.5 -0.53,-429.34 174.07,-1023.53 593.05,-1203.59 48.28,-20.74 153.56,-59.51 216.43,-59.51l0 5089.2c0,80.66 -17.71,139.34 -50.06,189.08 -122.23,187.91 -483.78,184.95 -698.09,184.95l0 760.31 3121.39 0 0 -790.97 -386.33 0c-198.19,0 -404.75,-104.42 -404.75,-306.58l0 -5125.99c62.58,0 163.27,37.4 212.1,57.72 317.95,132.38 491.27,498.86 556.03,823.65 34.22,171.63 37.84,271.36 35.01,443.26 -0.45,27.3 -7.25,54.97 18.61,54.97l711.35 0 0 -2238.02 -4685.15 0 0 2219.62z"/>
   <path class="fil2" d="M19760.39 14766.04c571.44,0 1138.94,-53.6 1649.57,-212.84 236.56,-73.77 454.07,-176.26 634.46,-297.37 47.02,-31.57 94.27,-64.94 134.97,-98.24 23.39,-19.14 43.48,-33.15 64.67,-51.93 25.92,-22.97 36.42,-32.9 60.53,-55.75 55.59,-52.68 192.61,-180.6 220.97,-237.94 -53.43,17.63 -109.29,46.64 -165.23,66.73 -891.7,320.29 -1830.56,255.39 -2761.57,156.65 -1682.93,-178.49 -3946.77,-627.47 -5566.82,-304.67 -379.14,75.56 -782.71,211.94 -1098.44,428.75 -123.4,84.74 -275.19,210.33 -368.65,324.19l-92.86 122.27c36.07,-7.07 136.72,-56.56 183.84,-74.15 199.59,-74.55 393.41,-125.47 608.01,-164.33 442.17,-80.07 749.33,-85.73 1185.89,-85.73 802.04,0 1812.71,157.29 2617.14,261.67 821.91,106.65 1868.72,222.69 2693.52,222.69z"/>
   <path class="fil0" d="M6912.59 8468.6c-2.35,310.64 -28.37,215.7 89.63,281.19 88.9,49.33 151.8,112.83 207.51,203 86.46,139.93 83.47,277.77 83.47,462.29l0 2195.1c0,143.39 19.12,397.7 -31.89,513.81 -50.73,115.47 -153.05,223.78 -287,262.05l0 373.26 1920.98 0 -0.31 -352.01c-10.37,-17.67 -23.34,-15.1 -47.02,-21.84 -18.41,-5.24 -37.88,-11.82 -54.81,-18.6 -339.79,-136.02 -281.62,-423.66 -281.62,-744.4l0 -3500.61 -1598.94 346.76z"/>
   <path class="fil1" d="M9257.59 8471.33c38.52,-16.34 136.76,-34.54 185.85,-46.02 136.58,-31.93 1261.74,-302.05 1306.52,-303.85l142.97 451.02 137.63 -178.61c166.82,-195.19 407.75,-257.05 677.86,-265.33 379.11,-11.61 748.71,148.68 996.8,418.74 424.1,461.63 550.92,1155.21 582.67,1778.45 35.07,688.37 -68.84,1399.63 -504.33,1936.22 -52.46,64.64 -132.07,140.51 -197.54,195.07 -385.85,321.52 -945.23,456.12 -1450.38,425.4l-277 -31.15c0,393.63 0,787.25 0,1180.89 0,86.9 -7.42,207.21 12.03,286.14 37.98,154.16 155.32,239.77 304.86,283.46 79,23.07 167.8,34.19 253.42,39.47l0 286.13 -2094.87 0 0 -288.18c9.65,-32.66 351.16,-39.23 350.77,-490.53l-0.01 -4617.07c0,-265.66 32.62,-470.06 -164.34,-669.56 -112.38,-113.83 -158.75,-102.44 -262.91,-152.88l0 -237.81zm-222.79 -147.67l0 613.16c52.17,12.15 118.11,9.85 174.27,21.97 103.72,22.36 178.85,88.88 222.39,182.33 20.02,42.97 32.62,108.89 32.62,169.72l0 4929.79c0,133.06 -126.52,220.73 -263.7,220.73l-85.85 0 0 717.4 2520.42 0c14.13,0 18.39,-4.27 18.39,-18.4l0 -699c-133.08,0 -570.31,11.55 -570.31,-196.21l0 -1134.34c38.9,0 51.2,6.13 91.99,6.13 288.43,0 408.28,-1.63 695.57,-64.84 164.33,-36.15 405.05,-119 542.9,-199.08 510.78,-296.76 778.86,-658.65 963.86,-1255.9 22.38,-72.24 41.83,-154.74 57.99,-236.35 37.6,-190 77.15,-463.47 76.09,-659.7 -0.35,-63.62 8.67,-137.76 6.37,-214.77 -0.91,-30.26 -5.63,-30.65 -6.53,-60.91 -1.32,-43.78 4.02,-90.18 -2.39,-132.51l-20.2 -249.6c-5.58,-44.08 -9.03,-82.37 -13.49,-121.4 -4.84,-42.37 -9.91,-76.93 -16.32,-118.57 -34.88,-226.2 -86.13,-452.55 -161.25,-660.4 -67.27,-186.07 -144.09,-341.07 -246.39,-501.7l-84.7 -117.66c-71.5,-89.51 -113.46,-137.09 -198.57,-212.27 -162.12,-143.22 -209.96,-171.94 -411.43,-269.23 -136.24,-65.79 -392.57,-124.68 -562.14,-124.68 -202.22,0 -314.63,0.26 -511.39,65.05 -58.87,19.38 -103.09,40 -155.01,65.75 -71.12,35.27 -99.6,64.05 -136.94,83.81 -9.71,-20.22 -13.7,-39.15 -20.99,-64.86 -18.58,-65.56 -48.5,-134.65 -64.87,-204.93l-347.11 82.15c-43.62,9.88 -79.71,19.51 -119.45,27.72l-580.8 136.67c-37.27,8.79 -83.44,20.31 -119.32,27.86l-233.99 54.23c-80.06,20.25 -152.96,35.11 -232.97,55.24l-236.75 57.6z"/>
   <path class="fil1" d="M23307.3 8469.28l1493.9 -350.86 139.12 454.83c53.94,-34.72 131.81,-229.95 319.49,-330.55 374.86,-200.91 923.17,-129.11 1280.48,120.36 576.94,402.82 793.63,1296.38 793.63,2149.57l0 104.24c0,894.78 -297.61,1739.06 -1097.14,2085.25 -330.33,143.03 -773.4,221.18 -1154.76,173.13 -45.08,-5.68 -136.86,-27.36 -174.02,-23.98 0,391.58 0,783.17 0,1174.75 0,255.9 -23.11,467.92 307.68,572.74 131.09,41.54 171.46,25.97 253.99,42.47l5.02 10.85c6.62,23.35 4.05,27.07 3.71,54.55l-0.09 220.73 -2094.87 0 0 -288.18c5.23,-17.86 74.17,-25.68 129.91,-61.38 85.76,-54.94 140.33,-105.64 185.37,-201.05 22.58,-47.82 35.47,-102.61 35.47,-160.65l0 -4966.57c0,-225.01 -141.59,-419.27 -338.19,-507.98 -30.22,-13.63 -58.36,-18.58 -89.05,-32.41l0.35 -239.86zm-223.14 -145.62l0 613.16c105.12,24.49 181.31,-6.36 298.83,81.37 66.28,49.47 130.44,143.33 130.44,255.87l0 4960.43c0,140.48 -121.75,226.87 -263.69,226.87l-85.86 0 0 717.4 2520.42 0c14.13,0 18.4,-4.27 18.4,-18.4l0 -699c-193.19,0 -570.31,6.21 -570.31,-208.47l0 -1122.08c42.83,0 59.84,6.13 104.25,6.13 282.21,0 387.99,-3.68 666.95,-62.79 215.67,-45.71 444.57,-129.61 629.67,-241.1 65.04,-39.18 117.46,-74.48 176.05,-118.29 71.18,-53.24 171.01,-139.62 227.81,-207.56l70.2 -76.97c218.3,-244.78 395.52,-666.24 461.08,-986.04 17.07,-83.26 32.26,-159.1 45.2,-249.11 116.65,-810.86 3.1,-1906.91 -402.86,-2513.37 -80.12,-119.7 -168.58,-229.63 -271.89,-329.04l-188.08 -149.18c-227.89,-151.7 -519.17,-266.12 -800.89,-266.12 -245.09,0 -376.14,4.6 -603.67,95.42 -47.75,19.06 -137.48,66.15 -180.1,95.84 -16.09,11.22 -20.37,18.65 -37.97,23.35l-73.59 -269.79 -1870.39 441.47z"/>
   <path class="fil1" d="M19760.39 14766.04c-824.8,0 -1871.61,-116.04 -2693.52,-222.69 -804.43,-104.38 -1815.1,-261.67 -2617.14,-261.67 -436.56,0 -743.72,5.66 -1185.89,85.73 -214.6,38.86 -408.42,89.78 -608.01,164.33 -47.12,17.59 -147.77,67.08 -183.84,74.15l92.86 -122.27c93.46,-113.86 245.25,-239.45 368.65,-324.19 315.73,-216.81 719.3,-353.19 1098.44,-428.75 1620.05,-322.8 3883.89,126.18 5566.82,304.67 931.01,98.74 1869.87,163.64 2761.57,-156.65 55.94,-20.09 111.8,-49.1 165.23,-66.73 -28.36,57.34 -165.38,185.26 -220.97,237.94 -24.11,22.85 -34.61,32.78 -60.53,55.75 -21.19,18.78 -41.28,32.79 -64.67,51.93 -40.7,33.3 -87.95,66.67 -134.97,98.24 -180.39,121.11 -397.9,223.6 -634.46,297.37 -510.63,159.24 -1078.13,212.84 -1649.57,212.84zm-7653.24 222.64l318.87 -147.17c37.8,-15.02 73.75,-31.22 114.16,-45.28 380.76,-132.56 632.19,-176.75 1025.35,-225.63 458.95,-57.07 660.14,-41.08 1080.68,-35.9l746.87 56.46c103.75,10.96 216.61,23.18 320.44,35.23 409.78,47.56 859.01,103.11 1262.42,160.29 206.21,29.23 431.41,48.65 636.3,75.05 100.44,12.93 216.97,25.78 320.87,34.81l323.09 32.57c155.5,19.93 355.78,24.81 490.66,42.86l847.96 41.23c540.66,0 831.46,-3.93 1362.28,-91.08 389.79,-64.01 875.69,-216.69 1203.64,-439.78 117.19,-79.73 141.26,-101.67 238.05,-191.2 15.68,-14.51 24.52,-17.75 40.17,-33.41 15.67,-15.66 18.91,-24.5 33.42,-40.18 12.87,-13.91 23.66,-22.74 36.99,-36.59 121.34,-126.01 261.25,-368.08 337.67,-520.79l89.95 -198.25c-34.69,16.63 -76.1,29.49 -114.72,44.72 -390.75,154.02 -991.84,323.49 -1417.86,372.75 -458.63,53.03 -664.32,36.44 -1092.3,24.2l-493.01 -40.5c-55.33,-7.83 -107.41,-10.81 -162.43,-15.41 -107.9,-9.03 -217.01,-27.16 -325.38,-36.43 -179.12,-15.32 -442.85,-58.99 -631.29,-80.05 -203.73,-22.77 -425.76,-59.19 -633.25,-84.24l-956.66 -110.36c-111.78,-12.57 -216.23,-23.47 -329.58,-32.23 -79.99,-6.18 -251.08,-29.2 -325.45,-30.23 -54.66,-0.75 -111.44,-12.07 -165.61,-12.22 -54.82,-0.15 -117.28,-12.64 -171.54,-12.44l-852.57 -24.35c-103.92,0 -188.22,6.4 -288.37,5.99l-275.86 18.49c-316.66,15.07 -704.07,84.18 -1011.85,165.55 -229.71,60.73 -431.96,142.44 -641.81,247.35 -69.68,34.84 -124.8,65.12 -189.56,104.78 -124.84,76.44 -157.08,112.82 -254.03,187.48 -49.92,38.43 -178.35,179.32 -214.7,226.82 -117.16,153.14 -188.67,301.69 -249.12,486.69 -8.94,27.37 -30.82,95.47 -32.89,120.4z"/>
   <path class="fil1" d="M18831.89 10475.84l0 -73.58c0,-692.43 282.18,-1359.26 653.11,-1789.9 12.2,-14.16 21.21,-20.01 33.08,-34.15 12.37,-14.75 18.7,-21.94 31.52,-36.16 89.57,-99.38 254.39,-228.37 375.7,-304.91 210.65,-132.91 533.14,-248.66 840.81,-248.66l98.12 0c368.14,0 721.87,162.48 971.22,363.56 65.78,53.05 217.11,195.24 272.61,266.95 38.93,50.31 78.8,97.68 118,151.78 273.61,377.74 522.03,1019.28 522.03,1619.23 0,358.76 -48.43,702.68 -164.35,1020.07 -105.29,288.29 -214.42,505.26 -367.9,717.71 -251.27,347.84 -730.11,774.14 -1394.54,774.14 -502.43,0 -868.79,-167.22 -1203.82,-480.48 -22.65,-21.17 -46.9,-44.9 -67.2,-67.76 -20.44,-23.02 -43.97,-46.26 -63.95,-71.09l-122.4 -153.31c-322.56,-457.8 -532.04,-1063.23 -532.04,-1653.44zm1866.76 2673.37c232.72,0 322.44,2.1 553.28,-53.84 242.69,-58.81 444.03,-168.73 641.33,-303l83.64 -63.54c62.57,-46.77 173.85,-156.95 228.92,-212.59l102.2 -118.54c192.08,-245.98 314.26,-447.25 431.03,-740.16l76.11 -212.09c79.74,-237.68 152.48,-628.52 152.48,-877.63 0,-186.12 3.89,-274.43 -19.51,-464.88 -49.5,-402.8 -172.29,-804.3 -368.78,-1158.03 -107.17,-192.96 -156.54,-257.89 -294.96,-434.74l-132.98 -142.97c-109.55,-114.43 -238.61,-214.15 -374.64,-299.88 -243.16,-153.22 -591.65,-270.97 -900.27,-270.97 -269.03,0 -378.83,10.85 -629.06,82.29 -491.69,140.38 -890.36,514.76 -1164.14,933.02 -57.77,88.24 -87.76,154.27 -135,239.04 -161.21,289.26 -294.36,784.65 -322.23,1106.47 -3.57,41.2 -10.3,94.68 -12.47,134.7 -1.25,23.31 0.28,50.12 0.25,73.81 -0.05,35.46 -5.6,41.78 -6.55,73.17 -2.32,77.06 15.98,332.08 27.38,414.5 41.56,300.25 107.29,563.33 218.93,835.74l93.74 206.72c18.86,33.86 31.88,62.91 50.66,96.49 45.84,81.95 121.89,207.04 175.4,278.37 85.87,114.48 174.32,225.05 275.65,325.28l76.82 70.35c144.56,127.31 280.73,217.15 451.18,303.06 63.92,32.22 144.89,64.11 213.29,87.18 131.12,44.23 336.77,92.67 508.3,92.67z"/>
   <path class="fil1" d="M8511.53 8121.84l0 3500.61c0,320.74 -58.17,608.38 281.62,744.4 16.93,6.78 36.4,13.36 54.81,18.6 23.68,6.74 36.65,4.17 47.02,21.84l0.31 352.01 -1920.98 0 0 -373.26c133.95,-38.27 236.27,-146.58 287,-262.05 51.01,-116.11 31.89,-370.42 31.89,-513.81l0 -2195.1c0,-184.52 2.99,-322.36 -83.47,-462.29 -55.71,-90.17 -118.61,-153.67 -207.51,-203 -118,-65.49 -91.98,29.45 -89.63,-281.19l1598.94 -346.76zm-1825.44 201.82l0 613.16c102.15,23.79 185.03,-4.71 285.4,88.67 59.49,55.36 100.94,159.71 100.94,273.09l0 2697.89c0,109.68 -104.51,220.74 -214.63,220.74l-104.25 0 0 790.97 2360.98 0 0 -790.97c-106.13,0 -203.11,7.63 -288.34,-48.94 -46.44,-30.84 -91.87,-77.09 -91.87,-153.41l0 -4138.8c-46.21,0 -456.84,95.69 -511.6,107.76 -87.83,19.34 -173.16,38.5 -256.49,56.26l-1150.79 253.5c-29.57,5.94 -107.19,19.46 -129.35,30.08z"/>
   <path class="fil1" d="M20784.51 12315.32c-71.84,0 -137.34,-162.64 -165.58,-220.75 -13.05,-26.85 -26.86,-61.24 -37.57,-91.18 -45.85,-128.27 -80.5,-255.21 -113.15,-401.93 -29.25,-131.43 -69.42,-428.71 -76.29,-567.53 -1.35,-27.17 -5.44,-25.78 -6.2,-55.12l-8.54 -187.67c-7.17,-47.34 -7.32,-659.69 3.49,-755.88 8.56,-76.24 10.15,-158.87 18.47,-239.05 27.09,-261.14 77.44,-626.18 170.67,-859.46 38.72,-96.89 118.75,-312.64 220.83,-312.64 166,0 308.72,657.35 323.49,731.19 35.84,179.19 44.65,282.62 67.28,460.04 10.28,80.66 10.51,167.08 19.21,244.45 10.87,96.83 7.03,457.98 7.03,557.08 0,368.66 -44.41,830.23 -143.64,1180.8 -9.98,35.26 -17.82,67.25 -28.83,99.94 -35.35,105 -145.33,417.71 -250.67,417.71zm-52.7 -3937.57c-309.8,67.79 -426.96,596.6 -479.2,872.95 -143.34,758.23 -139.88,1722.43 25.11,2480.24 62.59,287.46 227.43,859.61 573.25,767.96 482.09,-127.76 585.52,-1546.25 579.48,-2127.29 -4.2,-403.64 -42.73,-844.96 -125.73,-1225.35 -36.43,-166.93 -94.97,-369.83 -170.56,-503.85 -66.91,-118.63 -195.11,-310 -402.35,-264.66z"/>
   <path class="fil1" d="M11309.93 12395.03c-71.06,0 -111.03,-15.44 -154.94,-59.7 -30.94,-31.2 -71.96,-65.37 -71.96,-124.25l0 -3182.29c98.74,2.2 243.52,92.08 314.3,157.87 87.24,81.11 155.23,153.33 218.95,259.35 37.08,61.72 82.32,141.07 109.87,208.99 32.07,79.07 59.16,146.3 84.51,234.34 24.79,86.14 43.96,168 61.94,256.91 51.63,255.29 75.87,697.14 45.35,980.45 -9.08,84.36 -7.81,145.32 -22.68,247.11 -42.9,293.71 -99.08,557.53 -265.21,801.72 -54.9,80.69 -191.83,219.5 -320.13,219.5zm-451.58 -3618.03l0.29 3170.42c0,177.61 -14.64,319.57 75.27,449.68 175.4,253.85 486.89,231.5 712.41,58.31 403.41,-309.78 505.78,-1109.14 505.78,-1599.41l0 -159.42c0,-514.46 -131.44,-1107.38 -412.17,-1496.8 -166.34,-230.73 -434.56,-448.67 -748.88,-434.65l-132.7 11.87z"/>
   <path class="fil1" d="M25359.29 12395.03c-71.06,0 -111.04,-15.44 -154.94,-59.7 -30.95,-31.2 -71.96,-65.37 -71.96,-124.25l0 -3182.29c123.94,2.76 317.72,140.25 396.8,234.81 48.72,58.27 97.45,117.64 136.44,182.41 162.99,270.82 267.17,659.5 294.47,974.82 46.35,535.46 20.56,1357.01 -282.79,1758.73 -69.14,91.56 -190.79,215.47 -318.02,215.47zm-451.29 -416.95c0,100.22 -7.4,205.53 18.55,298.03 20.09,71.6 75.25,169.86 116.92,201.54 140.65,106.95 283.76,150.13 489.84,66.76 152.08,-61.53 263.26,-179.35 342.26,-295.42 443.97,-652.29 470.68,-2349.36 -111.37,-3079.32 -140.64,-176.39 -327.23,-340.3 -566.51,-390.1 -71.89,-14.96 -222.23,-23.64 -289.69,0.34l0 3198.17z"/>
   <path class="fil0" d="M7838.16 6033.74c-388.85,47.25 -606.55,442.81 -574.86,811.96 31.94,372.2 297.81,709.36 706.75,669.43 353.51,-34.53 607.4,-403.83 571.77,-807.89 -32.1,-364.04 -305.33,-721.9 -703.66,-673.5z"/>
   <polygon class="fil0" points="14060.72,10887.79 15553.56,10887.87 15695.9,10001.31 14202.13,10001.2 "/>
   <path class="fil1" d="M14202.13 10001.2l1493.77 0.11 -142.34 886.56 -1492.84 -0.08 141.41 -886.59zm-396.31 1136.85l1937.84 0c0,-27.07 7.53,-57.29 11.41,-80.57 27.27,-163.81 203.23,-1189.82 203.23,-1249.98l-1943.98 0c-0.55,25.18 -8.55,54.97 -11.93,80.04 -46.51,344.99 -119.4,731.53 -170.26,1080.61 -8.36,57.39 -21.84,116.2 -26.31,169.9z"/>
  </g>
 </g>
</svg>
