<?xml version="1.0" encoding="utf-8"?>
<!-- Generator: Adobe Illustrator 27.6.1, SVG Export Plug-In . SVG Version: 6.00 Build 0)  -->
<svg version="1.1" id="Слой_3" xmlns="http://www.w3.org/2000/svg" xmlns:xlink="http://www.w3.org/1999/xlink" x="0px" y="0px"
	 viewBox="-3 188 290 80" style="enable-background:new 0 0 283.5 260.8;" xml:space="preserve">
<style type="text/css">
	.st0{fill:#006867;}
	.st1{fill:#666666;}
</style>
<g>
	<g>
		<path class="st0" d="M69.3,232.8c-3-3-4.5-7.3-4.5-12.9v-21.3h8.8v21c0,6.8,2.8,10.2,8.5,10.2c2.8,0,4.9-0.8,6.3-2.5
			c1.5-1.7,2.2-4.2,2.2-7.8v-21h8.7v21.3c0,5.6-1.5,9.9-4.5,12.9c-3,3-7.3,4.5-12.7,4.5C76.6,237.3,72.3,235.8,69.3,232.8z"/>
		<path class="st0" d="M124.8,236.1c-2.8-0.8-5.1-1.9-6.8-3.2l3-6.6c1.6,1.2,3.6,2.2,5.8,2.9c2.3,0.7,4.5,1.1,6.8,1.1
			c2.5,0,4.4-0.4,5.6-1.1c1.2-0.7,1.8-1.7,1.8-3c0-0.9-0.4-1.7-1.1-2.3c-0.7-0.6-1.6-1.1-2.7-1.4c-1.1-0.4-2.6-0.8-4.5-1.2
			c-2.9-0.7-5.3-1.4-7.1-2.1c-1.9-0.7-3.4-1.8-4.8-3.3c-1.3-1.5-2-3.6-2-6.1c0-2.2,0.6-4.2,1.8-6c1.2-1.8,3-3.2,5.4-4.3
			c2.4-1.1,5.4-1.6,8.8-1.6c2.4,0,4.8,0.3,7.1,0.9c2.3,0.6,4.4,1.4,6.1,2.5l-2.7,6.7c-3.5-2-7-3-10.6-3c-2.5,0-4.3,0.4-5.5,1.2
			c-1.2,0.8-1.8,1.9-1.8,3.2c0,1.3,0.7,2.3,2,2.9c1.4,0.6,3.4,1.3,6.2,1.9c2.9,0.7,5.3,1.4,7.1,2.1c1.9,0.7,3.4,1.8,4.8,3.3
			c1.3,1.5,2,3.5,2,6c0,2.2-0.6,4.2-1.8,6c-1.2,1.8-3,3.2-5.5,4.3c-2.4,1.1-5.4,1.6-8.9,1.6C130.6,237.3,127.6,236.9,124.8,236.1z"
			/>
		<path class="st0" d="M223.6,198.6h8.8v38.1h-8.8V198.6z"/>
		<path class="st0" d="M262.4,205.7h-12.2v-7.2h33.2v7.2h-12.2v30.9h-8.8V205.7z"/>
	</g>
	<g>
		<path class="st1" d="M45.8,249.3h-4.4v-1.6h10.7v1.6h-4.4v11.4h-1.8V249.3z"/>
		<path class="st1" d="M68,259v1.6h-9.4v-13h9.2v1.6h-7.3v4h6.5v1.6h-6.5v4.2H68z"/>
		<path class="st1" d="M77.7,259.9c-1-0.6-1.9-1.4-2.5-2.4c-0.6-1-0.9-2.1-0.9-3.4s0.3-2.4,0.9-3.4c0.6-1,1.4-1.8,2.5-2.4
			c1-0.6,2.2-0.9,3.5-0.9c1,0,1.9,0.2,2.8,0.5c0.8,0.3,1.6,0.8,2.2,1.5l-1.2,1.2c-1-1-2.2-1.5-3.7-1.5c-1,0-1.8,0.2-2.6,0.6
			c-0.8,0.4-1.4,1-1.8,1.8c-0.4,0.8-0.7,1.6-0.7,2.5s0.2,1.8,0.7,2.5c0.4,0.8,1,1.4,1.8,1.8c0.8,0.4,1.6,0.6,2.6,0.6
			c1.4,0,2.7-0.5,3.7-1.6l1.2,1.2c-0.6,0.7-1.3,1.2-2.2,1.5c-0.8,0.3-1.8,0.5-2.8,0.5C79.9,260.8,78.7,260.5,77.7,259.9z"/>
		<path class="st1" d="M104.4,247.7v13h-1.9v-5.8h-7.5v5.8h-1.9v-13h1.9v5.6h7.5v-5.6H104.4z"/>
		<path class="st1" d="M123.9,247.7v13h-1.5l-7.8-9.7v9.7h-1.9v-13h1.5l7.8,9.7v-9.7H123.9z"/>
		<path class="st1" d="M134.5,259.9c-1.1-0.6-1.9-1.4-2.5-2.4c-0.6-1-0.9-2.1-0.9-3.4s0.3-2.4,0.9-3.4c0.6-1,1.4-1.8,2.5-2.4
			c1-0.6,2.2-0.9,3.5-0.9c1.3,0,2.5,0.3,3.5,0.9c1.1,0.6,1.9,1.4,2.5,2.4c0.6,1,0.9,2.1,0.9,3.4s-0.3,2.4-0.9,3.4
			c-0.6,1-1.4,1.8-2.5,2.4c-1.1,0.6-2.2,0.9-3.5,0.9C136.8,260.8,135.6,260.5,134.5,259.9z M140.6,258.5c0.8-0.4,1.4-1,1.8-1.8
			c0.4-0.8,0.7-1.6,0.7-2.5s-0.2-1.8-0.7-2.5c-0.4-0.8-1-1.4-1.8-1.8c-0.8-0.4-1.6-0.6-2.6-0.6s-1.8,0.2-2.6,0.6s-1.4,1-1.8,1.8
			c-0.4,0.8-0.7,1.6-0.7,2.5s0.2,1.8,0.7,2.5c0.4,0.8,1,1.4,1.8,1.8c0.8,0.4,1.6,0.6,2.6,0.6S139.9,258.9,140.6,258.5z"/>
		<path class="st1" d="M152.2,247.7h1.9V259h7v1.6h-8.9V247.7z"/>
		<path class="st1" d="M169.8,259.9c-1.1-0.6-1.9-1.4-2.5-2.4c-0.6-1-0.9-2.1-0.9-3.4s0.3-2.4,0.9-3.4c0.6-1,1.4-1.8,2.5-2.4
			c1-0.6,2.2-0.9,3.5-0.9c1.3,0,2.5,0.3,3.5,0.9c1.1,0.6,1.9,1.4,2.5,2.4c0.6,1,0.9,2.1,0.9,3.4s-0.3,2.4-0.9,3.4
			c-0.6,1-1.4,1.8-2.5,2.4c-1.1,0.6-2.2,0.9-3.5,0.9C172,260.8,170.8,260.5,169.8,259.9z M175.9,258.5c0.8-0.4,1.4-1,1.8-1.8
			c0.4-0.8,0.7-1.6,0.7-2.5s-0.2-1.8-0.7-2.5c-0.4-0.8-1-1.4-1.8-1.8c-0.8-0.4-1.6-0.6-2.6-0.6c-1,0-1.8,0.2-2.6,0.6
			c-0.8,0.4-1.4,1-1.8,1.8c-0.4,0.8-0.7,1.6-0.7,2.5s0.2,1.8,0.7,2.5c0.4,0.8,1,1.4,1.8,1.8c0.8,0.4,1.6,0.6,2.6,0.6
			C174.3,259.2,175.1,258.9,175.9,258.5z"/>
		<path class="st1" d="M196.5,254.1h1.8v5.1c-0.6,0.5-1.4,0.9-2.2,1.2c-0.9,0.3-1.7,0.4-2.7,0.4c-1.3,0-2.5-0.3-3.5-0.9
			c-1.1-0.6-1.9-1.4-2.5-2.4c-0.6-1-0.9-2.1-0.9-3.4s0.3-2.4,0.9-3.4c0.6-1,1.4-1.8,2.5-2.4c1.1-0.6,2.2-0.9,3.6-0.9
			c1,0,2,0.2,2.8,0.5c0.8,0.3,1.6,0.8,2.2,1.5l-1.1,1.1c-1-1-2.3-1.5-3.8-1.5c-1,0-1.9,0.2-2.7,0.6c-0.8,0.4-1.4,1-1.8,1.8
			c-0.4,0.8-0.7,1.6-0.7,2.6c0,0.9,0.2,1.8,0.7,2.5c0.4,0.8,1.1,1.4,1.8,1.8c0.8,0.4,1.7,0.6,2.6,0.6c1.2,0,2.2-0.3,3-0.8V254.1z"/>
		<path class="st1" d="M206.2,247.7h1.9v13h-1.9V247.7z"/>
		<path class="st1" d="M225.8,259v1.6h-9.4v-13h9.2v1.6h-7.3v4h6.5v1.6h-6.5v4.2H225.8z"/>
		<path class="st1" d="M234.3,260.3c-0.9-0.3-1.6-0.7-2.1-1.2l0.7-1.4c0.5,0.4,1.1,0.8,1.9,1.1c0.8,0.3,1.6,0.4,2.4,0.4
			c1.1,0,1.9-0.2,2.4-0.5c0.5-0.4,0.8-0.8,0.8-1.5c0-0.4-0.1-0.8-0.4-1.1c-0.3-0.3-0.6-0.5-1.1-0.6c-0.4-0.1-1-0.3-1.8-0.5
			c-1-0.2-1.8-0.5-2.4-0.7c-0.6-0.2-1.1-0.6-1.5-1.1c-0.4-0.5-0.6-1.1-0.6-2c0-0.7,0.2-1.3,0.5-1.9c0.4-0.6,0.9-1,1.7-1.3
			c0.7-0.3,1.7-0.5,2.8-0.5c0.8,0,1.5,0.1,2.3,0.3c0.7,0.2,1.4,0.5,1.9,0.9l-0.6,1.5c-0.5-0.3-1.1-0.6-1.7-0.8
			c-0.6-0.2-1.2-0.3-1.8-0.3c-1,0-1.8,0.2-2.4,0.6c-0.5,0.4-0.8,0.9-0.8,1.5c0,0.4,0.1,0.8,0.4,1.1c0.3,0.3,0.7,0.5,1.1,0.6
			c0.4,0.2,1,0.3,1.8,0.5c1,0.2,1.8,0.5,2.4,0.7c0.6,0.2,1.1,0.6,1.5,1.1c0.4,0.5,0.6,1.1,0.6,1.9c0,0.7-0.2,1.3-0.6,1.9
			c-0.4,0.6-0.9,1-1.7,1.3c-0.8,0.3-1.7,0.5-2.8,0.5C236.1,260.8,235.2,260.7,234.3,260.3z"/>
	</g>
	<g>
		<rect x="248.8" y="253.2" class="st1" width="34.6" height="1.9"/>
		<rect x="0" y="253.2" class="st1" width="34.6" height="1.9"/>
	</g>
	<g>
		<polygon class="st0" points="43,202.9 43,198.6 35.6,198.6 21.6,222.8 7.3,198.6 0,198.6 0,236.7 8.3,236.7 8.3,217.8 19.4,236.7 
			23.4,236.7 		"/>
		<polygon class="st0" points="34.7,229 34.7,236.7 43,236.7 43,214.7 		"/>
	</g>
	<polygon class="st0" points="189.5,198.6 180.8,198.6 163.8,236.7 172.9,236.7 185.1,207.2 191.2,221.8 185.7,221.8 182.9,228.5 
		193.9,228.5 197.3,236.7 206.6,236.7 	"/>
</g>
</svg>
